<svg xmlns="http://www.w3.org/2000/svg" xmlns:xlink="http://www.w3.org/1999/xlink" xmlns:lucid="lucid" width="1453" height="969"><g transform="translate(-87 -20)" lucid:page-tab-id="0_0"><path d="M1000 667.5h220v281h-220z" stroke="#000" stroke-width="2" fill="#fff"/><path d="M1000 705.1h220m-220 121.33h220" stroke="#000" stroke-width="2" fill="none"/><use xlink:href="#a" transform="matrix(1,0,0,1,1008,675.5) translate(63.074999999999996 14.6)"/><use xlink:href="#b" transform="matrix(1,0,0,1,1012,713.1) translate(0 24.55555555555555)"/><use xlink:href="#c" transform="matrix(1,0,0,1,1012,713.1) translate(29.530864197530867 24.55555555555555)"/><use xlink:href="#d" transform="matrix(1,0,0,1,1012,713.1) translate(0 45.888888888888886)"/><use xlink:href="#e" transform="matrix(1,0,0,1,1012,713.1) translate(137.03703703703707 45.888888888888886)"/><use xlink:href="#f" transform="matrix(1,0,0,1,1012,713.1) translate(0 67.22222222222223)"/><use xlink:href="#g" transform="matrix(1,0,0,1,1012,713.1) translate(94.56790123456793 67.22222222222223)"/><use xlink:href="#h" transform="matrix(1,0,0,1,1012,713.1) translate(0 88.55555555555556)"/><use xlink:href="#i" transform="matrix(1,0,0,1,1012,713.1) translate(70.02469135802471 88.55555555555556)"/><use xlink:href="#j" transform="matrix(1,0,0,1,1012,713.1) translate(124.24691358024694 88.55555555555556)"/><use xlink:href="#k" transform="matrix(1,0,0,1,1012,713.1) translate(134.1234567901235 88.55555555555556)"/><use xlink:href="#l" transform="matrix(1,0,0,1,1012,834.4333333333334) translate(0 24.69999999999999)"/><use xlink:href="#m" transform="matrix(1,0,0,1,1012,834.4333333333334) translate(0 46.29999999999999)"/><use xlink:href="#n" transform="matrix(1,0,0,1,1012,834.4333333333334) translate(0 67.89999999999999)"/><use xlink:href="#o" transform="matrix(1,0,0,1,1012,834.4333333333334) translate(0 89.5)"/><path d="M500 626.5h220v322H500z" stroke="#000" stroke-width="2" fill="#fff"/><path d="M500 664.1h220M500 811.25h220" stroke="#000" stroke-width="2" fill="none"/><use xlink:href="#p" transform="matrix(1,0,0,1,508,634.5) translate(73.55 14.6)"/><use xlink:href="#q" transform="matrix(1,0,0,1,512,672.1) translate(0 26.39999999999999)"/><use xlink:href="#r" transform="matrix(1,0,0,1,512,672.1) translate(29.9 26.39999999999999)"/><use xlink:href="#s" transform="matrix(1,0,0,1,512,672.1) translate(0 47.99999999999999)"/><use xlink:href="#t" transform="matrix(1,0,0,1,512,672.1) translate(117.8 47.99999999999999)"/><use xlink:href="#u" transform="matrix(1,0,0,1,512,672.1) translate(0 69.6)"/><use xlink:href="#t" transform="matrix(1,0,0,1,512,672.1) translate(92.85000000000001 69.6)"/><use xlink:href="#v" transform="matrix(1,0,0,1,512,672.1) translate(0 91.20000000000002)"/><use xlink:href="#w" transform="matrix(1,0,0,1,512,672.1) translate(69.9 91.20000000000002)"/><use xlink:href="#x" transform="matrix(1,0,0,1,512,672.1) translate(141.75 91.20000000000002)"/><use xlink:href="#y" transform="matrix(1,0,0,1,512,672.1) translate(0 112.80000000000001)"/><use xlink:href="#z" transform="matrix(1,0,0,1,512,672.1) translate(98.85000000000001 112.80000000000001)"/><use xlink:href="#A" transform="matrix(1,0,0,1,512,672.1) translate(186.70000000000002 112.80000000000001)"/><use xlink:href="#B" transform="matrix(1,0,0,1,512,819.2519434628975) translate(0 20.89999999999999)"/><use xlink:href="#C" transform="matrix(1,0,0,1,512,819.2519434628975) translate(0 42.49999999999999)"/><use xlink:href="#D" transform="matrix(1,0,0,1,512,819.2519434628975) translate(0 64.1)"/><use xlink:href="#E" transform="matrix(1,0,0,1,512,819.2519434628975) translate(0 85.70000000000002)"/><use xlink:href="#F" transform="matrix(1,0,0,1,512,819.2519434628975) translate(0 107.30000000000001)"/><path d="M120 380h180v307H120z" stroke="#000" stroke-width="2" fill="#fff"/><path d="M120 417.6h180M120 588.7h180" stroke="#000" stroke-width="2" fill="none"/><use xlink:href="#G" transform="matrix(1,0,0,1,128,388) translate(51.074999999999996 14.6)"/><use xlink:href="#q" transform="matrix(1,0,0,1,132,425.6) translate(0 38.39999999999999)"/><use xlink:href="#r" transform="matrix(1,0,0,1,132,425.6) translate(29.9 38.39999999999999)"/><use xlink:href="#H" transform="matrix(1,0,0,1,132,425.6) translate(0 59.99999999999999)"/><use xlink:href="#I" transform="matrix(1,0,0,1,132,425.6) translate(65.9 59.99999999999999)"/><use xlink:href="#J" transform="matrix(1,0,0,1,132,425.6) translate(0 81.6)"/><use xlink:href="#t" transform="matrix(1,0,0,1,132,425.6) translate(60.9 81.6)"/><use xlink:href="#K" transform="matrix(1,0,0,1,132,425.6) translate(0 103.20000000000002)"/><use xlink:href="#t" transform="matrix(1,0,0,1,132,425.6) translate(58.800000000000004 103.20000000000002)"/><use xlink:href="#L" transform="matrix(1,0,0,1,132,425.6) translate(0 124.80000000000001)"/><use xlink:href="#M" transform="matrix(1,0,0,1,132,425.6) translate(64.95 124.80000000000001)"/><use xlink:href="#N" transform="matrix(1,0,0,1,132,596.7040000000001) translate(0 23.5)"/><use xlink:href="#O" transform="matrix(1,0,0,1,132,596.7040000000001) translate(0 45.1)"/><use xlink:href="#P" transform="matrix(1,0,0,1,132,596.7040000000001) translate(0 66.7)"/><path d="M800 127h240v476H800z" stroke="#000" stroke-width="2" fill="#fff"/><path d="M800 164.6h240M800 413.38h240" stroke="#000" stroke-width="2" fill="none"/><use xlink:href="#Q" transform="matrix(1,0,0,1,808,135) translate(87.05 14.6)"/><use xlink:href="#q" transform="matrix(1,0,0,1,812,172.6) translate(0 44.50000000000001)"/><use xlink:href="#r" transform="matrix(1,0,0,1,812,172.6) translate(29.9 44.50000000000001)"/><use xlink:href="#R" transform="matrix(1,0,0,1,812,172.6) translate(0 66.10000000000001)"/><use xlink:href="#t" transform="matrix(1,0,0,1,812,172.6) translate(53.85 66.10000000000001)"/><use xlink:href="#u" transform="matrix(1,0,0,1,812,172.6) translate(0 87.70000000000002)"/><use xlink:href="#t" transform="matrix(1,0,0,1,812,172.6) translate(92.85000000000001 87.70000000000002)"/><use xlink:href="#S" transform="matrix(1,0,0,1,812,172.6) translate(0 109.30000000000003)"/><use xlink:href="#T" transform="matrix(1,0,0,1,812,172.6) translate(92.85000000000001 109.30000000000003)"/><use xlink:href="#U" transform="matrix(1,0,0,1,812,172.6) translate(0 130.9)"/><use xlink:href="#T" transform="matrix(1,0,0,1,812,172.6) translate(80.80000000000001 130.9)"/><use xlink:href="#V" transform="matrix(1,0,0,1,812,172.6) translate(0 152.50000000000003)"/><use xlink:href="#W" transform="matrix(1,0,0,1,812,172.6) translate(117.80000000000001 152.50000000000003)"/><use xlink:href="#X" transform="matrix(1,0,0,1,812,172.6) translate(184.65000000000003 152.50000000000003)"/><use xlink:href="#x" transform="matrix(1,0,0,1,812,172.6) translate(194.65000000000003 152.50000000000003)"/><use xlink:href="#Y" transform="matrix(1,0,0,1,812,172.6) translate(0 174.1)"/><use xlink:href="#Z" transform="matrix(1,0,0,1,812,172.6) translate(113.80000000000001 174.1)"/><use xlink:href="#X" transform="matrix(1,0,0,1,812,172.6) translate(148.8 174.1)"/><use xlink:href="#x" transform="matrix(1,0,0,1,812,172.6) translate(158.8 174.1)"/><use xlink:href="#aa" transform="matrix(1,0,0,1,812,172.6) translate(0 195.70000000000002)"/><use xlink:href="#ab" transform="matrix(1,0,0,1,812,172.6) translate(10.95 195.70000000000002)"/><use xlink:href="#ac" transform="matrix(1,0,0,1,812,172.6) translate(93.9 195.70000000000002)"/><use xlink:href="#X" transform="matrix(1,0,0,1,812,172.6) translate(164.85000000000002 195.70000000000002)"/><use xlink:href="#A" transform="matrix(1,0,0,1,812,172.6) translate(174.85000000000002 195.70000000000002)"/><g><use xlink:href="#ad" transform="matrix(1,0,0,1,812,421.37714285714287) translate(0 25.800000000000004)"/><use xlink:href="#C" transform="matrix(1,0,0,1,812,421.37714285714287) translate(0 47.400000000000006)"/><use xlink:href="#E" transform="matrix(1,0,0,1,812,421.37714285714287) translate(0 69.00000000000001)"/><use xlink:href="#ae" transform="matrix(1,0,0,1,812,421.37714285714287) translate(0 90.60000000000002)"/><use xlink:href="#af" transform="matrix(1,0,0,1,812,421.37714285714287) translate(0 112.20000000000002)"/><use xlink:href="#ag" transform="matrix(1,0,0,1,812,421.37714285714287) translate(0 133.8)"/><use xlink:href="#ah" transform="matrix(1,0,0,1,812,421.37714285714287) translate(0 155.4)"/></g><path d="M400 260h220v234H400z" stroke="#000" stroke-width="2" fill="#fff"/><path d="M400 297.6h220M400 442.08h220" stroke="#000" stroke-width="2" fill="none"/><g><use xlink:href="#ai" transform="matrix(1,0,0,1,408,268) translate(87 14.6)"/></g><g><use xlink:href="#q" transform="matrix(1,0,0,1,412,305.6) translate(0 46.5)"/><use xlink:href="#aj" transform="matrix(1,0,0,1,412,305.6) translate(29.9 46.5)"/><use xlink:href="#u" transform="matrix(1,0,0,1,412,305.6) translate(0 68.10000000000001)"/><use xlink:href="#t" transform="matrix(1,0,0,1,412,305.6) translate(92.85000000000001 68.10000000000001)"/><use xlink:href="#ak" transform="matrix(1,0,0,1,412,305.6) translate(0 89.70000000000002)"/><use xlink:href="#M" transform="matrix(1,0,0,1,412,305.6) translate(118.75 89.70000000000002)"/></g><g><use xlink:href="#al" transform="matrix(1,0,0,1,412,450.07968750000003) translate(0 21.6)"/></g><path d="M1280 269.67h220v234h-220z" stroke="#000" stroke-width="2" fill="#fff"/><path d="M1280 307.27h220m-220 144.48h220" stroke="#000" stroke-width="2" fill="none"/><g><use xlink:href="#am" transform="matrix(1,0,0,1,1288,277.66666666666674) translate(69.025 14.6)"/></g><g><use xlink:href="#q" transform="matrix(1,0,0,1,1292,315.26666666666677) translate(0 46.5)"/><use xlink:href="#aj" transform="matrix(1,0,0,1,1292,315.26666666666677) translate(29.9 46.5)"/><use xlink:href="#R" transform="matrix(1,0,0,1,1292,315.26666666666677) translate(0 68.10000000000001)"/><use xlink:href="#t" transform="matrix(1,0,0,1,1292,315.26666666666677) translate(53.85 68.10000000000001)"/><use xlink:href="#an" transform="matrix(1,0,0,1,1292,315.26666666666677) translate(0 89.70000000000002)"/><use xlink:href="#M" transform="matrix(1,0,0,1,1292,315.26666666666677) translate(40.9 89.70000000000002)"/></g><g><use xlink:href="#ao" transform="matrix(1,0,0,1,1292,459.7463541666668) translate(0 21.6)"/></g><path d="M401 786.5h29.4v2H399v-254h-24.7v-2H401zm97 0v2h-40.6v-2zm-166.25-252v-2h15.55v2z" stroke="#000" stroke-width=".05"/><path d="M332.4 533.5l-15.14 14.85-14.85-14.85 14.86-14.85z"/><path d="M333.84 533.5l-16.58 16.26L301 533.5l16.26-16.26zm-30 0l13.43 13.44L331 533.5l-13.73-13.44z" stroke="#000" stroke-width=".05"/><path d="M499 788.5h-1.03v-2H499z"/><path d="M499.02 788.52h-1.07v-2.04h1.07zm-1.02-2v1.96h.98v-1.96z" stroke="#000" stroke-width=".05"/><g><use xlink:href="#ap" transform="matrix(1,0,0,1,430.3923476005186,776.7) translate(0 14.4)"/></g><g><use xlink:href="#aq" transform="matrix(1,0,0,1,347.29766536964956,522.7) translate(0 14.4)"/></g><path d="M861 807h78.4v2H859v-20.5h-76.9v-2H861zm137 0v2h-31.6v-2zm-246.25-18.5v-2h20.34v2z" stroke="#000" stroke-width=".05"/><path d="M752.4 787.5l-15.14 14.85-14.85-14.85 14.86-14.85z"/><path d="M753.84 787.5l-16.58 16.26L721 787.5l16.26-16.26zm-30 0l13.43 13.44L751 787.5l-13.73-13.44z" stroke="#000" stroke-width=".05"/><path d="M999 809h-1.03v-2H999z"/><path d="M999.02 809.02h-1.07V807h1.07zm-1.02-2V809h.98V807z" stroke="#000" stroke-width=".05"/><g><use xlink:href="#ap" transform="matrix(1,0,0,1,939.4120287253154,797.2) translate(0 14.4)"/></g><g><use xlink:href="#ar" transform="matrix(1,0,0,1,772.0915619389598,776.7) translate(0 14.4)"/></g><path d="M1111 635.75h-2V601.8h2zm0-55.55h-2V366h-18.17v-2H1111zM1042 366v-2h21.83v2z" stroke="#000" stroke-width=".05"/><path d="M1124.85 650.24L1110 665.1l-14.85-14.86L1110 635.1z"/><path d="M1126.26 650.24L1110 666.5l-16.26-16.26 16.26-16.58zm-29.7 0l13.44 13.43 13.44-13.44L1110 636.5z" stroke="#000" stroke-width=".05"/><path d="M1042.03 366H1041v-2h1.03z"/><path d="M1042.05 366.02h-1.08v-2.04h1.08zm-1.02-2v1.96h.97v-1.96z" stroke="#000" stroke-width=".05"/><g><use xlink:href="#ap" transform="matrix(1,0,0,1,1063.8333333333346,354.2) translate(0 14.4)"/></g><g><use xlink:href="#ar" transform="matrix(1,0,0,1,1105,580.200000000001) translate(0 14.4)"/></g><path d="M1161 297.67h74.35v2H1159V284h-65.53v-2H1161zm117 0v2h-15.65v-2z" stroke="#000" stroke-width=".05"/><path d="M1279 299.67h-1.03v-2h1.03z"/><path d="M1279.03 299.7h-1.08v-2.06h1.08zm-1.03-2v1.94h.97v-1.95z" stroke="#000" stroke-width=".05"/><path d="M1066.47 277.17v11.66l-9.2 9.02L1042.4 283l14.86-14.85z" fill="#fff"/><path d="M1066.47 275.77v2.8l-9.2-9-13.44 13.43 13.44 13.44 9.2-9v2.8l-9.2 9.02L1041 283l16.26-16.26z" stroke="#000" stroke-width=".05"/><g><use xlink:href="#ap" transform="matrix(1,0,0,1,1066.4690821256038,272.2) translate(0 14.4)"/></g><g><use xlink:href="#ap" transform="matrix(1,0,0,1,1235.3541062801933,287.86666666666673) translate(0 14.4)"/></g><path d="M637.64 378H622v-2h15.64zm80.77-39.33H711V378h-46.36v-2H709v-39.33h9.4zm49.85 0H748.4v-2h19.85z" stroke="#000" stroke-width=".05"/><path d="M622.03 378H621v-2h1.03z"/><path d="M622.05 378.02h-1.07v-2.04h1.07zm-1.02-2v1.96h.97v-1.96z" stroke="#000" stroke-width=".05"/><path d="M797.6 337.67l-14.86 14.85-15.15-14.85 15.14-14.85z" fill="#fff"/><path d="M799 337.67l-16.26 16.25-16.58-16.25 16.58-16.26zm-30 0l13.73 13.44 13.44-13.43-13.44-13.44z" stroke="#000" stroke-width=".05"/><g><use xlink:href="#as" transform="matrix(1,0,0,1,718.4100054377376,326.8666666666665) translate(0 14.4)"/></g><g><use xlink:href="#ap" transform="matrix(1,0,0,1,637.6359434475255,366.2) translate(0 14.4)"/></g><defs><path d="M212-179c-10-28-35-45-73-45-59 0-87 40-87 99 0 60 29 101 89 101 43 0 62-24 78-52l27 14C228-24 195 4 139 4 59 4 22-46 18-125c-6-104 99-153 187-111 19 9 31 26 39 46" id="at"/><path d="M141-36C126-15 110 5 73 4 37 3 15-17 15-53c-1-64 63-63 125-63 3-35-9-54-41-54-24 1-41 7-42 31l-33-3c5-37 33-52 76-52 45 0 72 20 72 64v82c-1 20 7 32 28 27v20c-31 9-61-2-59-35zM48-53c0 20 12 33 32 33 41-3 63-29 60-74-43 2-92-5-92 41" id="au"/><path d="M59-47c-2 24 18 29 38 22v24C64 9 27 4 27-40v-127H5v-23h24l9-43h21v43h35v23H59v120" id="av"/><path d="M100-194c63 0 86 42 84 106H49c0 40 14 67 53 68 26 1 43-12 49-29l28 8c-11 28-37 45-77 45C44 4 14-33 15-96c1-61 26-98 85-98zm52 81c6-60-76-77-97-28-3 7-6 17-6 28h103" id="aw"/><path d="M177-190C167-65 218 103 67 71c-23-6-38-20-44-43l32-5c15 47 100 32 89-28v-30C133-14 115 1 83 1 29 1 15-40 15-95c0-56 16-97 71-98 29-1 48 16 59 35 1-10 0-23 2-32h30zM94-22c36 0 50-32 50-73 0-42-14-75-50-75-39 0-46 34-46 75s6 73 46 73" id="ax"/><path d="M100-194c62-1 85 37 85 99 1 63-27 99-86 99S16-35 15-95c0-66 28-99 85-99zM99-20c44 1 53-31 53-75 0-43-8-75-51-75s-53 32-53 75 10 74 51 75" id="ay"/><path d="M114-163C36-179 61-72 57 0H25l-1-190h30c1 12-1 29 2 39 6-27 23-49 58-41v29" id="az"/><path d="M24-231v-30h32v30H24zM24 0v-190h32V0H24" id="aA"/><g id="a"><use transform="matrix(0.05,0,0,0.05,0,0)" xlink:href="#at"/><use transform="matrix(0.05,0,0,0.05,12.950000000000001,0)" xlink:href="#au"/><use transform="matrix(0.05,0,0,0.05,22.950000000000003,0)" xlink:href="#av"/><use transform="matrix(0.05,0,0,0.05,27.950000000000003,0)" xlink:href="#aw"/><use transform="matrix(0.05,0,0,0.05,37.95,0)" xlink:href="#ax"/><use transform="matrix(0.05,0,0,0.05,47.95,0)" xlink:href="#ay"/><use transform="matrix(0.05,0,0,0.05,57.95,0)" xlink:href="#az"/><use transform="matrix(0.05,0,0,0.05,63.900000000000006,0)" xlink:href="#aA"/><use transform="matrix(0.05,0,0,0.05,67.85000000000001,0)" xlink:href="#au"/></g><path d="M16-82v-28h88v28H16" id="aB"/><path d="M85-194c31 0 48 13 60 33l-1-100h32l1 261h-30c-2-10 0-23-3-31C134-8 116 4 85 4 32 4 16-35 15-94c0-66 23-100 70-100zm9 24c-40 0-46 34-46 75 0 40 6 74 45 74 42 0 51-32 51-76 0-42-9-74-50-73" id="aC"/><path d="M33-154v-36h34v36H33zM33 0v-36h34V0H33" id="aD"/><g id="b"><use transform="matrix(0.04938271604938272,0,0,0.04938271604938272,0,0)" xlink:href="#aB"/><use transform="matrix(0.04938271604938272,0,0,0.04938271604938272,5.8765432098765435,0)" xlink:href="#aA"/><use transform="matrix(0.04938271604938272,0,0,0.04938271604938272,9.777777777777779,0)" xlink:href="#aC"/><use transform="matrix(0.04938271604938272,0,0,0.04938271604938272,19.654320987654323,0)" xlink:href="#aD"/></g><path d="M84 4C-5 8 30-112 23-190h32v120c0 31 7 50 39 49 72-2 45-101 50-169h31l1 190h-30c-1-10 1-25-2-33-11 22-28 36-60 37" id="aE"/><g id="c"><use transform="matrix(0.04938271604938272,0,0,0.04938271604938272,0,0)" xlink:href="#aE"/><use transform="matrix(0.04938271604938272,0,0,0.04938271604938272,9.876543209876544,0)" xlink:href="#aE"/><use transform="matrix(0.04938271604938272,0,0,0.04938271604938272,19.75308641975309,0)" xlink:href="#aA"/><use transform="matrix(0.04938271604938272,0,0,0.04938271604938272,23.654320987654323,0)" xlink:href="#aC"/></g><path d="M117-194c89-4 53 116 60 194h-32v-121c0-31-8-49-39-48C34-167 62-67 57 0H25l-1-190h30c1 10-1 24 2 32 11-22 29-35 61-36" id="aF"/><path d="M210-169c-67 3-38 105-44 169h-31v-121c0-29-5-50-35-48C34-165 62-65 56 0H25l-1-190h30c1 10-1 24 2 32 10-44 99-50 107 0 11-21 27-35 58-36 85-2 47 119 55 194h-31v-121c0-29-5-49-35-48" id="aG"/><g id="d"><use transform="matrix(0.04938271604938272,0,0,0.04938271604938272,0,0)" xlink:href="#aB"/><use transform="matrix(0.04938271604938272,0,0,0.04938271604938272,5.8765432098765435,0)" xlink:href="#aF"/><use transform="matrix(0.04938271604938272,0,0,0.04938271604938272,15.753086419753087,0)" xlink:href="#ay"/><use transform="matrix(0.04938271604938272,0,0,0.04938271604938272,25.629629629629633,0)" xlink:href="#aG"/><use transform="matrix(0.04938271604938272,0,0,0.04938271604938272,40.39506172839506,0)" xlink:href="#aw"/><use transform="matrix(0.04938271604938272,0,0,0.04938271604938272,50.27160493827161,0)" xlink:href="#at"/><use transform="matrix(0.04938271604938272,0,0,0.04938271604938272,63.061728395061735,0)" xlink:href="#au"/><use transform="matrix(0.04938271604938272,0,0,0.04938271604938272,72.93827160493828,0)" xlink:href="#av"/><use transform="matrix(0.04938271604938272,0,0,0.04938271604938272,77.87654320987656,0)" xlink:href="#aw"/><use transform="matrix(0.04938271604938272,0,0,0.04938271604938272,87.7530864197531,0)" xlink:href="#ax"/><use transform="matrix(0.04938271604938272,0,0,0.04938271604938272,97.62962962962965,0)" xlink:href="#ay"/><use transform="matrix(0.04938271604938272,0,0,0.04938271604938272,107.50617283950618,0)" xlink:href="#az"/><use transform="matrix(0.04938271604938272,0,0,0.04938271604938272,113.38271604938272,0)" xlink:href="#aA"/><use transform="matrix(0.04938271604938272,0,0,0.04938271604938272,117.28395061728398,0)" xlink:href="#au"/><use transform="matrix(0.04938271604938272,0,0,0.04938271604938272,127.16049382716052,0)" xlink:href="#aD"/></g><path d="M135-143c-3-34-86-38-87 0 15 53 115 12 119 90S17 21 10-45l28-5c4 36 97 45 98 0-10-56-113-15-118-90-4-57 82-63 122-42 12 7 21 19 24 35" id="aH"/><g id="e"><use transform="matrix(0.04938271604938272,0,0,0.04938271604938272,0,0)" xlink:href="#aH"/><use transform="matrix(0.04938271604938272,0,0,0.04938271604938272,8.88888888888889,0)" xlink:href="#av"/><use transform="matrix(0.04938271604938272,0,0,0.04938271604938272,13.827160493827162,0)" xlink:href="#az"/><use transform="matrix(0.04938271604938272,0,0,0.04938271604938272,19.703703703703706,0)" xlink:href="#aA"/><use transform="matrix(0.04938271604938272,0,0,0.04938271604938272,23.60493827160494,0)" xlink:href="#aF"/><use transform="matrix(0.04938271604938272,0,0,0.04938271604938272,33.48148148148148,0)" xlink:href="#ax"/></g><path d="M115-194c55 1 70 41 70 98S169 2 115 4C84 4 66-9 55-30l1 105H24l-1-265h31l2 30c10-21 28-34 59-34zm-8 174c40 0 45-34 45-75s-6-73-45-74c-42 0-51 32-51 76 0 43 10 73 51 73" id="aI"/><g id="f"><use transform="matrix(0.04938271604938272,0,0,0.04938271604938272,0,0)" xlink:href="#aB"/><use transform="matrix(0.04938271604938272,0,0,0.04938271604938272,5.8765432098765435,0)" xlink:href="#aI"/><use transform="matrix(0.04938271604938272,0,0,0.04938271604938272,15.753086419753087,0)" xlink:href="#az"/><use transform="matrix(0.04938271604938272,0,0,0.04938271604938272,21.629629629629633,0)" xlink:href="#aA"/><use transform="matrix(0.04938271604938272,0,0,0.04938271604938272,25.530864197530867,0)" xlink:href="#ay"/><use transform="matrix(0.04938271604938272,0,0,0.04938271604938272,35.40740740740741,0)" xlink:href="#az"/><use transform="matrix(0.04938271604938272,0,0,0.04938271604938272,41.283950617283956,0)" xlink:href="#aA"/><use transform="matrix(0.04938271604938272,0,0,0.04938271604938272,45.18518518518519,0)" xlink:href="#aC"/><use transform="matrix(0.04938271604938272,0,0,0.04938271604938272,55.061728395061735,0)" xlink:href="#au"/><use transform="matrix(0.04938271604938272,0,0,0.04938271604938272,64.93827160493828,0)" xlink:href="#aC"/><use transform="matrix(0.04938271604938272,0,0,0.04938271604938272,74.81481481481482,0)" xlink:href="#aw"/><use transform="matrix(0.04938271604938272,0,0,0.04938271604938272,84.69135802469137,0)" xlink:href="#aD"/></g><g id="g"><use transform="matrix(0.04938271604938272,0,0,0.04938271604938272,0,0)" xlink:href="#aA"/><use transform="matrix(0.04938271604938272,0,0,0.04938271604938272,3.901234567901235,0)" xlink:href="#aF"/><use transform="matrix(0.04938271604938272,0,0,0.04938271604938272,13.777777777777779,0)" xlink:href="#av"/></g><path d="M101-234c-31-9-42 10-38 44h38v23H63V0H32v-167H5v-23h27c-7-52 17-82 69-68v24" id="aJ"/><g id="h"><use transform="matrix(0.04938271604938272,0,0,0.04938271604938272,0,0)" xlink:href="#aB"/><use transform="matrix(0.04938271604938272,0,0,0.04938271604938272,5.8765432098765435,0)" xlink:href="#av"/><use transform="matrix(0.04938271604938272,0,0,0.04938271604938272,10.814814814814817,0)" xlink:href="#au"/><use transform="matrix(0.04938271604938272,0,0,0.04938271604938272,20.69135802469136,0)" xlink:href="#az"/><use transform="matrix(0.04938271604938272,0,0,0.04938271604938272,26.567901234567902,0)" xlink:href="#aw"/><use transform="matrix(0.04938271604938272,0,0,0.04938271604938272,36.44444444444445,0)" xlink:href="#aJ"/><use transform="matrix(0.04938271604938272,0,0,0.04938271604938272,41.38271604938272,0)" xlink:href="#au"/><use transform="matrix(0.04938271604938272,0,0,0.04938271604938272,51.25925925925927,0)" xlink:href="#aH"/><use transform="matrix(0.04938271604938272,0,0,0.04938271604938272,60.14814814814815,0)" xlink:href="#aD"/></g><path d="M127-220V0H93v-220H8v-28h204v28h-85" id="aK"/><g id="i"><use transform="matrix(0.04938271604938272,0,0,0.04938271604938272,0,0)" xlink:href="#aK"/><use transform="matrix(0.04938271604938272,0,0,0.04938271604938272,8.839506172839506,0)" xlink:href="#au"/><use transform="matrix(0.04938271604938272,0,0,0.04938271604938272,18.71604938271605,0)" xlink:href="#az"/><use transform="matrix(0.04938271604938272,0,0,0.04938271604938272,24.592592592592595,0)" xlink:href="#aw"/><use transform="matrix(0.04938271604938272,0,0,0.04938271604938272,34.46913580246914,0)" xlink:href="#aJ"/><use transform="matrix(0.04938271604938272,0,0,0.04938271604938272,39.40740740740741,0)" xlink:href="#au"/></g><path d="M26 75v-336h71v23H56V52h41v23H26" id="aL"/><use transform="matrix(0.04938271604938272,0,0,0.04938271604938272,0,0)" xlink:href="#aL" id="j"/><path d="M3 75V52h41v-290H3v-23h71V75H3" id="aM"/><use transform="matrix(0.04938271604938272,0,0,0.04938271604938272,0,0)" xlink:href="#aM" id="k"/><path d="M118-107v75H92v-75H18v-26h74v-75h26v75h74v26h-74" id="aN"/><path d="M24 0v-261h32V0H24" id="aO"/><path d="M9 0v-24l116-142H16v-24h144v24L44-24h123V0H9" id="aP"/><path d="M87 75C49 33 22-17 22-94c0-76 28-126 65-167h31c-38 41-64 92-64 168S80 34 118 75H87" id="aQ"/><path d="M33-261c38 41 65 92 65 168S71 34 33 75H2C39 34 66-17 66-93S39-220 2-261h31" id="aR"/><g id="l"><use transform="matrix(0.05,0,0,0.05,0,0)" xlink:href="#aN"/><use transform="matrix(0.05,0,0,0.05,10.5,0)" xlink:href="#au"/><use transform="matrix(0.05,0,0,0.05,20.5,0)" xlink:href="#av"/><use transform="matrix(0.05,0,0,0.05,25.5,0)" xlink:href="#aE"/><use transform="matrix(0.05,0,0,0.05,35.5,0)" xlink:href="#au"/><use transform="matrix(0.05,0,0,0.05,45.5,0)" xlink:href="#aO"/><use transform="matrix(0.05,0,0,0.05,49.45,0)" xlink:href="#aA"/><use transform="matrix(0.05,0,0,0.05,53.400000000000006,0)" xlink:href="#aP"/><use transform="matrix(0.05,0,0,0.05,62.400000000000006,0)" xlink:href="#au"/><use transform="matrix(0.05,0,0,0.05,72.4,0)" xlink:href="#az"/><use transform="matrix(0.05,0,0,0.05,78.35000000000001,0)" xlink:href="#at"/><use transform="matrix(0.05,0,0,0.05,91.30000000000001,0)" xlink:href="#au"/><use transform="matrix(0.05,0,0,0.05,101.30000000000001,0)" xlink:href="#av"/><use transform="matrix(0.05,0,0,0.05,106.30000000000001,0)" xlink:href="#aw"/><use transform="matrix(0.05,0,0,0.05,116.30000000000001,0)" xlink:href="#ax"/><use transform="matrix(0.05,0,0,0.05,126.30000000000001,0)" xlink:href="#ay"/><use transform="matrix(0.05,0,0,0.05,136.3,0)" xlink:href="#az"/><use transform="matrix(0.05,0,0,0.05,142.25,0)" xlink:href="#aA"/><use transform="matrix(0.05,0,0,0.05,146.2,0)" xlink:href="#au"/><use transform="matrix(0.05,0,0,0.05,156.2,0)" xlink:href="#aQ"/><use transform="matrix(0.05,0,0,0.05,162.14999999999998,0)" xlink:href="#aR"/></g><g id="m"><use transform="matrix(0.05,0,0,0.05,0,0)" xlink:href="#aN"/><use transform="matrix(0.05,0,0,0.05,10.5,0)" xlink:href="#au"/><use transform="matrix(0.05,0,0,0.05,20.5,0)" xlink:href="#aC"/><use transform="matrix(0.05,0,0,0.05,30.5,0)" xlink:href="#aC"/><use transform="matrix(0.05,0,0,0.05,40.5,0)" xlink:href="#aK"/><use transform="matrix(0.05,0,0,0.05,49.45,0)" xlink:href="#au"/><use transform="matrix(0.05,0,0,0.05,59.45,0)" xlink:href="#az"/><use transform="matrix(0.05,0,0,0.05,65.4,0)" xlink:href="#aw"/><use transform="matrix(0.05,0,0,0.05,75.4,0)" xlink:href="#aJ"/><use transform="matrix(0.05,0,0,0.05,80.4,0)" xlink:href="#au"/><use transform="matrix(0.05,0,0,0.05,90.4,0)" xlink:href="#aQ"/><use transform="matrix(0.05,0,0,0.05,96.35000000000001,0)" xlink:href="#aR"/></g><g id="n"><use transform="matrix(0.05,0,0,0.05,0,0)" xlink:href="#aN"/><use transform="matrix(0.05,0,0,0.05,10.5,0)" xlink:href="#aG"/><use transform="matrix(0.05,0,0,0.05,25.450000000000003,0)" xlink:href="#ay"/><use transform="matrix(0.05,0,0,0.05,35.45,0)" xlink:href="#aH"/><use transform="matrix(0.05,0,0,0.05,44.45,0)" xlink:href="#av"/><use transform="matrix(0.05,0,0,0.05,49.45,0)" xlink:href="#az"/><use transform="matrix(0.05,0,0,0.05,55.400000000000006,0)" xlink:href="#au"/><use transform="matrix(0.05,0,0,0.05,65.4,0)" xlink:href="#az"/><use transform="matrix(0.05,0,0,0.05,71.35000000000001,0)" xlink:href="#aK"/><use transform="matrix(0.05,0,0,0.05,80.30000000000001,0)" xlink:href="#au"/><use transform="matrix(0.05,0,0,0.05,90.30000000000001,0)" xlink:href="#az"/><use transform="matrix(0.05,0,0,0.05,96.25000000000001,0)" xlink:href="#aw"/><use transform="matrix(0.05,0,0,0.05,106.25,0)" xlink:href="#aJ"/><use transform="matrix(0.05,0,0,0.05,111.25,0)" xlink:href="#au"/><use transform="matrix(0.05,0,0,0.05,121.25,0)" xlink:href="#aQ"/><use transform="matrix(0.05,0,0,0.05,127.2,0)" xlink:href="#aR"/></g><path d="M108 0H70L1-190h34L89-25l56-165h34" id="aS"/><g id="o"><use transform="matrix(0.05,0,0,0.05,0,0)" xlink:href="#aN"/><use transform="matrix(0.05,0,0,0.05,10.5,0)" xlink:href="#az"/><use transform="matrix(0.05,0,0,0.05,16.45,0)" xlink:href="#aw"/><use transform="matrix(0.05,0,0,0.05,26.450000000000003,0)" xlink:href="#aG"/><use transform="matrix(0.05,0,0,0.05,41.4,0)" xlink:href="#ay"/><use transform="matrix(0.05,0,0,0.05,51.400000000000006,0)" xlink:href="#aS"/><use transform="matrix(0.05,0,0,0.05,60.400000000000006,0)" xlink:href="#aw"/><use transform="matrix(0.05,0,0,0.05,70.4,0)" xlink:href="#az"/><use transform="matrix(0.05,0,0,0.05,76.35000000000001,0)" xlink:href="#aK"/><use transform="matrix(0.05,0,0,0.05,85.30000000000001,0)" xlink:href="#au"/><use transform="matrix(0.05,0,0,0.05,95.30000000000001,0)" xlink:href="#az"/><use transform="matrix(0.05,0,0,0.05,101.25000000000001,0)" xlink:href="#aw"/><use transform="matrix(0.05,0,0,0.05,111.25,0)" xlink:href="#aJ"/><use transform="matrix(0.05,0,0,0.05,116.25,0)" xlink:href="#au"/><use transform="matrix(0.05,0,0,0.05,126.25,0)" xlink:href="#aQ"/><use transform="matrix(0.05,0,0,0.05,132.20000000000002,0)" xlink:href="#aR"/></g><path d="M30-248c87 1 191-15 191 75 0 78-77 80-158 76V0H30v-248zm33 125c57 0 124 11 124-50 0-59-68-47-124-48v98" id="aT"/><path d="M24-231v-30h32v30H24zM-9 49c24 4 33-6 33-30v-209h32V24c2 40-23 58-65 49V49" id="aU"/><g id="p"><use transform="matrix(0.05,0,0,0.05,0,0)" xlink:href="#aT"/><use transform="matrix(0.05,0,0,0.05,12,0)" xlink:href="#az"/><use transform="matrix(0.05,0,0,0.05,17.95,0)" xlink:href="#ay"/><use transform="matrix(0.05,0,0,0.05,27.950000000000003,0)" xlink:href="#aU"/><use transform="matrix(0.05,0,0,0.05,31.899999999999995,0)" xlink:href="#aw"/><use transform="matrix(0.05,0,0,0.05,41.9,0)" xlink:href="#av"/><use transform="matrix(0.05,0,0,0.05,46.9,0)" xlink:href="#ay"/></g><g id="q"><use transform="matrix(0.05,0,0,0.05,0,0)" xlink:href="#aB"/><use transform="matrix(0.05,0,0,0.05,5.95,0)" xlink:href="#aA"/><use transform="matrix(0.05,0,0,0.05,9.9,0)" xlink:href="#aC"/><use transform="matrix(0.05,0,0,0.05,19.9,0)" xlink:href="#aD"/></g><g id="r"><use transform="matrix(0.05,0,0,0.05,0,0)" xlink:href="#aE"/><use transform="matrix(0.05,0,0,0.05,10,0)" xlink:href="#aE"/><use transform="matrix(0.05,0,0,0.05,20,0)" xlink:href="#aA"/><use transform="matrix(0.05,0,0,0.05,23.95,0)" xlink:href="#aC"/></g><g id="s"><use transform="matrix(0.05,0,0,0.05,0,0)" xlink:href="#aB"/><use transform="matrix(0.05,0,0,0.05,5.95,0)" xlink:href="#aF"/><use transform="matrix(0.05,0,0,0.05,15.949999999999998,0)" xlink:href="#ay"/><use transform="matrix(0.05,0,0,0.05,25.950000000000003,0)" xlink:href="#aG"/><use transform="matrix(0.05,0,0,0.05,40.9,0)" xlink:href="#aw"/><use transform="matrix(0.05,0,0,0.05,50.9,0)" xlink:href="#aT"/><use transform="matrix(0.05,0,0,0.05,62.900000000000006,0)" xlink:href="#az"/><use transform="matrix(0.05,0,0,0.05,68.85,0)" xlink:href="#ay"/><use transform="matrix(0.05,0,0,0.05,78.85,0)" xlink:href="#aU"/><use transform="matrix(0.05,0,0,0.05,82.8,0)" xlink:href="#aw"/><use transform="matrix(0.05,0,0,0.05,92.8,0)" xlink:href="#av"/><use transform="matrix(0.05,0,0,0.05,97.8,0)" xlink:href="#ay"/><use transform="matrix(0.05,0,0,0.05,107.80000000000001,0)" xlink:href="#aD"/></g><g id="t"><use transform="matrix(0.05,0,0,0.05,0,0)" xlink:href="#aH"/><use transform="matrix(0.05,0,0,0.05,9,0)" xlink:href="#av"/><use transform="matrix(0.05,0,0,0.05,14,0)" xlink:href="#az"/><use transform="matrix(0.05,0,0,0.05,19.95,0)" xlink:href="#aA"/><use transform="matrix(0.05,0,0,0.05,23.9,0)" xlink:href="#aF"/><use transform="matrix(0.05,0,0,0.05,33.9,0)" xlink:href="#ax"/></g><path d="M96-169c-40 0-48 33-48 73s9 75 48 75c24 0 41-14 43-38l32 2c-6 37-31 61-74 61-59 0-76-41-82-99-10-93 101-131 147-64 4 7 5 14 7 22l-32 3c-4-21-16-35-41-35" id="aV"/><path d="M96-169c-40 0-48 33-48 73s9 75 48 75c24 0 41-14 43-38l32 2c-6 37-31 61-74 61-59 0-76-41-82-99-10-93 101-131 147-64 4 7 5 14 7 22l-32 3c-4-21-16-35-41-35zm3 187c19-1 33 8 33 26 0 31-30 33-64 32V58c18 2 39 4 41-13 1-15-18-13-34-13L87 0h19" id="aW"/><path d="M141-36C126-15 110 5 73 4 37 3 15-17 15-53c-1-64 63-63 125-63 3-35-9-54-41-54-24 1-41 7-42 31l-33-3c5-37 33-52 76-52 45 0 72 20 72 64v82c-1 20 7 32 28 27v20c-31 9-61-2-59-35zM48-53c0 20 12 33 32 33 41-3 63-29 60-74-43 2-92-5-92 41zm117-205c-3 23-9 48-36 47-26-1-65-44-74 0H39c4-23 8-48 36-47s64 44 74 0h16" id="aX"/><g id="u"><use transform="matrix(0.05,0,0,0.05,0,0)" xlink:href="#aB"/><use transform="matrix(0.05,0,0,0.05,5.95,0)" xlink:href="#aC"/><use transform="matrix(0.05,0,0,0.05,15.949999999999998,0)" xlink:href="#aw"/><use transform="matrix(0.05,0,0,0.05,25.950000000000003,0)" xlink:href="#aH"/><use transform="matrix(0.05,0,0,0.05,34.95,0)" xlink:href="#aV"/><use transform="matrix(0.05,0,0,0.05,43.95,0)" xlink:href="#az"/><use transform="matrix(0.05,0,0,0.05,49.900000000000006,0)" xlink:href="#aA"/><use transform="matrix(0.05,0,0,0.05,53.85,0)" xlink:href="#aW"/><use transform="matrix(0.05,0,0,0.05,62.85,0)" xlink:href="#aX"/><use transform="matrix(0.05,0,0,0.05,72.85000000000001,0)" xlink:href="#ay"/><use transform="matrix(0.05,0,0,0.05,82.85000000000001,0)" xlink:href="#aD"/></g><path d="M145-31C134-9 116 4 85 4 32 4 16-35 15-94c0-59 17-99 70-100 32-1 48 14 60 33 0-11-1-24 2-32h30l-1 268h-32zM93-21c41 0 51-33 51-76s-8-73-50-73c-40 0-46 35-46 75s5 74 45 74" id="aY"/><g id="v"><use transform="matrix(0.05,0,0,0.05,0,0)" xlink:href="#aB"/><use transform="matrix(0.05,0,0,0.05,5.95,0)" xlink:href="#aw"/><use transform="matrix(0.05,0,0,0.05,15.949999999999998,0)" xlink:href="#aY"/><use transform="matrix(0.05,0,0,0.05,25.950000000000003,0)" xlink:href="#aE"/><use transform="matrix(0.05,0,0,0.05,35.95,0)" xlink:href="#aA"/><use transform="matrix(0.05,0,0,0.05,39.900000000000006,0)" xlink:href="#aI"/><use transform="matrix(0.05,0,0,0.05,49.900000000000006,0)" xlink:href="#aw"/><use transform="matrix(0.05,0,0,0.05,59.900000000000006,0)" xlink:href="#aD"/></g><path d="M232-93c-1 65-40 97-104 97C67 4 28-28 28-90v-158h33c8 89-33 224 67 224 102 0 64-133 71-224h33v155" id="aZ"/><path d="M141-36C126-15 110 5 73 4 37 3 15-17 15-53c-1-64 63-63 125-63 3-35-9-54-41-54-24 1-41 7-42 31l-33-3c5-37 33-52 76-52 45 0 72 20 72 64v82c-1 20 7 32 28 27v20c-31 9-61-2-59-35zM48-53c0 20 12 33 32 33 41-3 63-29 60-74-43 2-92-5-92 41zm25-158c8-23 27-35 38-54h36v5l-58 49H73" id="ba"/><g id="w"><use transform="matrix(0.05,0,0,0.05,0,0)" xlink:href="#aZ"/><use transform="matrix(0.05,0,0,0.05,12.950000000000001,0)" xlink:href="#aH"/><use transform="matrix(0.05,0,0,0.05,21.950000000000003,0)" xlink:href="#aE"/><use transform="matrix(0.05,0,0,0.05,31.950000000000003,0)" xlink:href="#ba"/><use transform="matrix(0.05,0,0,0.05,41.95,0)" xlink:href="#az"/><use transform="matrix(0.05,0,0,0.05,47.900000000000006,0)" xlink:href="#aA"/><use transform="matrix(0.05,0,0,0.05,51.85,0)" xlink:href="#ay"/><use transform="matrix(0.05,0,0,0.05,61.85,0)" xlink:href="#aL"/></g><use transform="matrix(0.05,0,0,0.05,0,0)" xlink:href="#aM" id="x"/><g id="y"><use transform="matrix(0.05,0,0,0.05,0,0)" xlink:href="#aB"/><use transform="matrix(0.05,0,0,0.05,5.95,0)" xlink:href="#aV"/><use transform="matrix(0.05,0,0,0.05,14.949999999999998,0)" xlink:href="#au"/><use transform="matrix(0.05,0,0,0.05,24.95,0)" xlink:href="#av"/><use transform="matrix(0.05,0,0,0.05,29.950000000000003,0)" xlink:href="#aw"/><use transform="matrix(0.05,0,0,0.05,39.95,0)" xlink:href="#ax"/><use transform="matrix(0.05,0,0,0.05,49.95,0)" xlink:href="#ay"/><use transform="matrix(0.05,0,0,0.05,59.95,0)" xlink:href="#az"/><use transform="matrix(0.05,0,0,0.05,65.9,0)" xlink:href="#aA"/><use transform="matrix(0.05,0,0,0.05,69.85000000000001,0)" xlink:href="#au"/><use transform="matrix(0.05,0,0,0.05,79.85000000000001,0)" xlink:href="#aH"/><use transform="matrix(0.05,0,0,0.05,88.85000000000001,0)" xlink:href="#aD"/></g><g id="z"><use transform="matrix(0.05,0,0,0.05,0,0)" xlink:href="#at"/><use transform="matrix(0.05,0,0,0.05,12.950000000000001,0)" xlink:href="#au"/><use transform="matrix(0.05,0,0,0.05,22.950000000000003,0)" xlink:href="#av"/><use transform="matrix(0.05,0,0,0.05,27.950000000000003,0)" xlink:href="#aw"/><use transform="matrix(0.05,0,0,0.05,37.95,0)" xlink:href="#ax"/><use transform="matrix(0.05,0,0,0.05,47.95,0)" xlink:href="#ay"/><use transform="matrix(0.05,0,0,0.05,57.95,0)" xlink:href="#az"/><use transform="matrix(0.05,0,0,0.05,63.900000000000006,0)" xlink:href="#aA"/><use transform="matrix(0.05,0,0,0.05,67.85000000000001,0)" xlink:href="#au"/><use transform="matrix(0.05,0,0,0.05,77.85000000000001,0)" xlink:href="#aL"/></g><use transform="matrix(0.05,0,0,0.05,0,0)" xlink:href="#aM" id="A"/><g id="B"><use transform="matrix(0.05,0,0,0.05,0,0)" xlink:href="#aN"/><use transform="matrix(0.05,0,0,0.05,10.5,0)" xlink:href="#au"/><use transform="matrix(0.05,0,0,0.05,20.5,0)" xlink:href="#av"/><use transform="matrix(0.05,0,0,0.05,25.5,0)" xlink:href="#aE"/><use transform="matrix(0.05,0,0,0.05,35.5,0)" xlink:href="#au"/><use transform="matrix(0.05,0,0,0.05,45.5,0)" xlink:href="#aO"/><use transform="matrix(0.05,0,0,0.05,49.45,0)" xlink:href="#aA"/><use transform="matrix(0.05,0,0,0.05,53.400000000000006,0)" xlink:href="#aP"/><use transform="matrix(0.05,0,0,0.05,62.400000000000006,0)" xlink:href="#au"/><use transform="matrix(0.05,0,0,0.05,72.4,0)" xlink:href="#az"/><use transform="matrix(0.05,0,0,0.05,78.35000000000001,0)" xlink:href="#aT"/><use transform="matrix(0.05,0,0,0.05,90.35000000000001,0)" xlink:href="#az"/><use transform="matrix(0.05,0,0,0.05,96.30000000000001,0)" xlink:href="#ay"/><use transform="matrix(0.05,0,0,0.05,106.30000000000001,0)" xlink:href="#aU"/><use transform="matrix(0.05,0,0,0.05,110.25,0)" xlink:href="#aw"/><use transform="matrix(0.05,0,0,0.05,120.25,0)" xlink:href="#av"/><use transform="matrix(0.05,0,0,0.05,125.25,0)" xlink:href="#ay"/><use transform="matrix(0.05,0,0,0.05,135.25,0)" xlink:href="#aQ"/><use transform="matrix(0.05,0,0,0.05,141.2,0)" xlink:href="#aR"/></g><g id="C"><use transform="matrix(0.05,0,0,0.05,0,0)" xlink:href="#aN"/><use transform="matrix(0.05,0,0,0.05,10.5,0)" xlink:href="#au"/><use transform="matrix(0.05,0,0,0.05,20.5,0)" xlink:href="#aC"/><use transform="matrix(0.05,0,0,0.05,30.5,0)" xlink:href="#aC"/><use transform="matrix(0.05,0,0,0.05,40.5,0)" xlink:href="#aT"/><use transform="matrix(0.05,0,0,0.05,52.5,0)" xlink:href="#au"/><use transform="matrix(0.05,0,0,0.05,62.5,0)" xlink:href="#az"/><use transform="matrix(0.05,0,0,0.05,68.45,0)" xlink:href="#av"/><use transform="matrix(0.05,0,0,0.05,73.45,0)" xlink:href="#aA"/><use transform="matrix(0.05,0,0,0.05,77.4,0)" xlink:href="#aV"/><use transform="matrix(0.05,0,0,0.05,86.4,0)" xlink:href="#aA"/><use transform="matrix(0.05,0,0,0.05,90.35000000000001,0)" xlink:href="#aI"/><use transform="matrix(0.05,0,0,0.05,100.35000000000001,0)" xlink:href="#au"/><use transform="matrix(0.05,0,0,0.05,110.35000000000001,0)" xlink:href="#aF"/><use transform="matrix(0.05,0,0,0.05,120.35000000000001,0)" xlink:href="#av"/><use transform="matrix(0.05,0,0,0.05,125.35000000000001,0)" xlink:href="#aw"/><use transform="matrix(0.05,0,0,0.05,135.35000000000002,0)" xlink:href="#aQ"/><use transform="matrix(0.05,0,0,0.05,141.3,0)" xlink:href="#aR"/></g><g id="D"><use transform="matrix(0.05,0,0,0.05,0,0)" xlink:href="#aN"/><use transform="matrix(0.05,0,0,0.05,10.5,0)" xlink:href="#aV"/><use transform="matrix(0.05,0,0,0.05,19.5,0)" xlink:href="#az"/><use transform="matrix(0.05,0,0,0.05,25.45,0)" xlink:href="#aA"/><use transform="matrix(0.05,0,0,0.05,29.399999999999995,0)" xlink:href="#au"/><use transform="matrix(0.05,0,0,0.05,39.4,0)" xlink:href="#az"/><use transform="matrix(0.05,0,0,0.05,45.35,0)" xlink:href="#at"/><use transform="matrix(0.05,0,0,0.05,58.300000000000004,0)" xlink:href="#au"/><use transform="matrix(0.05,0,0,0.05,68.30000000000001,0)" xlink:href="#av"/><use transform="matrix(0.05,0,0,0.05,73.30000000000001,0)" xlink:href="#aw"/><use transform="matrix(0.05,0,0,0.05,83.30000000000001,0)" xlink:href="#ax"/><use transform="matrix(0.05,0,0,0.05,93.30000000000001,0)" xlink:href="#ay"/><use transform="matrix(0.05,0,0,0.05,103.30000000000001,0)" xlink:href="#az"/><use transform="matrix(0.05,0,0,0.05,109.25,0)" xlink:href="#aA"/><use transform="matrix(0.05,0,0,0.05,113.2,0)" xlink:href="#au"/><use transform="matrix(0.05,0,0,0.05,123.2,0)" xlink:href="#aQ"/><use transform="matrix(0.05,0,0,0.05,129.15,0)" xlink:href="#aR"/></g><g id="E"><use transform="matrix(0.05,0,0,0.05,0,0)" xlink:href="#aN"/><use transform="matrix(0.05,0,0,0.05,10.5,0)" xlink:href="#az"/><use transform="matrix(0.05,0,0,0.05,16.45,0)" xlink:href="#aw"/><use transform="matrix(0.05,0,0,0.05,26.450000000000003,0)" xlink:href="#aG"/><use transform="matrix(0.05,0,0,0.05,41.4,0)" xlink:href="#ay"/><use transform="matrix(0.05,0,0,0.05,51.400000000000006,0)" xlink:href="#aS"/><use transform="matrix(0.05,0,0,0.05,60.400000000000006,0)" xlink:href="#aw"/><use transform="matrix(0.05,0,0,0.05,70.4,0)" xlink:href="#az"/><use transform="matrix(0.05,0,0,0.05,76.35000000000001,0)" xlink:href="#aT"/><use transform="matrix(0.05,0,0,0.05,88.35000000000001,0)" xlink:href="#au"/><use transform="matrix(0.05,0,0,0.05,98.35000000000001,0)" xlink:href="#az"/><use transform="matrix(0.05,0,0,0.05,104.30000000000001,0)" xlink:href="#av"/><use transform="matrix(0.05,0,0,0.05,109.30000000000001,0)" xlink:href="#aA"/><use transform="matrix(0.05,0,0,0.05,113.25,0)" xlink:href="#aV"/><use transform="matrix(0.05,0,0,0.05,122.25,0)" xlink:href="#aA"/><use transform="matrix(0.05,0,0,0.05,126.2,0)" xlink:href="#aI"/><use transform="matrix(0.05,0,0,0.05,136.20000000000002,0)" xlink:href="#au"/><use transform="matrix(0.05,0,0,0.05,146.20000000000002,0)" xlink:href="#aF"/><use transform="matrix(0.05,0,0,0.05,156.20000000000002,0)" xlink:href="#av"/><use transform="matrix(0.05,0,0,0.05,161.20000000000002,0)" xlink:href="#aw"/><use transform="matrix(0.05,0,0,0.05,171.20000000000002,0)" xlink:href="#aQ"/><use transform="matrix(0.05,0,0,0.05,177.15,0)" xlink:href="#aR"/></g><g id="F"><use transform="matrix(0.05,0,0,0.05,0,0)" xlink:href="#aN"/><use transform="matrix(0.05,0,0,0.05,10.5,0)" xlink:href="#az"/><use transform="matrix(0.05,0,0,0.05,16.45,0)" xlink:href="#aw"/><use transform="matrix(0.05,0,0,0.05,26.450000000000003,0)" xlink:href="#aG"/><use transform="matrix(0.05,0,0,0.05,41.4,0)" xlink:href="#ay"/><use transform="matrix(0.05,0,0,0.05,51.400000000000006,0)" xlink:href="#aS"/><use transform="matrix(0.05,0,0,0.05,60.400000000000006,0)" xlink:href="#aw"/><use transform="matrix(0.05,0,0,0.05,70.4,0)" xlink:href="#az"/><use transform="matrix(0.05,0,0,0.05,76.35000000000001,0)" xlink:href="#at"/><use transform="matrix(0.05,0,0,0.05,89.30000000000001,0)" xlink:href="#au"/><use transform="matrix(0.05,0,0,0.05,99.30000000000001,0)" xlink:href="#av"/><use transform="matrix(0.05,0,0,0.05,104.30000000000001,0)" xlink:href="#aw"/><use transform="matrix(0.05,0,0,0.05,114.30000000000001,0)" xlink:href="#ax"/><use transform="matrix(0.05,0,0,0.05,124.30000000000001,0)" xlink:href="#ay"/><use transform="matrix(0.05,0,0,0.05,134.3,0)" xlink:href="#az"/><use transform="matrix(0.05,0,0,0.05,140.25,0)" xlink:href="#aA"/><use transform="matrix(0.05,0,0,0.05,144.2,0)" xlink:href="#au"/><use transform="matrix(0.05,0,0,0.05,154.2,0)" xlink:href="#aQ"/><use transform="matrix(0.05,0,0,0.05,160.14999999999998,0)" xlink:href="#aR"/></g><g id="G"><use transform="matrix(0.05,0,0,0.05,0,0)" xlink:href="#aZ"/><use transform="matrix(0.05,0,0,0.05,12.950000000000001,0)" xlink:href="#aH"/><use transform="matrix(0.05,0,0,0.05,21.950000000000003,0)" xlink:href="#aE"/><use transform="matrix(0.05,0,0,0.05,31.950000000000003,0)" xlink:href="#ba"/><use transform="matrix(0.05,0,0,0.05,41.95,0)" xlink:href="#az"/><use transform="matrix(0.05,0,0,0.05,47.900000000000006,0)" xlink:href="#aA"/><use transform="matrix(0.05,0,0,0.05,51.85,0)" xlink:href="#ay"/></g><g id="H"><use transform="matrix(0.05,0,0,0.05,0,0)" xlink:href="#aB"/><use transform="matrix(0.05,0,0,0.05,5.95,0)" xlink:href="#au"/><use transform="matrix(0.05,0,0,0.05,15.949999999999998,0)" xlink:href="#aS"/><use transform="matrix(0.05,0,0,0.05,24.95,0)" xlink:href="#au"/><use transform="matrix(0.05,0,0,0.05,34.95,0)" xlink:href="#av"/><use transform="matrix(0.05,0,0,0.05,39.95,0)" xlink:href="#au"/><use transform="matrix(0.05,0,0,0.05,49.95,0)" xlink:href="#az"/><use transform="matrix(0.05,0,0,0.05,55.900000000000006,0)" xlink:href="#aD"/></g><g id="I"><use transform="matrix(0.05,0,0,0.05,0,0)" xlink:href="#aA"/><use transform="matrix(0.05,0,0,0.05,3.95,0)" xlink:href="#aG"/><use transform="matrix(0.05,0,0,0.05,18.900000000000002,0)" xlink:href="#ax"/></g><g id="J"><use transform="matrix(0.05,0,0,0.05,0,0)" xlink:href="#aB"/><use transform="matrix(0.05,0,0,0.05,5.95,0)" xlink:href="#aF"/><use transform="matrix(0.05,0,0,0.05,15.949999999999998,0)" xlink:href="#ay"/><use transform="matrix(0.05,0,0,0.05,25.950000000000003,0)" xlink:href="#aG"/><use transform="matrix(0.05,0,0,0.05,40.9,0)" xlink:href="#aw"/><use transform="matrix(0.05,0,0,0.05,50.9,0)" xlink:href="#aD"/></g><g id="K"><use transform="matrix(0.05,0,0,0.05,0,0)" xlink:href="#aB"/><use transform="matrix(0.05,0,0,0.05,5.95,0)" xlink:href="#aw"/><use transform="matrix(0.05,0,0,0.05,15.949999999999998,0)" xlink:href="#aG"/><use transform="matrix(0.05,0,0,0.05,30.899999999999995,0)" xlink:href="#au"/><use transform="matrix(0.05,0,0,0.05,40.9,0)" xlink:href="#aA"/><use transform="matrix(0.05,0,0,0.05,44.85,0)" xlink:href="#aO"/><use transform="matrix(0.05,0,0,0.05,48.800000000000004,0)" xlink:href="#aD"/></g><path d="M106-169C34-169 62-67 57 0H25v-261h32l-1 103c12-21 28-36 61-36 89 0 53 116 60 194h-32v-121c2-32-8-49-39-48" id="bb"/><g id="L"><use transform="matrix(0.05,0,0,0.05,0,0)" xlink:href="#aB"/><use transform="matrix(0.05,0,0,0.05,5.95,0)" xlink:href="#aH"/><use transform="matrix(0.05,0,0,0.05,14.949999999999998,0)" xlink:href="#aw"/><use transform="matrix(0.05,0,0,0.05,24.95,0)" xlink:href="#aF"/><use transform="matrix(0.05,0,0,0.05,34.95,0)" xlink:href="#bb"/><use transform="matrix(0.05,0,0,0.05,44.95,0)" xlink:href="#au"/><use transform="matrix(0.05,0,0,0.05,54.95,0)" xlink:href="#aD"/></g><g id="M"><use transform="matrix(0.05,0,0,0.05,0,0)" xlink:href="#aH"/><use transform="matrix(0.05,0,0,0.05,9,0)" xlink:href="#av"/><use transform="matrix(0.05,0,0,0.05,14,0)" xlink:href="#az"/><use transform="matrix(0.05,0,0,0.05,19.95,0)" xlink:href="#aA"/><use transform="matrix(0.05,0,0,0.05,23.9,0)" xlink:href="#aF"/><use transform="matrix(0.05,0,0,0.05,33.9,0)" xlink:href="#ax"/></g><g id="N"><use transform="matrix(0.05,0,0,0.05,0,0)" xlink:href="#aN"/><use transform="matrix(0.05,0,0,0.05,10.5,0)" xlink:href="#aV"/><use transform="matrix(0.05,0,0,0.05,19.5,0)" xlink:href="#au"/><use transform="matrix(0.05,0,0,0.05,29.5,0)" xlink:href="#aC"/><use transform="matrix(0.05,0,0,0.05,39.5,0)" xlink:href="#au"/><use transform="matrix(0.05,0,0,0.05,49.5,0)" xlink:href="#aH"/><use transform="matrix(0.05,0,0,0.05,58.5,0)" xlink:href="#av"/><use transform="matrix(0.05,0,0,0.05,63.5,0)" xlink:href="#az"/><use transform="matrix(0.05,0,0,0.05,69.45,0)" xlink:href="#ay"/><use transform="matrix(0.05,0,0,0.05,79.45,0)" xlink:href="#aQ"/><use transform="matrix(0.05,0,0,0.05,85.4,0)" xlink:href="#aR"/></g><g id="O"><use transform="matrix(0.05,0,0,0.05,0,0)" xlink:href="#aN"/><use transform="matrix(0.05,0,0,0.05,10.5,0)" xlink:href="#aO"/><use transform="matrix(0.05,0,0,0.05,14.449999999999998,0)" xlink:href="#ay"/><use transform="matrix(0.05,0,0,0.05,24.45,0)" xlink:href="#ax"/><use transform="matrix(0.05,0,0,0.05,34.45,0)" xlink:href="#aA"/><use transform="matrix(0.05,0,0,0.05,38.400000000000006,0)" xlink:href="#aF"/><use transform="matrix(0.05,0,0,0.05,48.400000000000006,0)" xlink:href="#aQ"/><use transform="matrix(0.05,0,0,0.05,54.35,0)" xlink:href="#aR"/></g><g id="P"><use transform="matrix(0.05,0,0,0.05,0,0)" xlink:href="#aN"/><use transform="matrix(0.05,0,0,0.05,10.5,0)" xlink:href="#au"/><use transform="matrix(0.05,0,0,0.05,20.5,0)" xlink:href="#av"/><use transform="matrix(0.05,0,0,0.05,25.5,0)" xlink:href="#aE"/><use transform="matrix(0.05,0,0,0.05,35.5,0)" xlink:href="#au"/><use transform="matrix(0.05,0,0,0.05,45.5,0)" xlink:href="#aO"/><use transform="matrix(0.05,0,0,0.05,49.45,0)" xlink:href="#aA"/><use transform="matrix(0.05,0,0,0.05,53.400000000000006,0)" xlink:href="#aP"/><use transform="matrix(0.05,0,0,0.05,62.400000000000006,0)" xlink:href="#au"/><use transform="matrix(0.05,0,0,0.05,72.4,0)" xlink:href="#az"/><use transform="matrix(0.05,0,0,0.05,78.35000000000001,0)" xlink:href="#at"/><use transform="matrix(0.05,0,0,0.05,91.30000000000001,0)" xlink:href="#au"/><use transform="matrix(0.05,0,0,0.05,101.30000000000001,0)" xlink:href="#aC"/><use transform="matrix(0.05,0,0,0.05,111.30000000000001,0)" xlink:href="#au"/><use transform="matrix(0.05,0,0,0.05,121.30000000000001,0)" xlink:href="#aH"/><use transform="matrix(0.05,0,0,0.05,130.3,0)" xlink:href="#av"/><use transform="matrix(0.05,0,0,0.05,135.3,0)" xlink:href="#az"/><use transform="matrix(0.05,0,0,0.05,141.25,0)" xlink:href="#ay"/><use transform="matrix(0.05,0,0,0.05,151.25,0)" xlink:href="#aQ"/><use transform="matrix(0.05,0,0,0.05,157.2,0)" xlink:href="#aR"/></g><g id="Q"><use transform="matrix(0.05,0,0,0.05,0,0)" xlink:href="#aK"/><use transform="matrix(0.05,0,0,0.05,8.950000000000001,0)" xlink:href="#au"/><use transform="matrix(0.05,0,0,0.05,18.950000000000003,0)" xlink:href="#az"/><use transform="matrix(0.05,0,0,0.05,24.900000000000002,0)" xlink:href="#aw"/><use transform="matrix(0.05,0,0,0.05,34.900000000000006,0)" xlink:href="#aJ"/><use transform="matrix(0.05,0,0,0.05,39.900000000000006,0)" xlink:href="#au"/></g><g id="R"><use transform="matrix(0.05,0,0,0.05,0,0)" xlink:href="#aB"/><use transform="matrix(0.05,0,0,0.05,5.95,0)" xlink:href="#av"/><use transform="matrix(0.05,0,0,0.05,10.95,0)" xlink:href="#aA"/><use transform="matrix(0.05,0,0,0.05,14.899999999999999,0)" xlink:href="#av"/><use transform="matrix(0.05,0,0,0.05,19.9,0)" xlink:href="#aE"/><use transform="matrix(0.05,0,0,0.05,29.899999999999995,0)" xlink:href="#aO"/><use transform="matrix(0.05,0,0,0.05,33.85,0)" xlink:href="#ay"/><use transform="matrix(0.05,0,0,0.05,43.85,0)" xlink:href="#aD"/></g><path d="M33 0v-248h34V0H33" id="bc"/><g id="S"><use transform="matrix(0.05,0,0,0.05,0,0)" xlink:href="#aB"/><use transform="matrix(0.05,0,0,0.05,5.95,0)" xlink:href="#aC"/><use transform="matrix(0.05,0,0,0.05,15.949999999999998,0)" xlink:href="#au"/><use transform="matrix(0.05,0,0,0.05,25.950000000000003,0)" xlink:href="#av"/><use transform="matrix(0.05,0,0,0.05,30.950000000000003,0)" xlink:href="#au"/><use transform="matrix(0.05,0,0,0.05,40.95,0)" xlink:href="#bc"/><use transform="matrix(0.05,0,0,0.05,45.95,0)" xlink:href="#aF"/><use transform="matrix(0.05,0,0,0.05,55.95,0)" xlink:href="#aA"/><use transform="matrix(0.05,0,0,0.05,59.900000000000006,0)" xlink:href="#aV"/><use transform="matrix(0.05,0,0,0.05,68.9,0)" xlink:href="#aA"/><use transform="matrix(0.05,0,0,0.05,72.85000000000001,0)" xlink:href="#ay"/><use transform="matrix(0.05,0,0,0.05,82.85000000000001,0)" xlink:href="#aD"/></g><g id="T"><use transform="matrix(0.05,0,0,0.05,0,0)" xlink:href="#aC"/><use transform="matrix(0.05,0,0,0.05,10,0)" xlink:href="#au"/><use transform="matrix(0.05,0,0,0.05,20,0)" xlink:href="#av"/><use transform="matrix(0.05,0,0,0.05,25,0)" xlink:href="#aw"/></g><path d="M63-220v92h138v28H63V0H30v-248h175v28H63" id="bd"/><g id="U"><use transform="matrix(0.05,0,0,0.05,0,0)" xlink:href="#aB"/><use transform="matrix(0.05,0,0,0.05,5.95,0)" xlink:href="#aC"/><use transform="matrix(0.05,0,0,0.05,15.949999999999998,0)" xlink:href="#au"/><use transform="matrix(0.05,0,0,0.05,25.950000000000003,0)" xlink:href="#av"/><use transform="matrix(0.05,0,0,0.05,30.950000000000003,0)" xlink:href="#au"/><use transform="matrix(0.05,0,0,0.05,40.95,0)" xlink:href="#bd"/><use transform="matrix(0.05,0,0,0.05,51.900000000000006,0)" xlink:href="#aA"/><use transform="matrix(0.05,0,0,0.05,55.85,0)" xlink:href="#aG"/><use transform="matrix(0.05,0,0,0.05,70.80000000000001,0)" xlink:href="#aD"/></g><g id="V"><use transform="matrix(0.05,0,0,0.05,0,0)" xlink:href="#aB"/><use transform="matrix(0.05,0,0,0.05,5.95,0)" xlink:href="#aI"/><use transform="matrix(0.05,0,0,0.05,15.949999999999998,0)" xlink:href="#au"/><use transform="matrix(0.05,0,0,0.05,25.950000000000003,0)" xlink:href="#az"/><use transform="matrix(0.05,0,0,0.05,31.899999999999995,0)" xlink:href="#av"/><use transform="matrix(0.05,0,0,0.05,36.9,0)" xlink:href="#aA"/><use transform="matrix(0.05,0,0,0.05,40.85,0)" xlink:href="#aV"/><use transform="matrix(0.05,0,0,0.05,49.85,0)" xlink:href="#aA"/><use transform="matrix(0.05,0,0,0.05,53.800000000000004,0)" xlink:href="#aI"/><use transform="matrix(0.05,0,0,0.05,63.800000000000004,0)" xlink:href="#au"/><use transform="matrix(0.05,0,0,0.05,73.80000000000001,0)" xlink:href="#aF"/><use transform="matrix(0.05,0,0,0.05,83.80000000000001,0)" xlink:href="#av"/><use transform="matrix(0.05,0,0,0.05,88.80000000000001,0)" xlink:href="#aw"/><use transform="matrix(0.05,0,0,0.05,98.80000000000001,0)" xlink:href="#aH"/><use transform="matrix(0.05,0,0,0.05,107.80000000000001,0)" xlink:href="#aD"/></g><g id="W"><use transform="matrix(0.05,0,0,0.05,0,0)" xlink:href="#aZ"/><use transform="matrix(0.05,0,0,0.05,12.950000000000001,0)" xlink:href="#aH"/><use transform="matrix(0.05,0,0,0.05,21.950000000000003,0)" xlink:href="#aE"/><use transform="matrix(0.05,0,0,0.05,31.950000000000003,0)" xlink:href="#ba"/><use transform="matrix(0.05,0,0,0.05,41.95,0)" xlink:href="#az"/><use transform="matrix(0.05,0,0,0.05,47.900000000000006,0)" xlink:href="#aA"/><use transform="matrix(0.05,0,0,0.05,51.85,0)" xlink:href="#ay"/></g><use transform="matrix(0.05,0,0,0.05,0,0)" xlink:href="#aL" id="X"/><g id="Y"><use transform="matrix(0.05,0,0,0.05,0,0)" xlink:href="#aB"/><use transform="matrix(0.05,0,0,0.05,5.95,0)" xlink:href="#aV"/><use transform="matrix(0.05,0,0,0.05,14.949999999999998,0)" xlink:href="#ay"/><use transform="matrix(0.05,0,0,0.05,24.95,0)" xlink:href="#aG"/><use transform="matrix(0.05,0,0,0.05,39.9,0)" xlink:href="#aw"/><use transform="matrix(0.05,0,0,0.05,49.9,0)" xlink:href="#aF"/><use transform="matrix(0.05,0,0,0.05,59.900000000000006,0)" xlink:href="#av"/><use transform="matrix(0.05,0,0,0.05,64.9,0)" xlink:href="#au"/><use transform="matrix(0.05,0,0,0.05,74.9,0)" xlink:href="#az"/><use transform="matrix(0.05,0,0,0.05,80.85000000000001,0)" xlink:href="#aA"/><use transform="matrix(0.05,0,0,0.05,84.80000000000001,0)" xlink:href="#ay"/><use transform="matrix(0.05,0,0,0.05,94.80000000000001,0)" xlink:href="#aH"/><use transform="matrix(0.05,0,0,0.05,103.80000000000001,0)" xlink:href="#aD"/></g><path d="M30 0v-248h33v221h125V0H30" id="be"/><g id="Z"><use transform="matrix(0.05,0,0,0.05,0,0)" xlink:href="#be"/><use transform="matrix(0.05,0,0,0.05,10,0)" xlink:href="#ay"/><use transform="matrix(0.05,0,0,0.05,20,0)" xlink:href="#ax"/></g><use transform="matrix(0.05,0,0,0.05,0,0)" xlink:href="#aB" id="aa"/><g id="ab"><use transform="matrix(0.05,0,0,0.05,0,0)" xlink:href="#aw"/><use transform="matrix(0.05,0,0,0.05,10,0)" xlink:href="#av"/><use transform="matrix(0.05,0,0,0.05,15,0)" xlink:href="#aA"/><use transform="matrix(0.05,0,0,0.05,18.95,0)" xlink:href="#aY"/><use transform="matrix(0.05,0,0,0.05,28.950000000000003,0)" xlink:href="#aE"/><use transform="matrix(0.05,0,0,0.05,38.95,0)" xlink:href="#aw"/><use transform="matrix(0.05,0,0,0.05,48.95,0)" xlink:href="#av"/><use transform="matrix(0.05,0,0,0.05,53.95,0)" xlink:href="#au"/><use transform="matrix(0.05,0,0,0.05,63.95,0)" xlink:href="#aH"/><use transform="matrix(0.05,0,0,0.05,72.95,0)" xlink:href="#aD"/></g><path d="M30 0v-248h187v28H63v79h144v27H63v87h162V0H30" id="bf"/><g id="ac"><use transform="matrix(0.05,0,0,0.05,0,0)" xlink:href="#bf"/><use transform="matrix(0.05,0,0,0.05,12,0)" xlink:href="#av"/><use transform="matrix(0.05,0,0,0.05,17,0)" xlink:href="#aA"/><use transform="matrix(0.05,0,0,0.05,20.95,0)" xlink:href="#aY"/><use transform="matrix(0.05,0,0,0.05,30.950000000000003,0)" xlink:href="#aE"/><use transform="matrix(0.05,0,0,0.05,40.95,0)" xlink:href="#aw"/><use transform="matrix(0.05,0,0,0.05,50.95,0)" xlink:href="#av"/><use transform="matrix(0.05,0,0,0.05,55.95,0)" xlink:href="#au"/></g><g id="ad"><use transform="matrix(0.05,0,0,0.05,0,0)" xlink:href="#aN"/><use transform="matrix(0.05,0,0,0.05,10.5,0)" xlink:href="#au"/><use transform="matrix(0.05,0,0,0.05,20.5,0)" xlink:href="#av"/><use transform="matrix(0.05,0,0,0.05,25.5,0)" xlink:href="#aE"/><use transform="matrix(0.05,0,0,0.05,35.5,0)" xlink:href="#au"/><use transform="matrix(0.05,0,0,0.05,45.5,0)" xlink:href="#aO"/><use transform="matrix(0.05,0,0,0.05,49.45,0)" xlink:href="#aA"/><use transform="matrix(0.05,0,0,0.05,53.400000000000006,0)" xlink:href="#aP"/><use transform="matrix(0.05,0,0,0.05,62.400000000000006,0)" xlink:href="#au"/><use transform="matrix(0.05,0,0,0.05,72.4,0)" xlink:href="#az"/><use transform="matrix(0.05,0,0,0.05,78.35000000000001,0)" xlink:href="#aK"/><use transform="matrix(0.05,0,0,0.05,87.30000000000001,0)" xlink:href="#au"/><use transform="matrix(0.05,0,0,0.05,97.30000000000001,0)" xlink:href="#az"/><use transform="matrix(0.05,0,0,0.05,103.25,0)" xlink:href="#aw"/><use transform="matrix(0.05,0,0,0.05,113.25,0)" xlink:href="#aJ"/><use transform="matrix(0.05,0,0,0.05,118.25,0)" xlink:href="#au"/><use transform="matrix(0.05,0,0,0.05,128.25,0)" xlink:href="#aQ"/><use transform="matrix(0.05,0,0,0.05,134.2,0)" xlink:href="#aR"/></g><g id="ae"><use transform="matrix(0.05,0,0,0.05,0,0)" xlink:href="#aN"/><use transform="matrix(0.05,0,0,0.05,10.5,0)" xlink:href="#au"/><use transform="matrix(0.05,0,0,0.05,20.5,0)" xlink:href="#aC"/><use transform="matrix(0.05,0,0,0.05,30.5,0)" xlink:href="#aC"/><use transform="matrix(0.05,0,0,0.05,40.5,0)" xlink:href="#bf"/><use transform="matrix(0.05,0,0,0.05,52.5,0)" xlink:href="#av"/><use transform="matrix(0.05,0,0,0.05,57.5,0)" xlink:href="#aA"/><use transform="matrix(0.05,0,0,0.05,61.45,0)" xlink:href="#aY"/><use transform="matrix(0.05,0,0,0.05,71.45,0)" xlink:href="#aE"/><use transform="matrix(0.05,0,0,0.05,81.45,0)" xlink:href="#aw"/><use transform="matrix(0.05,0,0,0.05,91.45,0)" xlink:href="#av"/><use transform="matrix(0.05,0,0,0.05,96.45,0)" xlink:href="#au"/><use transform="matrix(0.05,0,0,0.05,106.45,0)" xlink:href="#aQ"/><use transform="matrix(0.05,0,0,0.05,112.4,0)" xlink:href="#aR"/></g><g id="af"><use transform="matrix(0.05,0,0,0.05,0,0)" xlink:href="#aN"/><use transform="matrix(0.05,0,0,0.05,10.5,0)" xlink:href="#az"/><use transform="matrix(0.05,0,0,0.05,16.45,0)" xlink:href="#aw"/><use transform="matrix(0.05,0,0,0.05,26.450000000000003,0)" xlink:href="#aG"/><use transform="matrix(0.05,0,0,0.05,41.4,0)" xlink:href="#ay"/><use transform="matrix(0.05,0,0,0.05,51.400000000000006,0)" xlink:href="#aS"/><use transform="matrix(0.05,0,0,0.05,60.400000000000006,0)" xlink:href="#aw"/><use transform="matrix(0.05,0,0,0.05,70.4,0)" xlink:href="#az"/><use transform="matrix(0.05,0,0,0.05,76.35000000000001,0)" xlink:href="#bf"/><use transform="matrix(0.05,0,0,0.05,88.35000000000001,0)" xlink:href="#av"/><use transform="matrix(0.05,0,0,0.05,93.35000000000001,0)" xlink:href="#aA"/><use transform="matrix(0.05,0,0,0.05,97.30000000000001,0)" xlink:href="#aY"/><use transform="matrix(0.05,0,0,0.05,107.30000000000001,0)" xlink:href="#aE"/><use transform="matrix(0.05,0,0,0.05,117.30000000000001,0)" xlink:href="#aw"/><use transform="matrix(0.05,0,0,0.05,127.30000000000001,0)" xlink:href="#av"/><use transform="matrix(0.05,0,0,0.05,132.3,0)" xlink:href="#au"/><use transform="matrix(0.05,0,0,0.05,142.3,0)" xlink:href="#aQ"/><use transform="matrix(0.05,0,0,0.05,148.25,0)" xlink:href="#aR"/></g><g id="ag"><use transform="matrix(0.05,0,0,0.05,0,0)" xlink:href="#aN"/><use transform="matrix(0.05,0,0,0.05,10.5,0)" xlink:href="#aV"/><use transform="matrix(0.05,0,0,0.05,19.5,0)" xlink:href="#az"/><use transform="matrix(0.05,0,0,0.05,25.45,0)" xlink:href="#aA"/><use transform="matrix(0.05,0,0,0.05,29.399999999999995,0)" xlink:href="#au"/><use transform="matrix(0.05,0,0,0.05,39.4,0)" xlink:href="#az"/><use transform="matrix(0.05,0,0,0.05,45.35,0)" xlink:href="#at"/><use transform="matrix(0.05,0,0,0.05,58.300000000000004,0)" xlink:href="#ay"/><use transform="matrix(0.05,0,0,0.05,68.30000000000001,0)" xlink:href="#aG"/><use transform="matrix(0.05,0,0,0.05,83.25000000000001,0)" xlink:href="#aw"/><use transform="matrix(0.05,0,0,0.05,93.25000000000001,0)" xlink:href="#aF"/><use transform="matrix(0.05,0,0,0.05,103.25,0)" xlink:href="#av"/><use transform="matrix(0.05,0,0,0.05,108.25,0)" xlink:href="#au"/><use transform="matrix(0.05,0,0,0.05,118.25,0)" xlink:href="#az"/><use transform="matrix(0.05,0,0,0.05,124.2,0)" xlink:href="#aA"/><use transform="matrix(0.05,0,0,0.05,128.15,0)" xlink:href="#ay"/><use transform="matrix(0.05,0,0,0.05,138.15,0)" xlink:href="#aQ"/><use transform="matrix(0.05,0,0,0.05,144.1,0)" xlink:href="#aR"/></g><path d="M233-177c-1 41-23 64-60 70L243 0h-38l-65-103H63V0H30v-248c88 3 205-21 203 71zM63-129c60-2 137 13 137-47 0-61-80-42-137-45v92" id="bg"/><g id="ah"><use transform="matrix(0.05,0,0,0.05,0,0)" xlink:href="#aN"/><use transform="matrix(0.05,0,0,0.05,10.5,0)" xlink:href="#aG"/><use transform="matrix(0.05,0,0,0.05,25.450000000000003,0)" xlink:href="#ay"/><use transform="matrix(0.05,0,0,0.05,35.45,0)" xlink:href="#aH"/><use transform="matrix(0.05,0,0,0.05,44.45,0)" xlink:href="#av"/><use transform="matrix(0.05,0,0,0.05,49.45,0)" xlink:href="#az"/><use transform="matrix(0.05,0,0,0.05,55.400000000000006,0)" xlink:href="#au"/><use transform="matrix(0.05,0,0,0.05,65.4,0)" xlink:href="#az"/><use transform="matrix(0.05,0,0,0.05,71.35000000000001,0)" xlink:href="#bg"/><use transform="matrix(0.05,0,0,0.05,84.30000000000001,0)" xlink:href="#aw"/><use transform="matrix(0.05,0,0,0.05,94.30000000000001,0)" xlink:href="#ax"/><use transform="matrix(0.05,0,0,0.05,104.30000000000001,0)" xlink:href="#aA"/><use transform="matrix(0.05,0,0,0.05,108.25,0)" xlink:href="#aH"/><use transform="matrix(0.05,0,0,0.05,117.25,0)" xlink:href="#av"/><use transform="matrix(0.05,0,0,0.05,122.25,0)" xlink:href="#az"/><use transform="matrix(0.05,0,0,0.05,128.20000000000002,0)" xlink:href="#ay"/><use transform="matrix(0.05,0,0,0.05,138.20000000000002,0)" xlink:href="#aH"/><use transform="matrix(0.05,0,0,0.05,147.20000000000002,0)" xlink:href="#aQ"/><use transform="matrix(0.05,0,0,0.05,153.15,0)" xlink:href="#aR"/></g><g id="ai"><use transform="matrix(0.05,0,0,0.05,0,0)" xlink:href="#be"/><use transform="matrix(0.05,0,0,0.05,10,0)" xlink:href="#ay"/><use transform="matrix(0.05,0,0,0.05,20,0)" xlink:href="#ax"/></g><g id="aj"><use transform="matrix(0.05,0,0,0.05,0,0)" xlink:href="#aA"/><use transform="matrix(0.05,0,0,0.05,3.95,0)" xlink:href="#aF"/><use transform="matrix(0.05,0,0,0.05,13.949999999999998,0)" xlink:href="#av"/></g><path d="M100-194c63 0 86 42 84 106H49c0 40 14 67 53 68 26 1 43-12 49-29l28 8c-11 28-37 45-77 45C44 4 14-33 15-96c1-61 26-98 85-98zm52 81c6-60-76-77-97-28-3 7-6 17-6 28h103zm-74-98c8-23 27-35 38-54h36v5l-58 49H78" id="bh"/><g id="ak"><use transform="matrix(0.05,0,0,0.05,0,0)" xlink:href="#aB"/><use transform="matrix(0.05,0,0,0.05,5.95,0)" xlink:href="#bh"/><use transform="matrix(0.05,0,0,0.05,15.949999999999998,0)" xlink:href="#at"/><use transform="matrix(0.05,0,0,0.05,28.899999999999995,0)" xlink:href="#ay"/><use transform="matrix(0.05,0,0,0.05,38.9,0)" xlink:href="#aG"/><use transform="matrix(0.05,0,0,0.05,53.85,0)" xlink:href="#aw"/><use transform="matrix(0.05,0,0,0.05,63.85,0)" xlink:href="#aF"/><use transform="matrix(0.05,0,0,0.05,73.85,0)" xlink:href="#av"/><use transform="matrix(0.05,0,0,0.05,78.85,0)" xlink:href="#ba"/><use transform="matrix(0.05,0,0,0.05,88.85,0)" xlink:href="#az"/><use transform="matrix(0.05,0,0,0.05,94.8,0)" xlink:href="#aA"/><use transform="matrix(0.05,0,0,0.05,98.75,0)" xlink:href="#ay"/><use transform="matrix(0.05,0,0,0.05,108.75,0)" xlink:href="#aD"/></g><g id="al"><use transform="matrix(0.05,0,0,0.05,0,0)" xlink:href="#aN"/><use transform="matrix(0.05,0,0,0.05,10.5,0)" xlink:href="#aA"/><use transform="matrix(0.05,0,0,0.05,14.449999999999998,0)" xlink:href="#aF"/><use transform="matrix(0.05,0,0,0.05,24.45,0)" xlink:href="#aH"/><use transform="matrix(0.05,0,0,0.05,33.45,0)" xlink:href="#aw"/><use transform="matrix(0.05,0,0,0.05,43.45,0)" xlink:href="#az"/><use transform="matrix(0.05,0,0,0.05,49.400000000000006,0)" xlink:href="#aA"/><use transform="matrix(0.05,0,0,0.05,53.35,0)" xlink:href="#az"/><use transform="matrix(0.05,0,0,0.05,59.30000000000001,0)" xlink:href="#be"/><use transform="matrix(0.05,0,0,0.05,69.30000000000001,0)" xlink:href="#ay"/><use transform="matrix(0.05,0,0,0.05,79.30000000000001,0)" xlink:href="#ax"/><use transform="matrix(0.05,0,0,0.05,89.30000000000001,0)" xlink:href="#aQ"/><use transform="matrix(0.05,0,0,0.05,95.25000000000001,0)" xlink:href="#aR"/></g><g id="am"><use transform="matrix(0.05,0,0,0.05,0,0)" xlink:href="#bf"/><use transform="matrix(0.05,0,0,0.05,12,0)" xlink:href="#av"/><use transform="matrix(0.05,0,0,0.05,17,0)" xlink:href="#aA"/><use transform="matrix(0.05,0,0,0.05,20.95,0)" xlink:href="#aY"/><use transform="matrix(0.05,0,0,0.05,30.950000000000003,0)" xlink:href="#aE"/><use transform="matrix(0.05,0,0,0.05,40.95,0)" xlink:href="#aw"/><use transform="matrix(0.05,0,0,0.05,50.95,0)" xlink:href="#av"/><use transform="matrix(0.05,0,0,0.05,55.95,0)" xlink:href="#au"/></g><g id="an"><use transform="matrix(0.05,0,0,0.05,0,0)" xlink:href="#aB"/><use transform="matrix(0.05,0,0,0.05,5.95,0)" xlink:href="#aV"/><use transform="matrix(0.05,0,0,0.05,14.949999999999998,0)" xlink:href="#ay"/><use transform="matrix(0.05,0,0,0.05,24.95,0)" xlink:href="#az"/><use transform="matrix(0.05,0,0,0.05,30.899999999999995,0)" xlink:href="#aD"/></g><g id="ao"><use transform="matrix(0.05,0,0,0.05,0,0)" xlink:href="#aN"/><use transform="matrix(0.05,0,0,0.05,10.5,0)" xlink:href="#au"/><use transform="matrix(0.05,0,0,0.05,20.5,0)" xlink:href="#av"/><use transform="matrix(0.05,0,0,0.05,25.5,0)" xlink:href="#aE"/><use transform="matrix(0.05,0,0,0.05,35.5,0)" xlink:href="#au"/><use transform="matrix(0.05,0,0,0.05,45.5,0)" xlink:href="#aO"/><use transform="matrix(0.05,0,0,0.05,49.45,0)" xlink:href="#aA"/><use transform="matrix(0.05,0,0,0.05,53.400000000000006,0)" xlink:href="#aP"/><use transform="matrix(0.05,0,0,0.05,62.400000000000006,0)" xlink:href="#au"/><use transform="matrix(0.05,0,0,0.05,72.4,0)" xlink:href="#az"/><use transform="matrix(0.05,0,0,0.05,78.35000000000001,0)" xlink:href="#bf"/><use transform="matrix(0.05,0,0,0.05,90.35000000000001,0)" xlink:href="#av"/><use transform="matrix(0.05,0,0,0.05,95.35000000000001,0)" xlink:href="#aA"/><use transform="matrix(0.05,0,0,0.05,99.30000000000001,0)" xlink:href="#aY"/><use transform="matrix(0.05,0,0,0.05,109.30000000000001,0)" xlink:href="#aE"/><use transform="matrix(0.05,0,0,0.05,119.30000000000001,0)" xlink:href="#aw"/><use transform="matrix(0.05,0,0,0.05,129.3,0)" xlink:href="#av"/><use transform="matrix(0.05,0,0,0.05,134.3,0)" xlink:href="#au"/><use transform="matrix(0.05,0,0,0.05,144.3,0)" xlink:href="#aQ"/><use transform="matrix(0.05,0,0,0.05,150.25,0)" xlink:href="#aR"/></g><path d="M101-251c68 0 85 55 85 127S166 4 100 4C33 4 14-52 14-124c0-73 17-127 87-127zm-1 229c47 0 54-49 54-102s-4-102-53-102c-51 0-55 48-55 102 0 53 5 102 54 102" id="bi"/><path d="M33 0v-38h34V0H33" id="bj"/><path d="M80-196l47-18 7 23-49 13 32 44-20 13-27-46-27 45-21-12 33-44-49-13 8-23 47 19-2-53h23" id="bk"/><g id="ap"><use transform="matrix(0.05,0,0,0.05,0,0)" xlink:href="#bi"/><use transform="matrix(0.05,0,0,0.05,10,0)" xlink:href="#bj"/><use transform="matrix(0.05,0,0,0.05,15,0)" xlink:href="#bj"/><use transform="matrix(0.05,0,0,0.05,20,0)" xlink:href="#bk"/></g><path d="M27 0v-27h64v-190l-56 39v-29l58-41h29v221h61V0H27" id="bl"/><g id="aq"><use transform="matrix(0.05,0,0,0.05,0,0)" xlink:href="#bl"/><use transform="matrix(0.05,0,0,0.05,10,0)" xlink:href="#bj"/><use transform="matrix(0.05,0,0,0.05,15,0)" xlink:href="#bj"/><use transform="matrix(0.05,0,0,0.05,20,0)" xlink:href="#bk"/></g><use transform="matrix(0.05,0,0,0.05,0,0)" xlink:href="#bl" id="ar"/><g id="as"><use transform="matrix(0.05,0,0,0.05,0,0)" xlink:href="#bi"/><use transform="matrix(0.05,0,0,0.05,10,0)" xlink:href="#bj"/><use transform="matrix(0.05,0,0,0.05,15,0)" xlink:href="#bj"/><use transform="matrix(0.05,0,0,0.05,20,0)" xlink:href="#bl"/></g></defs></g></svg>