<svg xmlns="http://www.w3.org/2000/svg" xmlns:xlink="http://www.w3.org/1999/xlink" xmlns:lucid="lucid" width="1380" height="1240"><g transform="translate(-340 -20)" lucid:page-tab-id="0_0"><path d="M605.43 46a6 6 0 0 1 6-6H1694a6 6 0 0 1 6 6v1188a6 6 0 0 1-6 6H611.43a6 6 0 0 1-6-6z" stroke="#5e5e5e" stroke-width="3" fill-opacity="0"/><use xlink:href="#a" transform="matrix(1,0,0,1,613.4330708661416,48) translate(480.91975308641975 17.77777777777778)"/><path d="M419.75 591.17c0 10.9-8.84 19.75-19.75 19.75-10.9 0-19.75-8.84-19.75-19.75 0-10.9 8.84-19.75 19.75-19.75 10.9 0 19.75 8.84 19.75 19.75z" stroke="#5e5e5e" stroke-width="3" fill="#fff"/><path d="M400 610.92v49.3a20.7 20.7 0 0 0 3.2 11.07L440 729.4m-40-63.2l-40 63.2m0-98.75h80" stroke="#5e5e5e" stroke-width="3" fill="none"/><path d="M360 577.42a6 6 0 0 1 6-6h68a6 6 0 0 1 6 6v168a6 6 0 0 1-6 6h-68a6 6 0 0 1-6-6z" fill="none"/><use xlink:href="#b" transform="matrix(1,0,0,1,280,729.4173228346456) translate(81.82098765432099 17.77777777777778)"/><path d="M820 361.42c0 33.13-35.82 60-80 60s-80-26.87-80-60c0-33.14 35.82-60 80-60s80 26.86 80 60z" stroke="#5e5e5e" stroke-width="3" fill="#fff"/><use xlink:href="#c" transform="matrix(1,0,0,1,660,301.4173228346455) translate(32.57999999999999 63.15)"/><use xlink:href="#d" transform="matrix(1,0,0,1,660,301.4173228346455) translate(83.47999999999999 63.15)"/><path d="M440.95 628l216.6-265.42" stroke="#5e5e5e" stroke-width="3" fill="none"/><path d="M439.26 632.44l-.33-.27h.56zm2.88-3.52l-2.14 2.62v-2.37h-1.94l1.75-2.14zM658.5 361.4v.43l.07 1.63-2.2-1.8 2.2-2.7z" stroke="#5e5e5e" stroke-width=".05" fill="#5e5e5e"/><path d="M1260 160c0 33.14-35.82 60-80 60s-80-26.86-80-60 35.82-60 80-60 80 26.86 80 60z" stroke="#5e5e5e" stroke-width="3" fill="#fff"/><use xlink:href="#e" transform="matrix(1,0,0,1,1100,100) translate(19.104999999999997 63.15)"/><use xlink:href="#f" transform="matrix(1,0,0,1,1100,100) translate(88.905 63.15)"/><path d="M1260 320c0 33.14-35.82 60-80 60s-80-26.86-80-60 35.82-60 80-60 80 26.86 80 60z" stroke="#5e5e5e" stroke-width="3" fill="#fff"/><use xlink:href="#g" transform="matrix(1,0,0,1,1100,260) translate(25.629999999999995 51.9)"/><use xlink:href="#h" transform="matrix(1,0,0,1,1100,260) translate(75.48 51.9)"/><use xlink:href="#i" transform="matrix(1,0,0,1,1100,260) translate(114.38 51.9)"/><use xlink:href="#d" transform="matrix(1,0,0,1,1100,260) translate(58.029999999999994 73.5)"/><path d="M835 353.46l-11.4 8.3-1.77-2.44 11.4-8.3zm34.2-24.87l-22.8 16.57-1.77-2.43 22.8-16.57zm34.2-24.87l-22.8 16.57-1.77-2.42 22.8-16.58zm34.2-24.87l-22.8 16.58-1.77-2.43 22.8-16.57zm68.38-49.73l-22.8 16.58-1.76-2.42 22.8-16.58zm34.2-24.87l-22.8 16.58-1.76-2.43 22.8-16.56zm34.2-24.86l-22.8 16.57-1.76-2.42 22.8-16.58zm22.8-16.58l-11.4 8.3-1.77-2.44 11.4-8.3z" stroke="#5e5e5e" stroke-width=".05" fill="#5e5e5e"/><path d="M823.63 361.73l-2.2 1.58.07-1.86V361l-.06-1.4.42-.3z" fill="#5e5e5e"/><path d="M823.66 361.73l-2.25 1.63.08-1.92V361l-.06-1.4.45-.34zm-2.2-2.1l.06 1.37v.44l-.05 1.82 2.12-1.54-1.74-2.4zM1089.56 180.7l-2.76-1.2 6.93-16.03-17.38 1.65-.3-3 22.45-2.12z" stroke="#5e5e5e" stroke-width=".05" fill="#5e5e5e"/><use xlink:href="#j" transform="matrix(1,0,0,1,912.641975308642,250.04199475065613) translate(0 14.222222222222223)"/><path d="M835.64 378.55l-15.4 3.34-.63-2.94 15.4-3.34zm46.2-10.02l-30.8 6.68-.64-2.92 30.8-6.68zm15.38-3.34l-.63-2.94 5.03-1.1h14.15zm123.16-26.72l-6.24 1.35h-14.16l19.76-4.28zm46.18-10.02l-30.8 6.68-.62-2.93 30.8-6.67zm30.8-6.68l-15.4 3.34-.64-2.93 15.4-3.35z" stroke="#5e5e5e" stroke-width=".05" fill="#5e5e5e"/><path d="M1098.5 319.98v.43l.05 1.13-1.24.26-.62-2.94 1.87-.4z" fill="#5e5e5e"/><path d="M1098.53 319.98v.43l.04 1.15-1.27.27-.65-2.98 1.92-.42zm-1.82-1.1l.63 2.88 1.2-.25-.05-1.1V320l.04-1.5zM835.83 367.88l-12.8 11.87 16.57 5.5-.95 2.85-21.38-7.1 16.52-15.32z" stroke="#5e5e5e" stroke-width=".05" fill="#5e5e5e"/><use xlink:href="#k" transform="matrix(1,0,0,1,900.1791292418045,339.8332936489203) translate(0 14.222222222222223)"/><path d="M1260 640c0 33.14-35.82 60-80 60s-80-26.86-80-60 35.82-60 80-60 80 26.86 80 60z" stroke="#5e5e5e" stroke-width="3" fill="#fff"/><use xlink:href="#l" transform="matrix(1,0,0,1,1100,580) translate(10.329999999999993 63.15)"/><use xlink:href="#m" transform="matrix(1,0,0,1,1100,580) translate(92.78 63.15)"/><path d="M820 561.42c0 33.13-35.82 60-80 60s-80-26.87-80-60c0-33.14 35.82-60 80-60s80 26.86 80 60z" stroke="#5e5e5e" stroke-width="3" fill="#fff"/><use xlink:href="#n" transform="matrix(1,0,0,1,660,501.4173228346456) translate(30.654999999999994 63.15)"/><use xlink:href="#o" transform="matrix(1,0,0,1,660,501.4173228346456) translate(74.455 63.15)"/><path d="M1260 480c0 33.14-35.82 60-80 60s-80-26.86-80-60 35.82-60 80-60 80 26.86 80 60z" stroke="#5e5e5e" stroke-width="3" fill="#fff"/><use xlink:href="#n" transform="matrix(1,0,0,1,1100,420) translate(38.504999999999995 63.15)"/><use xlink:href="#p" transform="matrix(1,0,0,1,1100,420) translate(82.305 63.15)"/><path d="M839.7 557.63l-15.16 4.46-.85-2.9 15.16-4.45zm45.5-13.37l-30.33 8.9-.85-2.87 30.33-8.92zm15.16-4.46l-.85-2.88 18.9-5.54h10.63zm121.3-35.65l-20.05 5.9h-10.63l29.85-8.78zm45.5-13.37l-30.33 8.9-.85-2.87 30.33-8.9zm30.32-8.92l-15.16 4.46-.85-2.88 15.17-4.46z" stroke="#5e5e5e" stroke-width=".05" fill="#5e5e5e"/><path d="M1098.5 479.98v.43l.05 1.15-1.1.32-.85-2.88 1.95-.58z" fill="#5e5e5e"/><path d="M1098.53 479.98v.43l.04 1.17-1.14.33-.86-2.92 2-.6zm-1.9-.97l.83 2.84 1.06-.3-.04-1.13V480l.04-1.52zM839.07 547l-11.92 12.75 16.93 4.3-.73 2.9-21.85-5.53 15.38-16.48z" stroke="#5e5e5e" stroke-width=".05" fill="#5e5e5e"/><use xlink:href="#k" transform="matrix(1,0,0,1,902.2962962962963,510.0419947506561) translate(0 14.222222222222223)"/><path d="M1097.32 638.23l-.6 2.95-15.44-3.1.6-2.94zm-30.9-6.2l-.6 2.95-30.9-6.2.57-2.94zm-46.38-9.3l-.6 2.95-16.55-3.3h12.1v-.64zm-108.3-21.7H899.6v.63l-3.8-.76.58-2.94zm-30.82-6.17l-.6 2.94-30.9-6.2.6-2.94zm-46.37-9.3l-.6 2.94-15.45-3.1.6-2.94z" stroke="#5e5e5e" stroke-width=".05" fill="#5e5e5e"/><path d="M1098.55 638.48l-.05 1.5v.43l.05 1.14-1.85-.37.6-2.94z" fill="#5e5e5e"/><path d="M1098.57 638.46l-.04 1.52v.43l.04 1.17-1.9-.38.6-3zm-1.84 2.7l1.8.35-.05-1.1V640l.04-1.48-1.2-.24zM838.4 578.8l-16.5 5.76 13 11.67-2 2.23-16.78-15.06 21.27-7.44z" stroke="#5e5e5e" stroke-width=".05" fill="#5e5e5e"/><use xlink:href="#k" transform="matrix(1,0,0,1,899.6066499290537,601.0325750574485) translate(0 14.222222222222223)"/><path d="M441.43 628.72l215.64-66.86" stroke="#5e5e5e" stroke-width="3" fill="none"/><path d="M441.9 630.14l-1.9.6v-1.57h-3.14l-.17-.55 4.32-1.34zM658.5 561.4v.43l.05 1.14-1.07.34-.9-2.86 1.97-.6z" stroke="#5e5e5e" stroke-width=".05" fill="#5e5e5e"/><path d="M820 761.42c0 33.13-35.82 60-80 60s-80-26.87-80-60c0-33.14 35.82-60 80-60s80 26.86 80 60z" stroke="#5e5e5e" stroke-width="3" fill="#fff"/><use xlink:href="#q" transform="matrix(1,0,0,1,660,701.4173228346453) translate(16.57999999999999 63.15)"/><use xlink:href="#m" transform="matrix(1,0,0,1,660,701.4173228346453) translate(86.53 63.15)"/><path d="M441.28 629.94l215.94 130.7" stroke="#5e5e5e" stroke-width="3" fill="none"/><path d="M442.1 628.68l-1.56 2.57-.54-.33v-1.75h-2.9l-.44-.27 1.55-2.57zM658.55 759.7l-.05 1.7v.43l.06 1.38-2.15-1.3 1.56-2.56z" stroke="#5e5e5e" stroke-width=".05" fill="#5e5e5e"/><path d="M1100 700c0 33.14-35.82 60-80 60s-80-26.86-80-60 35.82-60 80-60 80 26.86 80 60z" stroke="#5e5e5e" stroke-width="3" fill="#fff"/><use xlink:href="#n" transform="matrix(1,0,0,1,940,640) translate(14.679999999999987 63.15)"/><use xlink:href="#r" transform="matrix(1,0,0,1,940,640) translate(58.47999999999999 63.15)"/><path d="M837.2 754.87l-12.6 6.6-1.38-2.65 12.58-6.6zm12.58-6.6l-1.4-2.66 8.07-4.23h6.46zm62.92-33.03l-9.15 4.8h-6.46l14.2-7.46zm25.17-13.22l-12.6 6.6-1.38-2.64 12.58-6.6z" stroke="#5e5e5e" stroke-width=".05" fill="#5e5e5e"/><path d="M938.5 699.98v.43l.05 1.27-.7.37-1.4-2.65 2.1-1.12z" fill="#5e5e5e"/><path d="M938.52 699.98v.43l.06 1.28-.76.4-1.4-2.7 2.16-1.14zm-2.05-.58l1.38 2.6.68-.35-.05-1.24V700l.05-1.66zM835.9 743.82l-9.18 14.86 17.44.88-.15 3-22.5-1.14 11.84-19.18z" stroke="#5e5e5e" stroke-width=".05" fill="#5e5e5e"/><use xlink:href="#k" transform="matrix(1,0,0,1,822.2962962962963,720.041994750656) translate(0 14.222222222222223)"/><path d="M1640 780c0 33.14-35.82 60-80 60s-80-26.86-80-60 35.82-60 80-60 80 26.86 80 60z" stroke="#5e5e5e" stroke-width="3" fill="#fff"/><use xlink:href="#n" transform="matrix(1,0,0,1,1480,720) translate(28.654999999999994 63.15)"/><use xlink:href="#s" transform="matrix(1,0,0,1,1480,720) translate(72.455 63.15)"/><path d="M1477.34 778.22l-.62 2.94-15.54-3.3.63-2.94zm-31.07-6.6l-.62 2.94-31.07-6.6.62-2.93zm-46.6-9.88l-.63 2.93-31.07-6.6.62-2.93zm-46.6-9.9l-.64 2.94-19.4-4.1h14.46zm-106.1-22.5h-14.46l-4.36-.93.63-2.93zm-33.74-7.16l-.62 2.93-31.06-6.58.62-2.94zm-46.6-9.9l-.63 2.94-31.07-6.6.62-2.93zM1120 702.4l-.6 2.93-15.54-3.3.62-2.93z" stroke="#5e5e5e" stroke-width=".05" fill="#5e5e5e"/><path d="M1478.55 778.48l-.05 1.5v.43l.05 1.14-1.87-.4.63-2.93z" fill="#5e5e5e"/><path d="M1478.57 778.46l-.04 1.52v.43l.04 1.17-1.92-.4.64-3zm-1.86 2.67l1.82.38-.04-1.1V780l.04-1.48-1.2-.26zM1123.82 695.65l-16.55 5.57 12.85 11.82-2.03 2.2-16.6-15.24 21.36-7.2z" stroke="#5e5e5e" stroke-width=".05" fill="#5e5e5e"/><use xlink:href="#k" transform="matrix(1,0,0,1,1232.2962962962963,729.3333333333334) translate(0 14.222222222222223)"/><path d="M820 961.42c0 33.13-35.82 60-80 60s-80-26.87-80-60c0-33.14 35.82-60 80-60s80 26.86 80 60z" stroke="#5e5e5e" stroke-width="3" fill="#fff"/><use xlink:href="#q" transform="matrix(1,0,0,1,660,901.4173228346456) translate(20.07999999999999 63.15)"/><use xlink:href="#t" transform="matrix(1,0,0,1,660,901.4173228346456) translate(90.03 63.15)"/><path d="M1640 400c0 33.14-35.82 60-80 60s-80-26.86-80-60 35.82-60 80-60 80 26.86 80 60z" stroke="#5e5e5e" stroke-width="3" fill="#fff"/><use xlink:href="#u" transform="matrix(1,0,0,1,1480,340) translate(28.60499999999999 51.9)"/><use xlink:href="#v" transform="matrix(1,0,0,1,1480,340) translate(105.45500000000001 51.9)"/><use xlink:href="#w" transform="matrix(1,0,0,1,1480,340) translate(58.57999999999999 73.5)"/><path d="M1277.63 475.65l-14.2 5.24-1.04-2.83 14.2-5.23zm42.6-15.7l-28.4 10.47-1.04-2.82 28.4-10.47zm14.2-5.24l-1.03-2.8 3.33-1.23h8.67zm71.02-26.17l-2.18.8h-8.67l9.8-3.62zm42.6-15.7l-28.4 10.46-1.04-2.82 28.42-10.47zm28.4-10.48l-14.2 5.24-1.03-2.83 14.2-5.23z" stroke="#5e5e5e" stroke-width=".05" fill="#5e5e5e"/><path d="M1263.46 480.88l-2 .74.04-1.6v-.43l-.05-1.18.97-.36z" fill="#5e5e5e"/><path d="M1263.5 480.9l-2.08.75.05-1.63v-.43l-.04-1.2 1-.37zm-2.02-2.46l.04 1.15v.42l-.04 1.56 1.95-.72-1.02-2.77zM1478.5 400l-14.23 17.47-2.33-1.9 11.03-13.53-17.18-3.14.53-2.95z" stroke="#5e5e5e" stroke-width=".05" fill="#5e5e5e"/><use xlink:href="#j" transform="matrix(1,0,0,1,1322.641975308642,429.3333333333333) translate(0 14.222222222222223)"/><path d="M440.83 630.42l217 326.15" stroke="#5e5e5e" stroke-width="3" fill="none"/><path d="M442.1 629.62l-2.1 1.4v-1.85h-1.8l-1.1-1.67 2.5-1.66zM658.6 958.46l-.07 1.9-1.98-3 2.3-1.5z" stroke="#5e5e5e" stroke-width=".05" fill="#5e5e5e"/><path d="M1260 800c0 33.14-35.82 60-80 60s-80-26.86-80-60 35.82-60 80-60 80 26.86 80 60z" stroke="#5e5e5e" stroke-width="3" fill="#fff"/><use xlink:href="#x" transform="matrix(1,0,0,1,1100,740) translate(42.57999999999999 51.9)"/><use xlink:href="#y" transform="matrix(1,0,0,1,1100,740) translate(42.529999999999994 73.5)"/><path d="M823.18 920.07l-13.73 5.9-1.2-2.75 13.74-5.9zm41.18-17.7l-27.46 11.8-1.18-2.76 27.45-11.8zm41.18-17.73l-27.45 11.8-1.2-2.75 27.45-11.82zm13.73-5.9l-1.2-2.76 5.76-2.48h7.6zm68.63-29.53l-6.88 2.97h-7.6l13.3-5.7zm41.18-17.7l-27.45 11.8-1.2-2.75 27.47-11.8zm41.18-17.72l-27.45 11.8-1.18-2.75 27.46-11.8zm27.45-11.8l-13.7 5.9-1.2-2.76 13.73-5.9z" stroke="#5e5e5e" stroke-width=".05" fill="#5e5e5e"/><path d="M1098.5 799.98v.43l.05 1.2-.87.4-1.2-2.77 2.07-.88z" fill="#5e5e5e"/><path d="M1098.53 799.98v.43l.05 1.23-.9.4-1.22-2.8 2.12-.92zm-2-.74l1.16 2.7.82-.34-.04-1.2V800l.05-1.6zM822.06 909.24l-10.3 14.1 17.33 2.23-.4 2.98-22.35-2.87 13.3-18.2z" stroke="#5e5e5e" stroke-width=".05" fill="#5e5e5e"/><use xlink:href="#k" transform="matrix(1,0,0,1,894.7225793684811,852.1712828793808) translate(0 14.222222222222223)"/><path d="M1260 960c0 33.14-35.82 60-80 60s-80-26.86-80-60 35.82-60 80-60 80 26.86 80 60z" stroke="#5e5e5e" stroke-width="3" fill="#fff"/><use xlink:href="#x" transform="matrix(1,0,0,1,1100,900) translate(42.57999999999999 51.9)"/><use xlink:href="#z" transform="matrix(1,0,0,1,1100,900) translate(33.60499999999999 73.5)"/><path d="M831.86 987.88l-15.6 1.54-.3-3 15.6-1.53zm46.8-4.63l-31.2 3.08-.3-2.98 31.22-3.1zm19.58-1.94l-3.96.4-.3-2.98 4.26-.42zm120.9-11.94l-5.5.54v-3.02l5.2-.5zm46.8-4.63l-31.2 3.08-.3-2.97 31.2-3.1zm31.2-3.1l-15.6 1.55-.3-2.98 15.62-1.55z" stroke="#5e5e5e" stroke-width=".05" fill="#5e5e5e"/><path d="M1098.5 959.98v.43l.05 1.1-1.43.14-.3-2.98 1.73-.17z" fill="#5e5e5e"/><path d="M1098.53 959.98v.43l.04 1.13-1.48.14-.3-3.03 1.77-.18zm-1.68-1.3l.3 2.94 1.37-.14-.04-1.07V960l.04-1.46zM833.34 977.3l-14.1 10.32 15.85 7.36-1.28 2.72-20.43-9.5 18.16-13.33z" stroke="#5e5e5e" stroke-width=".05" fill="#5e5e5e"/><g><use xlink:href="#k" transform="matrix(1,0,0,1,898.2405205077264,963.4312428421002) translate(0 14.222222222222223)"/></g><path d="M1260 1120c0 33.14-35.82 60-80 60s-80-26.86-80-60 35.82-60 80-60 80 26.86 80 60z" stroke="#5e5e5e" stroke-width="3" fill="#fff"/><g><use xlink:href="#A" transform="matrix(1,0,0,1,1100,1060) translate(41.28 40.65)"/><use xlink:href="#B" transform="matrix(1,0,0,1,1100,1060) translate(37.58 62.25)"/><use xlink:href="#i" transform="matrix(1,0,0,1,1100,1060) translate(102.43 62.25)"/><use xlink:href="#C" transform="matrix(1,0,0,1,1100,1060) translate(38.55499999999999 83.85000000000001)"/></g><path d="M1097.62 1118.07l-1.05 2.8-14.24-5.33 1.05-2.8zm-28.48-10.67l-1.06 2.8-28.48-10.66 1.05-2.8zm-42.73-16l-1.05 2.8-28.48-10.67 1.05-2.8zm-42.72-16l-1.06 2.8-11.45-4.3h8.55zm-60.9-22.83h-8.56l-2.8-1.05 1.04-2.8zm-24.56-9.2l-1.05 2.8-28.5-10.66 1.06-2.8zm-42.73-16l-1.06 2.8-28.5-10.66 1.06-2.8zm-42.74-16l-1.05 2.8-14.24-5.33 1.06-2.8z" stroke="#5e5e5e" stroke-width=".05" fill="#5e5e5e"/><path d="M1098.55 1118.42l-.05 1.56v.43l.05 1.22-2.02-.75 1.06-2.8z" fill="#5e5e5e"/><path d="M1098.57 1118.4l-.04 1.58v.43l.05 1.26-2.08-.78 1.07-2.86zm-2 2.45l1.95.73-.04-1.17v-.42l.04-1.55-.92-.34zM818.15 1005.5l-17.2 3.04 10.96 13.6-2.32 1.88-14.14-17.55 22.2-3.93z" stroke="#5e5e5e" stroke-width=".05" fill="#5e5e5e"/><g><use xlink:href="#k" transform="matrix(1,0,0,1,889.264599946001,1052.5705680516323) translate(0 14.222222222222223)"/></g><path d="M839.12 958.68l-14.62 3.55-.7-2.9 14.6-3.57zm43.83-10.66l-29.22 7.1-.7-2.9 29.22-7.12zm43.84-10.66l-29.23 7.1-.7-2.9 29.2-7.1zm43.83-10.66l-29.23 7.1-.7-2.9 29.22-7.1zm43.83-10.66l-29.22 7.1-.7-2.9 29.22-7.1zm43.84-10.65l-29.22 7.1-.7-2.92 29.2-7.1zm43.84-10.67l-29.23 7.1-.7-2.9 29.23-7.12zm131.5-31.98l-29.22 7.1-.7-2.9 29.22-7.12zm43.84-10.66l-29.22 7.1-.7-2.92 29.22-7.1zm43.84-10.67l-29.22 7.1-.7-2.9 29.2-7.1zm43.84-10.65l-29.23 7.1-.7-2.9 29.22-7.12zM1409 820.1l-29.23 7.1-.7-2.9 29.22-7.12zm43.83-10.66l-29.22 7.1-.7-2.9 29.22-7.12zm29.23-7.1l-14.62 3.54-.7-2.9 14.6-3.56z" stroke="#5e5e5e" stroke-width=".05" fill="#5e5e5e"/><path d="M1483.32 800.9l.52 1.02-1.82.44-.7-2.9 1.23-.32z" fill="#5e5e5e"/><path d="M1483.34 800.88l.54 1.05-1.88.46-.72-2.97 1.28-.3zm-2-1.42l.7 2.87 1.77-.43-.5-1-.77-1.73zM839.73 947.84L827.23 960l16.7 5.1-.87 2.86-21.56-6.56 16.14-15.73z" stroke="#5e5e5e" stroke-width=".05" fill="#5e5e5e"/><g><use xlink:href="#k" transform="matrix(1,0,0,1,1094.6259954645395,870.3119586454676) translate(0 14.222222222222223)"/></g><defs><path fill="#333" d="M127-220V0H93v-220H8v-28h204v28h-85" id="D"/><path fill="#333" d="M100-194c63 0 86 42 84 106H49c0 40 14 67 53 68 26 1 43-12 49-29l28 8c-11 28-37 45-77 45C44 4 14-33 15-96c1-61 26-98 85-98zm52 81c6-60-76-77-97-28-3 7-6 17-6 28h103" id="E"/><path fill="#333" d="M141-36C126-15 110 5 73 4 37 3 15-17 15-53c-1-64 63-63 125-63 3-35-9-54-41-54-24 1-41 7-42 31l-33-3c5-37 33-52 76-52 45 0 72 20 72 64v82c-1 20 7 32 28 27v20c-31 9-61-2-59-35zM48-53c0 20 12 33 32 33 41-3 63-29 60-74-43 2-92-5-92 41" id="F"/><path fill="#333" d="M210-169c-67 3-38 105-44 169h-31v-121c0-29-5-50-35-48C34-165 62-65 56 0H25l-1-190h30c1 10-1 24 2 32 10-44 99-50 107 0 11-21 27-35 58-36 85-2 47 119 55 194h-31v-121c0-29-5-49-35-48" id="G"/><path fill="#333" d="M185-189c-5-48-123-54-124 2 14 75 158 14 163 119 3 78-121 87-175 55-17-10-28-26-33-46l33-7c5 56 141 63 141-1 0-78-155-14-162-118-5-82 145-84 179-34 5 7 8 16 11 25" id="H"/><path fill="#333" d="M115-194c55 1 70 41 70 98S169 2 115 4C84 4 66-9 55-30l1 105H24l-1-265h31l2 30c10-21 28-34 59-34zm-8 174c40 0 45-34 45-75s-6-73-45-74c-42 0-51 32-51 76 0 43 10 73 51 73" id="I"/><path fill="#333" d="M96-169c-40 0-48 33-48 73s9 75 48 75c24 0 41-14 43-38l32 2c-6 37-31 61-74 61-59 0-76-41-82-99-10-93 101-131 147-64 4 7 5 14 7 22l-32 3c-4-21-16-35-41-35" id="J"/><g id="a"><use transform="matrix(0.06172839506172839,0,0,0.06172839506172839,0,0)" xlink:href="#D"/><use transform="matrix(0.06172839506172839,0,0,0.06172839506172839,11.049382716049381,0)" xlink:href="#E"/><use transform="matrix(0.06172839506172839,0,0,0.06172839506172839,23.39506172839506,0)" xlink:href="#F"/><use transform="matrix(0.06172839506172839,0,0,0.06172839506172839,35.74074074074074,0)" xlink:href="#G"/><use transform="matrix(0.06172839506172839,0,0,0.06172839506172839,54.19753086419753,0)" xlink:href="#H"/><use transform="matrix(0.06172839506172839,0,0,0.06172839506172839,69.01234567901234,0)" xlink:href="#I"/><use transform="matrix(0.06172839506172839,0,0,0.06172839506172839,81.35802469135803,0)" xlink:href="#F"/><use transform="matrix(0.06172839506172839,0,0,0.06172839506172839,93.70370370370371,0)" xlink:href="#J"/><use transform="matrix(0.06172839506172839,0,0,0.06172839506172839,104.81481481481482,0)" xlink:href="#E"/></g><path fill="#333" d="M232-93c-1 65-40 97-104 97C67 4 28-28 28-90v-158h33c8 89-33 224 67 224 102 0 64-133 71-224h33v155" id="K"/><path fill="#333" d="M135-143c-3-34-86-38-87 0 15 53 115 12 119 90S17 21 10-45l28-5c4 36 97 45 98 0-10-56-113-15-118-90-4-57 82-63 122-42 12 7 21 19 24 35" id="L"/><path fill="#333" d="M84 4C-5 8 30-112 23-190h32v120c0 31 7 50 39 49 72-2 45-101 50-169h31l1 190h-30c-1-10 1-25-2-33-11 22-28 36-60 37" id="M"/><path fill="#333" d="M141-36C126-15 110 5 73 4 37 3 15-17 15-53c-1-64 63-63 125-63 3-35-9-54-41-54-24 1-41 7-42 31l-33-3c5-37 33-52 76-52 45 0 72 20 72 64v82c-1 20 7 32 28 27v20c-31 9-61-2-59-35zM48-53c0 20 12 33 32 33 41-3 63-29 60-74-43 2-92-5-92 41zm25-158c8-23 27-35 38-54h36v5l-58 49H73" id="N"/><path fill="#333" d="M114-163C36-179 61-72 57 0H25l-1-190h30c1 12-1 29 2 39 6-27 23-49 58-41v29" id="O"/><path fill="#333" d="M24-231v-30h32v30H24zM24 0v-190h32V0H24" id="P"/><path fill="#333" d="M100-194c62-1 85 37 85 99 1 63-27 99-86 99S16-35 15-95c0-66 28-99 85-99zM99-20c44 1 53-31 53-75 0-43-8-75-51-75s-53 32-53 75 10 74 51 75" id="Q"/><g id="b"><use transform="matrix(0.06172839506172839,0,0,0.06172839506172839,0,0)" xlink:href="#K"/><use transform="matrix(0.06172839506172839,0,0,0.06172839506172839,15.987654320987653,0)" xlink:href="#L"/><use transform="matrix(0.06172839506172839,0,0,0.06172839506172839,27.098765432098766,0)" xlink:href="#M"/><use transform="matrix(0.06172839506172839,0,0,0.06172839506172839,39.44444444444444,0)" xlink:href="#N"/><use transform="matrix(0.06172839506172839,0,0,0.06172839506172839,51.79012345679012,0)" xlink:href="#O"/><use transform="matrix(0.06172839506172839,0,0,0.06172839506172839,59.1358024691358,0)" xlink:href="#P"/><use transform="matrix(0.06172839506172839,0,0,0.06172839506172839,64.01234567901234,0)" xlink:href="#Q"/></g><path d="M63-220v92h138v28H63V0H30v-248h175v28H63" id="R"/><path d="M141-36C126-15 110 5 73 4 37 3 15-17 15-53c-1-64 63-63 125-63 3-35-9-54-41-54-24 1-41 7-42 31l-33-3c5-37 33-52 76-52 45 0 72 20 72 64v82c-1 20 7 32 28 27v20c-31 9-61-2-59-35zM48-53c0 20 12 33 32 33 41-3 63-29 60-74-43 2-92-5-92 41" id="S"/><path d="M9 0v-24l116-142H16v-24h144v24L44-24h123V0H9" id="T"/><path d="M100-194c63 0 86 42 84 106H49c0 40 14 67 53 68 26 1 43-12 49-29l28 8c-11 28-37 45-77 45C44 4 14-33 15-96c1-61 26-98 85-98zm52 81c6-60-76-77-97-28-3 7-6 17-6 28h103" id="U"/><path d="M114-163C36-179 61-72 57 0H25l-1-190h30c1 12-1 29 2 39 6-27 23-49 58-41v29" id="V"/><g id="c"><use transform="matrix(0.05,0,0,0.05,0,0)" xlink:href="#R"/><use transform="matrix(0.05,0,0,0.05,10.950000000000001,0)" xlink:href="#S"/><use transform="matrix(0.05,0,0,0.05,20.950000000000003,0)" xlink:href="#T"/><use transform="matrix(0.05,0,0,0.05,29.950000000000003,0)" xlink:href="#U"/><use transform="matrix(0.05,0,0,0.05,39.95,0)" xlink:href="#V"/></g><path d="M30 0v-248h33v221h125V0H30" id="W"/><path d="M100-194c62-1 85 37 85 99 1 63-27 99-86 99S16-35 15-95c0-66 28-99 85-99zM99-20c44 1 53-31 53-75 0-43-8-75-51-75s-53 32-53 75 10 74 51 75" id="X"/><path d="M177-190C167-65 218 103 67 71c-23-6-38-20-44-43l32-5c15 47 100 32 89-28v-30C133-14 115 1 83 1 29 1 15-40 15-95c0-56 16-97 71-98 29-1 48 16 59 35 1-10 0-23 2-32h30zM94-22c36 0 50-32 50-73 0-42-14-75-50-75-39 0-46 34-46 75s6 73 46 73" id="Y"/><path d="M24-231v-30h32v30H24zM24 0v-190h32V0H24" id="Z"/><path d="M117-194c89-4 53 116 60 194h-32v-121c0-31-8-49-39-48C34-167 62-67 57 0H25l-1-190h30c1 10-1 24 2 32 11-22 29-35 61-36" id="aa"/><g id="d"><use transform="matrix(0.05,0,0,0.05,0,0)" xlink:href="#W"/><use transform="matrix(0.05,0,0,0.05,10,0)" xlink:href="#X"/><use transform="matrix(0.05,0,0,0.05,20,0)" xlink:href="#Y"/><use transform="matrix(0.05,0,0,0.05,30,0)" xlink:href="#Z"/><use transform="matrix(0.05,0,0,0.05,33.95,0)" xlink:href="#aa"/></g><path d="M137 0h-34L2-248h35l83 218 83-218h36" id="ab"/><path d="M101-234c-31-9-42 10-38 44h38v23H63V0H32v-167H5v-23h27c-7-52 17-82 69-68v24" id="ac"/><path d="M96-169c-40 0-48 33-48 73s9 75 48 75c24 0 41-14 43-38l32 2c-6 37-31 61-74 61-59 0-76-41-82-99-10-93 101-131 147-64 4 7 5 14 7 22l-32 3c-4-21-16-35-41-35" id="ad"/><g id="e"><use transform="matrix(0.05,0,0,0.05,0,0)" xlink:href="#ab"/><use transform="matrix(0.05,0,0,0.05,11,0)" xlink:href="#U"/><use transform="matrix(0.05,0,0,0.05,21,0)" xlink:href="#V"/><use transform="matrix(0.05,0,0,0.05,26.950000000000003,0)" xlink:href="#Z"/><use transform="matrix(0.05,0,0,0.05,30.899999999999995,0)" xlink:href="#ac"/><use transform="matrix(0.05,0,0,0.05,35.9,0)" xlink:href="#Z"/><use transform="matrix(0.05,0,0,0.05,39.85,0)" xlink:href="#ad"/><use transform="matrix(0.05,0,0,0.05,48.85,0)" xlink:href="#S"/><use transform="matrix(0.05,0,0,0.05,58.85,0)" xlink:href="#V"/></g><path d="M185-189c-5-48-123-54-124 2 14 75 158 14 163 119 3 78-121 87-175 55-17-10-28-26-33-46l33-7c5 56 141 63 141-1 0-78-155-14-162-118-5-82 145-84 179-34 5 7 8 16 11 25" id="ae"/><path d="M106-169C34-169 62-67 57 0H25v-261h32l-1 103c12-21 28-36 61-36 89 0 53 116 60 194h-32v-121c2-32-8-49-39-48" id="af"/><g id="f"><use transform="matrix(0.05,0,0,0.05,0,0)" xlink:href="#ae"/><use transform="matrix(0.05,0,0,0.05,12,0)" xlink:href="#U"/><use transform="matrix(0.05,0,0,0.05,22,0)" xlink:href="#aa"/><use transform="matrix(0.05,0,0,0.05,32,0)" xlink:href="#af"/><use transform="matrix(0.05,0,0,0.05,42,0)" xlink:href="#S"/></g><path d="M30 0v-248h187v28H63v79h144v27H63v87h162V0H30" id="ag"/><path d="M141 0L90-78 38 0H4l68-98-65-92h35l48 74 47-74h35l-64 92 68 98h-35" id="ah"/><path d="M115-194c53 0 69 39 70 98 0 66-23 100-70 100C84 3 66-7 56-30L54 0H23l1-261h32v101c10-23 28-34 59-34zm-8 174c40 0 45-34 45-75 0-40-5-75-45-74-42 0-51 32-51 76 0 43 10 73 51 73" id="ai"/><g id="g"><use transform="matrix(0.05,0,0,0.05,0,0)" xlink:href="#ag"/><use transform="matrix(0.05,0,0,0.05,12,0)" xlink:href="#ah"/><use transform="matrix(0.05,0,0,0.05,21,0)" xlink:href="#Z"/><use transform="matrix(0.05,0,0,0.05,24.95,0)" xlink:href="#ai"/><use transform="matrix(0.05,0,0,0.05,34.95,0)" xlink:href="#Z"/><use transform="matrix(0.05,0,0,0.05,38.900000000000006,0)" xlink:href="#V"/></g><g id="h"><use transform="matrix(0.05,0,0,0.05,0,0)" xlink:href="#ag"/><use transform="matrix(0.05,0,0,0.05,12,0)" xlink:href="#V"/><use transform="matrix(0.05,0,0,0.05,17.95,0)" xlink:href="#V"/><use transform="matrix(0.05,0,0,0.05,23.9,0)" xlink:href="#X"/></g><path d="M85-194c31 0 48 13 60 33l-1-100h32l1 261h-30c-2-10 0-23-3-31C134-8 116 4 85 4 32 4 16-35 15-94c0-66 23-100 70-100zm9 24c-40 0-46 34-46 75 0 40 6 74 45 74 42 0 51-32 51-76 0-42-9-74-50-73" id="aj"/><g id="i"><use transform="matrix(0.05,0,0,0.05,0,0)" xlink:href="#aj"/><use transform="matrix(0.05,0,0,0.05,10,0)" xlink:href="#U"/></g><path fill="#333" d="M15-91v-56l181-69v40L49-119l147 57v40" id="ak"/><path fill="#333" d="M25-224v-37h50v37H25zM25 0v-190h50V0H25" id="al"/><path fill="#333" d="M135-194c87-1 58 113 63 194h-50c-7-57 23-157-34-157-59 0-34 97-39 157H25l-1-190h47c2 12-1 28 3 38 12-26 28-41 61-42" id="am"/><path fill="#333" d="M190-63c-7 42-38 67-86 67-59 0-84-38-90-98-12-110 154-137 174-36l-49 2c-2-19-15-32-35-32-30 0-35 28-38 64-6 74 65 87 74 30" id="an"/><path fill="#333" d="M25 0v-261h50V0H25" id="ao"/><path fill="#333" d="M85 4C-2 5 27-109 22-190h50c7 57-23 150 33 157 60-5 35-97 40-157h50l1 190h-47c-2-12 1-28-3-38-12 25-28 42-61 42" id="ap"/><path fill="#333" d="M135-150c-39-12-60 13-60 57V0H25l-1-190h47c2 13-1 29 3 40 6-28 27-53 61-41v41" id="aq"/><path fill="#333" d="M15-22v-40l146-57-146-57v-40l181 69v56" id="ar"/><g id="j"><use transform="matrix(0.04938271604938272,0,0,0.04938271604938272,0,0)" xlink:href="#ak"/><use transform="matrix(0.04938271604938272,0,0,0.04938271604938272,10.370370370370372,0)" xlink:href="#ak"/><use transform="matrix(0.04938271604938272,0,0,0.04938271604938272,20.740740740740744,0)" xlink:href="#al"/><use transform="matrix(0.04938271604938272,0,0,0.04938271604938272,25.679012345679016,0)" xlink:href="#am"/><use transform="matrix(0.04938271604938272,0,0,0.04938271604938272,36.49382716049383,0)" xlink:href="#an"/><use transform="matrix(0.04938271604938272,0,0,0.04938271604938272,46.370370370370374,0)" xlink:href="#ao"/><use transform="matrix(0.04938271604938272,0,0,0.04938271604938272,51.308641975308646,0)" xlink:href="#ap"/><use transform="matrix(0.04938271604938272,0,0,0.04938271604938272,62.12345679012346,0)" xlink:href="#al"/><use transform="matrix(0.04938271604938272,0,0,0.04938271604938272,67.06172839506173,0)" xlink:href="#aq"/><use transform="matrix(0.04938271604938272,0,0,0.04938271604938272,73.97530864197532,0)" xlink:href="#ar"/><use transform="matrix(0.04938271604938272,0,0,0.04938271604938272,84.34567901234568,0)" xlink:href="#ar"/></g><path fill="#333" d="M185-48c-13 30-37 53-82 52C43 2 14-33 14-96s30-98 90-98c62 0 83 45 84 108H66c0 31 8 55 39 56 18 0 30-7 34-22zm-45-69c5-46-57-63-70-21-2 6-4 13-4 21h74" id="as"/><path fill="#333" d="M144 0l-44-69L55 0H2l70-98-66-92h53l41 62 40-62h54l-67 91 71 99h-54" id="at"/><path fill="#333" d="M115-3C79 11 28 4 28-45v-112H4v-33h27l15-45h31v45h36v33H77v99c-1 23 16 31 38 25v30" id="au"/><path fill="#333" d="M88-194c31-1 46 15 58 34l-1-101h50l1 261h-48c-2-10 0-23-3-31C134-8 116 4 84 4 32 4 16-41 15-95c0-56 19-97 73-99zm17 164c33 0 40-30 41-66 1-37-9-64-41-64s-38 30-39 65c0 43 13 65 39 65" id="av"/><g id="k"><use transform="matrix(0.04938271604938272,0,0,0.04938271604938272,0,0)" xlink:href="#ak"/><use transform="matrix(0.04938271604938272,0,0,0.04938271604938272,10.370370370370372,0)" xlink:href="#ak"/><use transform="matrix(0.04938271604938272,0,0,0.04938271604938272,20.740740740740744,0)" xlink:href="#as"/><use transform="matrix(0.04938271604938272,0,0,0.04938271604938272,30.617283950617285,0)" xlink:href="#at"/><use transform="matrix(0.04938271604938272,0,0,0.04938271604938272,40.49382716049384,0)" xlink:href="#au"/><use transform="matrix(0.04938271604938272,0,0,0.04938271604938272,46.37037037037038,0)" xlink:href="#as"/><use transform="matrix(0.04938271604938272,0,0,0.04938271604938272,56.24691358024693,0)" xlink:href="#am"/><use transform="matrix(0.04938271604938272,0,0,0.04938271604938272,67.06172839506173,0)" xlink:href="#av"/><use transform="matrix(0.04938271604938272,0,0,0.04938271604938272,77.87654320987654,0)" xlink:href="#as"/><use transform="matrix(0.04938271604938272,0,0,0.04938271604938272,87.75308641975309,0)" xlink:href="#aq"/><use transform="matrix(0.04938271604938272,0,0,0.04938271604938272,94.66666666666667,0)" xlink:href="#ar"/><use transform="matrix(0.04938271604938272,0,0,0.04938271604938272,105.03703703703705,0)" xlink:href="#ar"/></g><path d="M135-143c-3-34-86-38-87 0 15 53 115 12 119 90S17 21 10-45l28-5c4 36 97 45 98 0-10-56-113-15-118-90-4-57 82-63 122-42 12 7 21 19 24 35" id="aw"/><path d="M84 4C-5 8 30-112 23-190h32v120c0 31 7 50 39 49 72-2 45-101 50-169h31l1 190h-30c-1-10 1-25-2-33-11 22-28 36-60 37" id="ax"/><path d="M24 0v-261h32V0H24" id="ay"/><g id="l"><use transform="matrix(0.05,0,0,0.05,0,0)" xlink:href="#ab"/><use transform="matrix(0.05,0,0,0.05,11.65,0)" xlink:href="#Z"/><use transform="matrix(0.05,0,0,0.05,15.600000000000001,0)" xlink:href="#aw"/><use transform="matrix(0.05,0,0,0.05,24.6,0)" xlink:href="#ax"/><use transform="matrix(0.05,0,0,0.05,34.6,0)" xlink:href="#S"/><use transform="matrix(0.05,0,0,0.05,44.6,0)" xlink:href="#ay"/><use transform="matrix(0.05,0,0,0.05,48.550000000000004,0)" xlink:href="#Z"/><use transform="matrix(0.05,0,0,0.05,52.5,0)" xlink:href="#T"/><use transform="matrix(0.05,0,0,0.05,61.5,0)" xlink:href="#S"/><use transform="matrix(0.05,0,0,0.05,71.5,0)" xlink:href="#V"/></g><path d="M30-248c87 1 191-15 191 75 0 78-77 80-158 76V0H30v-248zm33 125c57 0 124 11 124-50 0-59-68-47-124-48v98" id="az"/><path d="M24-231v-30h32v30H24zM-9 49c24 4 33-6 33-30v-209h32V24c2 40-23 58-65 49V49" id="aA"/><path d="M59-47c-2 24 18 29 38 22v24C64 9 27 4 27-40v-127H5v-23h24l9-43h21v43h35v23H59v120" id="aB"/><g id="m"><use transform="matrix(0.05,0,0,0.05,0,0)" xlink:href="#az"/><use transform="matrix(0.05,0,0,0.05,12,0)" xlink:href="#V"/><use transform="matrix(0.05,0,0,0.05,17.95,0)" xlink:href="#X"/><use transform="matrix(0.05,0,0,0.05,27.950000000000003,0)" xlink:href="#aA"/><use transform="matrix(0.05,0,0,0.05,31.899999999999995,0)" xlink:href="#U"/><use transform="matrix(0.05,0,0,0.05,41.9,0)" xlink:href="#aB"/><use transform="matrix(0.05,0,0,0.05,46.9,0)" xlink:href="#X"/></g><path d="M212-179c-10-28-35-45-73-45-59 0-87 40-87 99 0 60 29 101 89 101 43 0 62-24 78-52l27 14C228-24 195 4 139 4 59 4 22-46 18-125c-6-104 99-153 187-111 19 9 31 26 39 46" id="aC"/><g id="n"><use transform="matrix(0.05,0,0,0.05,0,0)" xlink:href="#aC"/><use transform="matrix(0.05,0,0,0.05,12.950000000000001,0)" xlink:href="#V"/><use transform="matrix(0.05,0,0,0.05,18.900000000000002,0)" xlink:href="#Z"/><use transform="matrix(0.05,0,0,0.05,22.85,0)" xlink:href="#S"/><use transform="matrix(0.05,0,0,0.05,32.85,0)" xlink:href="#V"/></g><path d="M115-194c55 1 70 41 70 98S169 2 115 4C84 4 66-9 55-30l1 105H24l-1-265h31l2 30c10-21 28-34 59-34zm-8 174c40 0 45-34 45-75s-6-73-45-74c-42 0-51 32-51 76 0 43 10 73 51 73" id="aD"/><g id="o"><use transform="matrix(0.05,0,0,0.05,0,0)" xlink:href="#aD"/><use transform="matrix(0.05,0,0,0.05,10,0)" xlink:href="#V"/><use transform="matrix(0.05,0,0,0.05,15.949999999999998,0)" xlink:href="#X"/><use transform="matrix(0.05,0,0,0.05,25.950000000000003,0)" xlink:href="#aA"/><use transform="matrix(0.05,0,0,0.05,29.899999999999995,0)" xlink:href="#U"/><use transform="matrix(0.05,0,0,0.05,39.9,0)" xlink:href="#aB"/><use transform="matrix(0.05,0,0,0.05,44.9,0)" xlink:href="#X"/></g><path d="M127-220V0H93v-220H8v-28h204v28h-85" id="aE"/><path d="M210-169c-67 3-38 105-44 169h-31v-121c0-29-5-50-35-48C34-165 62-65 56 0H25l-1-190h30c1 10-1 24 2 32 10-44 99-50 107 0 11-21 27-35 58-36 85-2 47 119 55 194h-31v-121c0-29-5-49-35-48" id="aF"/><g id="p"><use transform="matrix(0.05,0,0,0.05,0,0)" xlink:href="#aE"/><use transform="matrix(0.05,0,0,0.05,10.3,0)" xlink:href="#Z"/><use transform="matrix(0.05,0,0,0.05,14.25,0)" xlink:href="#aF"/><use transform="matrix(0.05,0,0,0.05,29.200000000000003,0)" xlink:href="#U"/></g><path d="M205 0l-28-72H64L36 0H1l101-248h38L239 0h-34zm-38-99l-47-123c-12 45-31 82-46 123h93" id="aG"/><g id="q"><use transform="matrix(0.05,0,0,0.05,0,0)" xlink:href="#aG"/><use transform="matrix(0.05,0,0,0.05,12,0)" xlink:href="#ad"/><use transform="matrix(0.05,0,0,0.05,21,0)" xlink:href="#U"/><use transform="matrix(0.05,0,0,0.05,31,0)" xlink:href="#aw"/><use transform="matrix(0.05,0,0,0.05,40,0)" xlink:href="#aw"/><use transform="matrix(0.05,0,0,0.05,49,0)" xlink:href="#S"/><use transform="matrix(0.05,0,0,0.05,59,0)" xlink:href="#V"/></g><g id="r"><use transform="matrix(0.05,0,0,0.05,0,0)" xlink:href="#aC"/><use transform="matrix(0.05,0,0,0.05,12.950000000000001,0)" xlink:href="#S"/><use transform="matrix(0.05,0,0,0.05,22.950000000000003,0)" xlink:href="#aB"/><use transform="matrix(0.05,0,0,0.05,27.950000000000003,0)" xlink:href="#U"/><use transform="matrix(0.05,0,0,0.05,37.95,0)" xlink:href="#Y"/><use transform="matrix(0.05,0,0,0.05,47.95,0)" xlink:href="#X"/><use transform="matrix(0.05,0,0,0.05,57.95,0)" xlink:href="#V"/><use transform="matrix(0.05,0,0,0.05,63.900000000000006,0)" xlink:href="#Z"/><use transform="matrix(0.05,0,0,0.05,67.85000000000001,0)" xlink:href="#S"/><use transform="matrix(0.05,0,0,0.05,77.85000000000001,0)" xlink:href="#aw"/></g><g id="s"><use transform="matrix(0.05,0,0,0.05,0,0)" xlink:href="#aE"/><use transform="matrix(0.05,0,0,0.05,8.950000000000001,0)" xlink:href="#S"/><use transform="matrix(0.05,0,0,0.05,18.950000000000003,0)" xlink:href="#V"/><use transform="matrix(0.05,0,0,0.05,24.900000000000002,0)" xlink:href="#U"/><use transform="matrix(0.05,0,0,0.05,34.900000000000006,0)" xlink:href="#ac"/><use transform="matrix(0.05,0,0,0.05,39.900000000000006,0)" xlink:href="#S"/><use transform="matrix(0.05,0,0,0.05,49.900000000000006,0)" xlink:href="#aw"/></g><g id="t"><use transform="matrix(0.05,0,0,0.05,0,0)" xlink:href="#aE"/><use transform="matrix(0.05,0,0,0.05,8.950000000000001,0)" xlink:href="#S"/><use transform="matrix(0.05,0,0,0.05,18.950000000000003,0)" xlink:href="#V"/><use transform="matrix(0.05,0,0,0.05,24.900000000000002,0)" xlink:href="#U"/><use transform="matrix(0.05,0,0,0.05,34.900000000000006,0)" xlink:href="#ac"/><use transform="matrix(0.05,0,0,0.05,39.900000000000006,0)" xlink:href="#S"/></g><path d="M108 0H70L1-190h34L89-25l56-165h34" id="aH"/><g id="u"><use transform="matrix(0.05,0,0,0.05,0,0)" xlink:href="#aC"/><use transform="matrix(0.05,0,0,0.05,12.950000000000001,0)" xlink:href="#X"/><use transform="matrix(0.05,0,0,0.05,22.950000000000003,0)" xlink:href="#aa"/><use transform="matrix(0.05,0,0,0.05,32.95,0)" xlink:href="#aH"/><use transform="matrix(0.05,0,0,0.05,41.95,0)" xlink:href="#Z"/><use transform="matrix(0.05,0,0,0.05,45.900000000000006,0)" xlink:href="#aj"/><use transform="matrix(0.05,0,0,0.05,55.900000000000006,0)" xlink:href="#S"/><use transform="matrix(0.05,0,0,0.05,65.9,0)" xlink:href="#V"/></g><g id="v"><use transform="matrix(0.05,0,0,0.05,0,0)" xlink:href="#aD"/><use transform="matrix(0.05,0,0,0.05,10,0)" xlink:href="#X"/><use transform="matrix(0.05,0,0,0.05,20,0)" xlink:href="#V"/></g><g id="w"><use transform="matrix(0.05,0,0,0.05,0,0)" xlink:href="#U"/><use transform="matrix(0.05,0,0,0.05,10,0)" xlink:href="#aF"/><use transform="matrix(0.05,0,0,0.05,24.950000000000003,0)" xlink:href="#S"/><use transform="matrix(0.05,0,0,0.05,34.95,0)" xlink:href="#Z"/><use transform="matrix(0.05,0,0,0.05,38.900000000000006,0)" xlink:href="#ay"/></g><g id="x"><use transform="matrix(0.05,0,0,0.05,0,0)" xlink:href="#aG"/><use transform="matrix(0.05,0,0,0.05,12,0)" xlink:href="#aj"/><use transform="matrix(0.05,0,0,0.05,22,0)" xlink:href="#Z"/><use transform="matrix(0.05,0,0,0.05,25.950000000000003,0)" xlink:href="#ad"/><use transform="matrix(0.05,0,0,0.05,34.95,0)" xlink:href="#Z"/><use transform="matrix(0.05,0,0,0.05,38.900000000000006,0)" xlink:href="#X"/><use transform="matrix(0.05,0,0,0.05,48.900000000000006,0)" xlink:href="#aa"/><use transform="matrix(0.05,0,0,0.05,58.900000000000006,0)" xlink:href="#S"/><use transform="matrix(0.05,0,0,0.05,68.9,0)" xlink:href="#V"/></g><path d="M145-31C134-9 116 4 85 4 32 4 16-35 15-94c0-59 17-99 70-100 32-1 48 14 60 33 0-11-1-24 2-32h30l-1 268h-32zM93-21c41 0 51-33 51-76s-8-73-50-73c-40 0-46 35-46 75s5 74 45 74" id="aI"/><g id="y"><use transform="matrix(0.05,0,0,0.05,0,0)" xlink:href="#ag"/><use transform="matrix(0.05,0,0,0.05,12,0)" xlink:href="#aB"/><use transform="matrix(0.05,0,0,0.05,17,0)" xlink:href="#Z"/><use transform="matrix(0.05,0,0,0.05,20.95,0)" xlink:href="#aI"/><use transform="matrix(0.05,0,0,0.05,30.950000000000003,0)" xlink:href="#ax"/><use transform="matrix(0.05,0,0,0.05,40.95,0)" xlink:href="#U"/><use transform="matrix(0.05,0,0,0.05,50.95,0)" xlink:href="#aB"/><use transform="matrix(0.05,0,0,0.05,55.95,0)" xlink:href="#S"/><use transform="matrix(0.05,0,0,0.05,65.95,0)" xlink:href="#aw"/></g><path d="M141-36C126-15 110 5 73 4 37 3 15-17 15-53c-1-64 63-63 125-63 3-35-9-54-41-54-24 1-41 7-42 31l-33-3c5-37 33-52 76-52 45 0 72 20 72 64v82c-1 20 7 32 28 27v20c-31 9-61-2-59-35zM48-53c0 20 12 33 32 33 41-3 63-29 60-74-43 2-92-5-92 41zm25-158c8-23 27-35 38-54h36v5l-58 49H73" id="aJ"/><g id="z"><use transform="matrix(0.05,0,0,0.05,0,0)" xlink:href="#aC"/><use transform="matrix(0.05,0,0,0.05,12.950000000000001,0)" xlink:href="#X"/><use transform="matrix(0.05,0,0,0.05,22.950000000000003,0)" xlink:href="#aF"/><use transform="matrix(0.05,0,0,0.05,37.900000000000006,0)" xlink:href="#U"/><use transform="matrix(0.05,0,0,0.05,47.900000000000006,0)" xlink:href="#aa"/><use transform="matrix(0.05,0,0,0.05,57.900000000000006,0)" xlink:href="#aB"/><use transform="matrix(0.05,0,0,0.05,62.900000000000006,0)" xlink:href="#aJ"/><use transform="matrix(0.05,0,0,0.05,72.9,0)" xlink:href="#V"/><use transform="matrix(0.05,0,0,0.05,78.85000000000001,0)" xlink:href="#Z"/><use transform="matrix(0.05,0,0,0.05,82.80000000000001,0)" xlink:href="#X"/></g><g id="A"><use transform="matrix(0.05,0,0,0.05,0,0)" xlink:href="#ab"/><use transform="matrix(0.05,0,0,0.05,11.65,0)" xlink:href="#Z"/><use transform="matrix(0.05,0,0,0.05,15.600000000000001,0)" xlink:href="#aw"/><use transform="matrix(0.05,0,0,0.05,24.6,0)" xlink:href="#ax"/><use transform="matrix(0.05,0,0,0.05,34.6,0)" xlink:href="#S"/><use transform="matrix(0.05,0,0,0.05,44.6,0)" xlink:href="#ay"/><use transform="matrix(0.05,0,0,0.05,48.550000000000004,0)" xlink:href="#Z"/><use transform="matrix(0.05,0,0,0.05,52.5,0)" xlink:href="#T"/><use transform="matrix(0.05,0,0,0.05,61.5,0)" xlink:href="#S"/><use transform="matrix(0.05,0,0,0.05,71.5,0)" xlink:href="#V"/></g><g id="B"><use transform="matrix(0.05,0,0,0.05,0,0)" xlink:href="#V"/><use transform="matrix(0.05,0,0,0.05,5.95,0)" xlink:href="#U"/><use transform="matrix(0.05,0,0,0.05,15.949999999999998,0)" xlink:href="#Y"/><use transform="matrix(0.05,0,0,0.05,25.950000000000003,0)" xlink:href="#Z"/><use transform="matrix(0.05,0,0,0.05,29.899999999999995,0)" xlink:href="#aw"/><use transform="matrix(0.05,0,0,0.05,38.9,0)" xlink:href="#aB"/><use transform="matrix(0.05,0,0,0.05,43.9,0)" xlink:href="#V"/><use transform="matrix(0.05,0,0,0.05,49.85,0)" xlink:href="#X"/></g><path d="M96-169c-40 0-48 33-48 73s9 75 48 75c24 0 41-14 43-38l32 2c-6 37-31 61-74 61-59 0-76-41-82-99-10-93 101-131 147-64 4 7 5 14 7 22l-32 3c-4-21-16-35-41-35zm3 187c19-1 33 8 33 26 0 31-30 33-64 32V58c18 2 39 4 41-13 1-15-18-13-34-13L87 0h19" id="aK"/><path d="M100-194c62-1 85 37 85 99 1 63-27 99-86 99S16-35 15-95c0-66 28-99 85-99zM99-20c44 1 53-31 53-75 0-43-8-75-51-75s-53 32-53 75 10 74 51 75zm66-238c-3 23-9 48-36 47-26-1-65-44-74 0H39c4-23 8-48 36-47s64 44 74 0h16" id="aL"/><g id="C"><use transform="matrix(0.05,0,0,0.05,0,0)" xlink:href="#S"/><use transform="matrix(0.05,0,0,0.05,10,0)" xlink:href="#ay"/><use transform="matrix(0.05,0,0,0.05,13.949999999999998,0)" xlink:href="#aB"/><use transform="matrix(0.05,0,0,0.05,18.95,0)" xlink:href="#U"/><use transform="matrix(0.05,0,0,0.05,28.950000000000003,0)" xlink:href="#V"/><use transform="matrix(0.05,0,0,0.05,34.9,0)" xlink:href="#S"/><use transform="matrix(0.05,0,0,0.05,44.9,0)" xlink:href="#aK"/><use transform="matrix(0.05,0,0,0.05,53.900000000000006,0)" xlink:href="#aL"/><use transform="matrix(0.05,0,0,0.05,63.900000000000006,0)" xlink:href="#U"/><use transform="matrix(0.05,0,0,0.05,73.9,0)" xlink:href="#aw"/></g></defs></g></svg>