<svg xmlns="http://www.w3.org/2000/svg" xmlns:xlink="http://www.w3.org/1999/xlink" xmlns:lucid="lucid" width="1832.49" height="865.43"><g transform="translate(-14.685683112158927 -228.70270119355598)" lucid:page-tab-id="0_0"><path d="M494.7 366a6 6 0 0 1 6-6h368a6 6 0 0 1 6 6v250a6 6 0 0 1-6 6h-368a6 6 0 0 1-6-6z" fill="#fff"/><path d="M494.7 366a6 6 0 0 1 6-6h368a6 6 0 0 1 6 6v250a6 6 0 0 1-6 6h-368a6 6 0 0 1-6-6zM494.7 400h380M554.7 400v222M797.66 400v222" stroke="#5e5e5e" stroke-width="3" fill="none"/><use xlink:href="#a" transform="matrix(1,0,0,1,504.6856831121589,359.9968670714421) translate(156.60493827160494 24.444444444444443)"/><use xlink:href="#b" transform="matrix(1,0,0,1,499.6856831121589,402.4968670714421) translate(10.185185185185187 20.444444444444443)"/><use xlink:href="#c" transform="matrix(1,0,0,1,559.6856831121589,402.4968670714421) translate(0 20.444444444444443)"/><use xlink:href="#d" transform="matrix(1,0,0,1,802.6650460157047,402.4968670714421) translate(0 20.444444444444443)"/><use xlink:href="#e" transform="matrix(1,0,0,1,559.6856831121589,439.4968670714421) translate(0 20.444444444444443)"/><use xlink:href="#f" transform="matrix(1,0,0,1,802.6650460157047,439.4968670714421) translate(0 22.380208333333336)"/><use xlink:href="#g" transform="matrix(1,0,0,1,559.6856831121589,476.4968670714421) translate(0 20.444444444444443)"/><use xlink:href="#h" transform="matrix(1,0,0,1,802.6650460157047,476.4968670714421) translate(0 20.444444444444443)"/><use xlink:href="#i" transform="matrix(1,0,0,1,559.6856831121589,513.4968670714421) translate(0 20.444444444444443)"/><use xlink:href="#h" transform="matrix(1,0,0,1,802.6650460157047,513.4968670714421) translate(0 20.444444444444443)"/><use xlink:href="#j" transform="matrix(1,0,0,1,559.6856831121589,550.4968670714421) translate(0 20.444444444444443)"/><use xlink:href="#h" transform="matrix(1,0,0,1,802.6650460157047,550.4968670714421) translate(0 20.444444444444443)"/><use xlink:href="#k" transform="matrix(1,0,0,1,559.6856831121589,587.4968670714421) translate(0 20.444444444444443)"/><use xlink:href="#l" transform="matrix(1,0,0,1,802.6650460157047,587.4968670714421) translate(0 20.444444444444443)"/><path d="M494.7 731.55a6 6 0 0 1 6-6h368a6 6 0 0 1 6 6v176a6 6 0 0 1-6 6h-368a6 6 0 0 1-6-6z" fill="#fff"/><path d="M494.7 731.55a6 6 0 0 1 6-6h368a6 6 0 0 1 6 6v176a6 6 0 0 1-6 6h-368a6 6 0 0 1-6-6zM494.7 765.55h380M554.7 765.55v148M797.66 765.55v148" stroke="#5e5e5e" stroke-width="3" fill="none"/><use xlink:href="#m" transform="matrix(1,0,0,1,504.6856831121589,725.5492673103562) translate(145.49382716049382 24.444444444444443)"/><use xlink:href="#b" transform="matrix(1,0,0,1,499.6856831121589,768.0492673103562) translate(10.185185185185187 20.444444444444443)"/><use xlink:href="#c" transform="matrix(1,0,0,1,559.6856831121589,768.0492673103562) translate(0 20.444444444444443)"/><use xlink:href="#d" transform="matrix(1,0,0,1,802.6650460157047,768.0492673103562) translate(0 20.444444444444443)"/><use xlink:href="#g" transform="matrix(1,0,0,1,559.6856831121589,805.0492673103562) translate(0 20.444444444444443)"/><use xlink:href="#h" transform="matrix(1,0,0,1,802.6650460157047,805.0492673103562) translate(0 20.444444444444443)"/><use xlink:href="#n" transform="matrix(1,0,0,1,559.6856831121589,842.0492673103562) translate(0 20.444444444444443)"/><use xlink:href="#h" transform="matrix(1,0,0,1,802.6650460157047,842.0492673103562) translate(0 20.444444444444443)"/><use xlink:href="#k" transform="matrix(1,0,0,1,559.6856831121589,879.0492673103562) translate(0 20.444444444444443)"/><use xlink:href="#l" transform="matrix(1,0,0,1,802.6650460157047,879.0492673103562) translate(0 20.444444444444443)"/><path d="M34.7 487.5a6 6 0 0 1 6-6h368a6 6 0 0 1 6 6v213a6 6 0 0 1-6 6h-368a6 6 0 0 1-6-6z" fill="#fff"/><path d="M34.7 487.5a6 6 0 0 1 6-6h368a6 6 0 0 1 6 6v213a6 6 0 0 1-6 6h-368a6 6 0 0 1-6-6zM34.7 521.5h380M94.7 521.5v185M337.67 521.5v185" stroke="#5e5e5e" stroke-width="3" fill="none"/><use xlink:href="#o" transform="matrix(1,0,0,1,44.68568311215893,481.5) translate(127.62345679012344 24.444444444444443)"/><use xlink:href="#b" transform="matrix(1,0,0,1,39.68568311215893,524) translate(10.185185185185187 20.444444444444443)"/><use xlink:href="#c" transform="matrix(1,0,0,1,99.68568311215893,524) translate(0 20.444444444444443)"/><use xlink:href="#d" transform="matrix(1,0,0,1,342.66504601570466,524) translate(0 20.444444444444443)"/><use xlink:href="#p" transform="matrix(1,0,0,1,99.68568311215893,561) translate(0 20.444444444444443)"/><use xlink:href="#q" transform="matrix(1,0,0,1,342.66504601570466,561) translate(0 20.444444444444443)"/><use xlink:href="#k" transform="matrix(1,0,0,1,99.68568311215893,598) translate(0 20.444444444444443)"/><use xlink:href="#l" transform="matrix(1,0,0,1,342.66504601570466,598) translate(0 20.444444444444443)"/><use xlink:href="#r" transform="matrix(1,0,0,1,39.68568311215893,635) translate(10.833333333333336 20.444444444444443)"/><use xlink:href="#s" transform="matrix(1,0,0,1,99.68568311215893,635) translate(0 20.444444444444443)"/><use xlink:href="#d" transform="matrix(1,0,0,1,342.66504601570466,635) translate(0 20.444444444444443)"/><use xlink:href="#r" transform="matrix(1,0,0,1,39.68568311215893,672) translate(10.833333333333336 20.444444444444443)"/><use xlink:href="#t" transform="matrix(1,0,0,1,99.68568311215893,672) translate(0 20.444444444444443)"/><use xlink:href="#d" transform="matrix(1,0,0,1,342.66504601570466,672) translate(0 20.444444444444443)"/><path d="M954.7 620.55a6 6 0 0 1 6-6h368a6 6 0 0 1 6 6v176a6 6 0 0 1-6 6h-368a6 6 0 0 1-6-6z" fill="#fff"/><path d="M954.7 620.55a6 6 0 0 1 6-6h368a6 6 0 0 1 6 6v176a6 6 0 0 1-6 6h-368a6 6 0 0 1-6-6zM954.7 654.55h380M1014.7 654.55v148M1257.66 654.55v148" stroke="#5e5e5e" stroke-width="3" fill="none"/><use xlink:href="#u" transform="matrix(1,0,0,1,964.685683112159,614.5492673103806) translate(135 24.444444444444443)"/><use xlink:href="#b" transform="matrix(1,0,0,1,959.685683112159,657.0492673103806) translate(10.185185185185187 20.444444444444443)"/><use xlink:href="#c" transform="matrix(1,0,0,1,1019.685683112159,657.0492673103806) translate(0 20.444444444444443)"/><use xlink:href="#d" transform="matrix(1,0,0,1,1262.6650460157048,657.0492673103806) translate(0 20.444444444444443)"/><use xlink:href="#g" transform="matrix(1,0,0,1,1019.685683112159,694.0492673103806) translate(0 20.444444444444443)"/><use xlink:href="#h" transform="matrix(1,0,0,1,1262.6650460157048,694.0492673103806) translate(0 20.444444444444443)"/><use xlink:href="#k" transform="matrix(1,0,0,1,1019.685683112159,731.0492673103806) translate(0 20.444444444444443)"/><use xlink:href="#l" transform="matrix(1,0,0,1,1262.6650460157048,731.0492673103806) translate(0 20.444444444444443)"/><use xlink:href="#r" transform="matrix(1,0,0,1,959.685683112159,768.0492673103806) translate(10.833333333333336 20.444444444444443)"/><use xlink:href="#t" transform="matrix(1,0,0,1,1019.685683112159,768.0492673103806) translate(0 20.444444444444443)"/><use xlink:href="#d" transform="matrix(1,0,0,1,1262.6650460157048,768.0492673103806) translate(0 20.444444444444443)"/><path d="M1414.7 434.7a6 6 0 0 1 6-6h368a6 6 0 0 1 6 6v287a6 6 0 0 1-6 6h-368a6 6 0 0 1-6-6z" fill="#fff"/><path d="M1414.7 434.7a6 6 0 0 1 6-6h368a6 6 0 0 1 6 6v287a6 6 0 0 1-6 6h-368a6 6 0 0 1-6-6zM1414.7 468.7h380M1474.7 468.7v259M1717.66 468.7v259" stroke="#5e5e5e" stroke-width="3" fill="none"/><use xlink:href="#v" transform="matrix(1,0,0,1,1424.685683112159,428.7027011935561) translate(157.19135802469137 24.444444444444443)"/><use xlink:href="#b" transform="matrix(1,0,0,1,1419.685683112159,471.2027011935561) translate(10.185185185185187 20.444444444444443)"/><use xlink:href="#c" transform="matrix(1,0,0,1,1479.685683112159,471.2027011935561) translate(0 20.444444444444443)"/><use xlink:href="#d" transform="matrix(1,0,0,1,1722.6650460157048,471.2027011935561) translate(0 20.444444444444443)"/><use xlink:href="#w" transform="matrix(1,0,0,1,1479.685683112159,508.2027011935561) translate(0 20.444444444444443)"/><use xlink:href="#h" transform="matrix(1,0,0,1,1722.6650460157048,508.2027011935561) translate(0 20.444444444444443)"/><use xlink:href="#n" transform="matrix(1,0,0,1,1479.685683112159,545.2027011935561) translate(0 20.444444444444443)"/><use xlink:href="#h" transform="matrix(1,0,0,1,1722.6650460157048,545.2027011935561) translate(0 20.444444444444443)"/><use xlink:href="#x" transform="matrix(1,0,0,1,1479.685683112159,582.2027011935561) translate(0 20.444444444444443)"/><use xlink:href="#y" transform="matrix(1,0,0,1,1722.6650460157048,582.2027011935561) translate(0 20.444444444444443)"/><use xlink:href="#z" transform="matrix(1,0,0,1,1479.685683112159,619.2027011935561) translate(0 20.444444444444443)"/><use xlink:href="#y" transform="matrix(1,0,0,1,1722.6650460157048,619.2027011935561) translate(0 20.444444444444443)"/><use xlink:href="#k" transform="matrix(1,0,0,1,1479.685683112159,656.2027011935561) translate(0 20.444444444444443)"/><use xlink:href="#l" transform="matrix(1,0,0,1,1722.6650460157048,656.2027011935561) translate(0 20.444444444444443)"/><use xlink:href="#r" transform="matrix(1,0,0,1,1419.685683112159,693.2027011935561) translate(10.833333333333336 20.444444444444443)"/><use xlink:href="#A" transform="matrix(1,0,0,1,1479.685683112159,693.2027011935561) translate(0 20.444444444444443)"/><use xlink:href="#d" transform="matrix(1,0,0,1,1722.6650460157048,693.2027011935561) translate(0 20.444444444444443)"/><path d="M954.7 855.13a6 6 0 0 1 6-6h368a6 6 0 0 1 6 6v213a6 6 0 0 1-6 6h-368a6 6 0 0 1-6-6z" fill="#fff"/><path d="M954.7 855.13a6 6 0 0 1 6-6h368a6 6 0 0 1 6 6v213a6 6 0 0 1-6 6h-368a6 6 0 0 1-6-6zM954.7 889.13h380M1014.7 889.13v185M1257.66 889.13v185" stroke="#5e5e5e" stroke-width="3" fill="none"/><use xlink:href="#B" transform="matrix(1,0,0,1,964.685683112159,849.1319444757352) translate(162.12962962962962 24.444444444444443)"/><use xlink:href="#b" transform="matrix(1,0,0,1,959.685683112159,891.6319444757352) translate(10.185185185185187 20.444444444444443)"/><use xlink:href="#c" transform="matrix(1,0,0,1,1019.685683112159,891.6319444757352) translate(0 20.444444444444443)"/><use xlink:href="#d" transform="matrix(1,0,0,1,1262.6650460157048,891.6319444757352) translate(0 20.444444444444443)"/><use xlink:href="#g" transform="matrix(1,0,0,1,1019.685683112159,928.6319444757352) translate(0 20.444444444444443)"/><use xlink:href="#h" transform="matrix(1,0,0,1,1262.6650460157048,928.6319444757352) translate(0 20.444444444444443)"/><use xlink:href="#C" transform="matrix(1,0,0,1,1019.685683112159,965.6319444757352) translate(0 20.444444444444443)"/><use xlink:href="#h" transform="matrix(1,0,0,1,1262.6650460157048,965.6319444757352) translate(0 20.444444444444443)"/><use xlink:href="#k" transform="matrix(1,0,0,1,1019.685683112159,1002.6319444757352) translate(0 20.444444444444443)"/><use xlink:href="#l" transform="matrix(1,0,0,1,1262.6650460157048,1002.6319444757352) translate(0 20.444444444444443)"/><use xlink:href="#r" transform="matrix(1,0,0,1,959.685683112159,1039.631944475735) translate(10.833333333333336 20.444444444444443)"/><use xlink:href="#t" transform="matrix(1,0,0,1,1019.685683112159,1039.631944475735) translate(0 20.444444444444443)"/><use xlink:href="#d" transform="matrix(1,0,0,1,1262.6650460157048,1039.631944475735) translate(0 20.444444444444443)"/><path d="M1414.7 817.7a6 6 0 0 1 6-6h368a6 6 0 0 1 6 6v176a6 6 0 0 1-6 6h-368a6 6 0 0 1-6-6z" fill="#fff"/><path d="M1414.7 817.7a6 6 0 0 1 6-6h368a6 6 0 0 1 6 6v176a6 6 0 0 1-6 6h-368a6 6 0 0 1-6-6zM1414.7 851.7h380M1474.7 851.7v148M1717.66 851.7v148" stroke="#5e5e5e" stroke-width="3" fill="none"/><use xlink:href="#D" transform="matrix(1,0,0,1,1424.685683112159,811.7084396815181) translate(132.46913580246914 24.444444444444443)"/><use xlink:href="#b" transform="matrix(1,0,0,1,1419.685683112159,854.2084396815181) translate(10.185185185185187 20.444444444444443)"/><use xlink:href="#c" transform="matrix(1,0,0,1,1479.685683112159,854.2084396815181) translate(0 20.444444444444443)"/><use xlink:href="#d" transform="matrix(1,0,0,1,1722.6650460157048,854.2084396815181) translate(0 20.444444444444443)"/><use xlink:href="#k" transform="matrix(1,0,0,1,1479.685683112159,891.2084396815181) translate(0 20.444444444444443)"/><use xlink:href="#l" transform="matrix(1,0,0,1,1722.6650460157048,891.2084396815181) translate(0 20.444444444444443)"/><use xlink:href="#r" transform="matrix(1,0,0,1,1419.685683112159,928.2084396815181) translate(10.833333333333336 20.444444444444443)"/><use xlink:href="#E" transform="matrix(1,0,0,1,1479.685683112159,928.2084396815181) translate(0 20.444444444444443)"/><use xlink:href="#d" transform="matrix(1,0,0,1,1722.6650460157048,928.2084396815181) translate(0 20.444444444444443)"/><use xlink:href="#r" transform="matrix(1,0,0,1,1419.685683112159,965.2084396815181) translate(10.833333333333336 20.444444444444443)"/><use xlink:href="#F" transform="matrix(1,0,0,1,1479.685683112159,965.2084396815181) translate(0 20.444444444444443)"/><use xlink:href="#d" transform="matrix(1,0,0,1,1722.6650460157048,965.2084396815181) translate(0 20.444444444444443)"/><path d="M954.7 254.7a6 6 0 0 1 6-6h368a6 6 0 0 1 6 6v250a6 6 0 0 1-6 6h-368a6 6 0 0 1-6-6z" fill="#fff"/><path d="M954.7 254.7a6 6 0 0 1 6-6h368a6 6 0 0 1 6 6v250a6 6 0 0 1-6 6h-368a6 6 0 0 1-6-6zM954.7 288.7h380M1014.7 288.7v222M1257.66 288.7v222" stroke="#5e5e5e" stroke-width="3" fill="none"/><use xlink:href="#G" transform="matrix(1,0,0,1,964.685683112159,248.70270119355598) translate(109.69135802469137 24.444444444444443)"/><use xlink:href="#b" transform="matrix(1,0,0,1,959.685683112159,291.202701193556) translate(10.185185185185187 20.444444444444443)"/><use xlink:href="#c" transform="matrix(1,0,0,1,1019.685683112159,291.202701193556) translate(0 20.444444444444443)"/><use xlink:href="#d" transform="matrix(1,0,0,1,1262.6650460157048,291.202701193556) translate(0 20.444444444444443)"/><use xlink:href="#n" transform="matrix(1,0,0,1,1019.685683112159,328.202701193556) translate(0 20.444444444444443)"/><use xlink:href="#h" transform="matrix(1,0,0,1,1262.6650460157048,328.202701193556) translate(0 20.444444444444443)"/><use xlink:href="#H" transform="matrix(1,0,0,1,1019.685683112159,365.202701193556) translate(0 20.444444444444443)"/><use xlink:href="#l" transform="matrix(1,0,0,1,1262.6650460157048,365.202701193556) translate(0 20.444444444444443)"/><use xlink:href="#r" transform="matrix(1,0,0,1,959.685683112159,402.202701193556) translate(10.833333333333336 20.444444444444443)"/><use xlink:href="#s" transform="matrix(1,0,0,1,1019.685683112159,402.202701193556) translate(0 20.444444444444443)"/><use xlink:href="#d" transform="matrix(1,0,0,1,1262.6650460157048,402.202701193556) translate(0 20.444444444444443)"/><use xlink:href="#r" transform="matrix(1,0,0,1,959.685683112159,439.202701193556) translate(10.833333333333336 20.444444444444443)"/><use xlink:href="#t" transform="matrix(1,0,0,1,1019.685683112159,439.202701193556) translate(0 20.444444444444443)"/><use xlink:href="#d" transform="matrix(1,0,0,1,1262.6650460157048,439.202701193556) translate(0 20.444444444444443)"/><use xlink:href="#r" transform="matrix(1,0,0,1,959.685683112159,476.202701193556) translate(10.833333333333336 20.444444444444443)"/><use xlink:href="#F" transform="matrix(1,0,0,1,1019.685683112159,476.202701193556) translate(0 20.444444444444443)"/><use xlink:href="#d" transform="matrix(1,0,0,1,1262.6650460157048,476.202701193556) translate(0 20.444444444444443)"/><path d="M473.2 418.5h-12.5a6 6 0 0 0-6 6V645a6 6 0 0 1-6 6H435" stroke="#5e5e5e" stroke-width="2" fill="none"/><path d="M473.2 408.5v20M493.2 418.5h-20" stroke="#5e5e5e" stroke-width="2" fill="#fff"/><path d="M416.62 641l20 10-20 10" stroke="#5e5e5e" stroke-width="2" fill="#fff" fill-opacity="0"/><path d="M416.62 651h20" stroke="#5e5e5e" stroke-width="2" fill="#fff"/><path d="M473.2 784.05h-12.5a6 6 0 0 1-6-6V694a6 6 0 0 0-6-6H435" stroke="#5e5e5e" stroke-width="2" fill="none"/><path d="M473.2 774.05v20M493.2 784.05h-20" stroke="#5e5e5e" stroke-width="2" fill="#fff"/><path d="M416.63 678l20 10-20 10" stroke="#5e5e5e" stroke-width="2" fill="#fff" fill-opacity="0"/><path d="M416.63 688h20" stroke="#5e5e5e" stroke-width="2" fill="#fff"/><path d="M896.13 784.05h38.29" stroke="#5e5e5e" stroke-width="2" fill="none"/><path d="M896.13 794.05v-20M876.13 784.05h20" stroke="#5e5e5e" stroke-width="2" fill="#fff"/><path d="M952.8 794.05l-20-10 20-10" stroke="#5e5e5e" stroke-width="2" fill="#fff" fill-opacity="0"/><path d="M952.8 784.05h-20" stroke="#5e5e5e" stroke-width="2" fill="#fff"/><path d="M896.12 745.55h12.56a6 6 0 0 0 6-6V461.78a6 6 0 0 1 6-6h13.74" stroke="#5e5e5e" stroke-width="2" fill="none"/><path d="M896.12 755.55v-20M876.12 745.55h20" stroke="#5e5e5e" stroke-width="2" fill="#fff"/><path d="M952.8 465.77l-20-10 20-10" stroke="#5e5e5e" stroke-width="2" fill="#fff" fill-opacity="0"/><path d="M952.8 455.77h-20" stroke="#5e5e5e" stroke-width="2" fill="#fff"/><path d="M896.15 821.05h12.55a6 6 0 0 1 6 6v222.58a6 6 0 0 0 6 6h13.73" stroke="#5e5e5e" stroke-width="2" fill="none"/><path d="M896.15 831.05v-20M876.15 821.05h20" stroke="#5e5e5e" stroke-width="2" fill="#fff"/><path d="M952.8 1065.63l-20-10 20-10" stroke="#5e5e5e" stroke-width="2" fill="#fff" fill-opacity="0"/><path d="M952.8 1055.63h-20" stroke="#5e5e5e" stroke-width="2" fill="#fff"/><path d="M1356.13 907.63h12.55a6 6 0 0 1 6 6v24.58a6 6 0 0 0 6 6h13.73" stroke="#5e5e5e" stroke-width="2" fill="none"/><path d="M1356.13 917.63v-20M1336.13 907.63h20" stroke="#5e5e5e" stroke-width="2" fill="#fff"/><path d="M1412.8 954.2l-20-10 20-10" stroke="#5e5e5e" stroke-width="2" fill="#fff" fill-opacity="0"/><path d="M1412.8 944.2h-20" stroke="#5e5e5e" stroke-width="2" fill="#fff"/><path d="M1356.13 673.05h12.56a6 6 0 0 1 6 6v24.15a6 6 0 0 0 6 6h13.73" stroke="#5e5e5e" stroke-width="2" fill="none"/><path d="M1356.13 683.05v-20M1336.13 673.05h20" stroke="#5e5e5e" stroke-width="2" fill="#fff"/><path d="M1412.8 719.2l-20-10 20-10" stroke="#5e5e5e" stroke-width="2" fill="#fff" fill-opacity="0"/><path d="M1412.8 709.2h-20" stroke="#5e5e5e" stroke-width="2" fill="#fff"/><path d="M1816.13 487.2h14.05a6 6 0 0 1 6 6v482a6 6 0 0 1-6 6H1815" stroke="#5e5e5e" stroke-width="2" fill="none"/><path d="M1816.13 497.2v-20M1796.13 487.2h20" stroke="#5e5e5e" stroke-width="2" fill="#fff"/><path d="M1796.63 971.2l20 10-20 10" stroke="#5e5e5e" stroke-width="2" fill="#fff" fill-opacity="0"/><path d="M1796.63 981.2h20" stroke="#5e5e5e" stroke-width="2" fill="#fff"/><path d="M1393.2 487.2h-18.23a.28.28 0 0 1-.28-.28.28.28 0 0 0-.3-.28H1355" stroke="#5e5e5e" stroke-width="2" fill="none"/><path d="M1393.2 477.2v20M1413.2 487.2h-20" stroke="#5e5e5e" stroke-width="2" fill="#fff"/><path d="M1336.63 476.64l20 10-20 10" stroke="#5e5e5e" stroke-width="2" fill="#fff" fill-opacity="0"/><path d="M1336.63 486.64h20" stroke="#5e5e5e" stroke-width="2" fill="#fff"/><path d="M896.13 418.5h38.28" stroke="#5e5e5e" stroke-width="2" fill="none"/><path d="M896.13 428.5v-20M876.13 418.5h20" stroke="#5e5e5e" stroke-width="2" fill="#fff"/><path d="M952.8 428.5l-20-10 20-10" stroke="#5e5e5e" stroke-width="2" fill="#fff" fill-opacity="0"/><path d="M952.8 418.5h-20" stroke="#5e5e5e" stroke-width="2" fill="#fff"/><defs><path fill="#333" d="M232-93c-1 65-40 97-104 97C67 4 28-28 28-90v-158h33c8 89-33 224 67 224 102 0 64-133 71-224h33v155" id="I"/><path fill="#333" d="M135-143c-3-34-86-38-87 0 15 53 115 12 119 90S17 21 10-45l28-5c4 36 97 45 98 0-10-56-113-15-118-90-4-57 82-63 122-42 12 7 21 19 24 35" id="J"/><path fill="#333" d="M100-194c63 0 86 42 84 106H49c0 40 14 67 53 68 26 1 43-12 49-29l28 8c-11 28-37 45-77 45C44 4 14-33 15-96c1-61 26-98 85-98zm52 81c6-60-76-77-97-28-3 7-6 17-6 28h103" id="K"/><path fill="#333" d="M114-163C36-179 61-72 57 0H25l-1-190h30c1 12-1 29 2 39 6-27 23-49 58-41v29" id="L"/><g id="a"><use transform="matrix(0.06172839506172839,0,0,0.06172839506172839,0,0)" xlink:href="#I"/><use transform="matrix(0.06172839506172839,0,0,0.06172839506172839,15.987654320987653,0)" xlink:href="#J"/><use transform="matrix(0.06172839506172839,0,0,0.06172839506172839,27.098765432098766,0)" xlink:href="#K"/><use transform="matrix(0.06172839506172839,0,0,0.06172839506172839,39.44444444444444,0)" xlink:href="#L"/></g><path fill="#333" d="M30-248c87 1 191-15 191 75 0 78-77 80-158 76V0H30v-248zm33 125c57 0 124 11 124-50 0-59-68-47-124-48v98" id="M"/><path fill="#333" d="M194 0L95-120 63-95V0H30v-248h33v124l119-124h40L117-140 236 0h-42" id="N"/><g id="b"><use transform="matrix(0.06172839506172839,0,0,0.06172839506172839,0,0)" xlink:href="#M"/><use transform="matrix(0.06172839506172839,0,0,0.06172839506172839,14.814814814814813,0)" xlink:href="#N"/></g><path fill="#333" d="M24-231v-30h32v30H24zM24 0v-190h32V0H24" id="O"/><path fill="#333" d="M85-194c31 0 48 13 60 33l-1-100h32l1 261h-30c-2-10 0-23-3-31C134-8 116 4 85 4 32 4 16-35 15-94c0-66 23-100 70-100zm9 24c-40 0-46 34-46 75 0 40 6 74 45 74 42 0 51-32 51-76 0-42-9-74-50-73" id="P"/><g id="c"><use transform="matrix(0.06172839506172839,0,0,0.06172839506172839,0,0)" xlink:href="#O"/><use transform="matrix(0.06172839506172839,0,0,0.06172839506172839,4.876543209876543,0)" xlink:href="#P"/></g><path fill="#333" d="M84 4C-5 8 30-112 23-190h32v120c0 31 7 50 39 49 72-2 45-101 50-169h31l1 190h-30c-1-10 1-25-2-33-11 22-28 36-60 37" id="Q"/><g id="d"><use transform="matrix(0.06172839506172839,0,0,0.06172839506172839,0,0)" xlink:href="#Q"/><use transform="matrix(0.06172839506172839,0,0,0.06172839506172839,12.345679012345679,0)" xlink:href="#Q"/><use transform="matrix(0.06172839506172839,0,0,0.06172839506172839,24.691358024691358,0)" xlink:href="#O"/><use transform="matrix(0.06172839506172839,0,0,0.06172839506172839,29.5679012345679,0)" xlink:href="#P"/></g><path fill="#333" d="M141-36C126-15 110 5 73 4 37 3 15-17 15-53c-1-64 63-63 125-63 3-35-9-54-41-54-24 1-41 7-42 31l-33-3c5-37 33-52 76-52 45 0 72 20 72 64v82c-1 20 7 32 28 27v20c-31 9-61-2-59-35zM48-53c0 20 12 33 32 33 41-3 63-29 60-74-43 2-92-5-92 41" id="R"/><path fill="#333" d="M108 0H70L1-190h34L89-25l56-165h34" id="S"/><path fill="#333" d="M59-47c-2 24 18 29 38 22v24C64 9 27 4 27-40v-127H5v-23h24l9-43h21v43h35v23H59v120" id="T"/><g id="e"><use transform="matrix(0.06172839506172839,0,0,0.06172839506172839,0,0)" xlink:href="#R"/><use transform="matrix(0.06172839506172839,0,0,0.06172839506172839,12.345679012345679,0)" xlink:href="#S"/><use transform="matrix(0.06172839506172839,0,0,0.06172839506172839,23.45679012345679,0)" xlink:href="#R"/><use transform="matrix(0.06172839506172839,0,0,0.06172839506172839,35.80246913580247,0)" xlink:href="#T"/><use transform="matrix(0.06172839506172839,0,0,0.06172839506172839,41.97530864197531,0)" xlink:href="#R"/><use transform="matrix(0.06172839506172839,0,0,0.06172839506172839,54.32098765432099,0)" xlink:href="#L"/></g><path fill="#353c41" d="M634-1102c292 0 422 254 422 573 0 298-143 547-420 549-137 0-242-48-317-145L310 0H140v-1536h185v573c75-93 178-139 309-139zm-44 965c207 0 281-175 281-413 0-224-79-395-283-395-122 0-210 57-263 170v468c57 113 145 170 265 170" id="U"/><path fill="#353c41" d="M494-271l252-811h198L509 167C425 381 299 474 84 421V271c167 16 242-37 283-173l41-110L22-1082h202" id="V"/><path fill="#353c41" d="M456 20C285 20 205-92 206-268v-671H9v-143h197v-262h185v262h202v143H391v671c-9 125 92 149 207 118V0c-49 13-96 20-142 20" id="W"/><path fill="#353c41" d="M599-131c141 0 220-65 285-146l113 88C906-50 770 20 589 20 281 21 93-214 93-545c0-223 93-397 233-485 74-48 154-72 240-72 300 2 449 218 445 537v77H278c0 197 129 357 321 357zm227-509c-3-180-88-310-260-310-170 0-264 140-282 310h542" id="X"/><path fill="#353c41" d="M561-1102c238-4 403 126 403 351v498c0 99 13 178 38 237V0H808c-11-21-19-59-26-114C696-25 593 20 474 20c-199 0-368-130-365-320 4-251 214-359 490-356h180v-85c-1-135-86-212-229-212-115 0-232 67-233 171H131c20-205 206-316 430-320zM294-326c0 117 90 185 207 185 122 0 239-75 278-162v-222H634c-227 0-340 66-340 199" id="Y"/><g id="f"><use transform="matrix(0.009114583333333334,0,0,0.009114583333333334,0,0)" xlink:href="#U"/><use transform="matrix(0.009114583333333334,0,0,0.009114583333333334,10.372395833333334,0)" xlink:href="#V"/><use transform="matrix(0.009114583333333334,0,0,0.009114583333333334,19.204427083333336,0)" xlink:href="#W"/><use transform="matrix(0.009114583333333334,0,0,0.009114583333333334,25.302083333333336,0)" xlink:href="#X"/><use transform="matrix(0.009114583333333334,0,0,0.009114583333333334,35.19140625,0)" xlink:href="#Y"/></g><path fill="#333" d="M117-194c89-4 53 116 60 194h-32v-121c0-31-8-49-39-48C34-167 62-67 57 0H25l-1-190h30c1 10-1 24 2 32 11-22 29-35 61-36" id="Z"/><path fill="#333" d="M210-169c-67 3-38 105-44 169h-31v-121c0-29-5-50-35-48C34-165 62-65 56 0H25l-1-190h30c1 10-1 24 2 32 10-44 99-50 107 0 11-21 27-35 58-36 85-2 47 119 55 194h-31v-121c0-29-5-49-35-48" id="aa"/><g id="g"><use transform="matrix(0.06172839506172839,0,0,0.06172839506172839,0,0)" xlink:href="#Z"/><use transform="matrix(0.06172839506172839,0,0,0.06172839506172839,12.345679012345679,0)" xlink:href="#R"/><use transform="matrix(0.06172839506172839,0,0,0.06172839506172839,24.691358024691358,0)" xlink:href="#aa"/><use transform="matrix(0.06172839506172839,0,0,0.06172839506172839,43.148148148148145,0)" xlink:href="#K"/></g><path fill="#333" d="M96-169c-40 0-48 33-48 73s9 75 48 75c24 0 41-14 43-38l32 2c-6 37-31 61-74 61-59 0-76-41-82-99-10-93 101-131 147-64 4 7 5 14 7 22l-32 3c-4-21-16-35-41-35" id="ab"/><path fill="#333" d="M106-169C34-169 62-67 57 0H25v-261h32l-1 103c12-21 28-36 61-36 89 0 53 116 60 194h-32v-121c2-32-8-49-39-48" id="ac"/><g id="h"><use transform="matrix(0.06172839506172839,0,0,0.06172839506172839,0,0)" xlink:href="#ab"/><use transform="matrix(0.06172839506172839,0,0,0.06172839506172839,11.11111111111111,0)" xlink:href="#ac"/><use transform="matrix(0.06172839506172839,0,0,0.06172839506172839,23.45679012345679,0)" xlink:href="#R"/><use transform="matrix(0.06172839506172839,0,0,0.06172839506172839,35.80246913580247,0)" xlink:href="#L"/></g><path fill="#333" d="M24 0v-261h32V0H24" id="ad"/><g id="i"><use transform="matrix(0.06172839506172839,0,0,0.06172839506172839,0,0)" xlink:href="#K"/><use transform="matrix(0.06172839506172839,0,0,0.06172839506172839,12.345679012345679,0)" xlink:href="#aa"/><use transform="matrix(0.06172839506172839,0,0,0.06172839506172839,30.80246913580247,0)" xlink:href="#R"/><use transform="matrix(0.06172839506172839,0,0,0.06172839506172839,43.148148148148145,0)" xlink:href="#O"/><use transform="matrix(0.06172839506172839,0,0,0.06172839506172839,48.02469135802469,0)" xlink:href="#ad"/></g><path fill="#333" d="M115-194c55 1 70 41 70 98S169 2 115 4C84 4 66-9 55-30l1 105H24l-1-265h31l2 30c10-21 28-34 59-34zm-8 174c40 0 45-34 45-75s-6-73-45-74c-42 0-51 32-51 76 0 43 10 73 51 73" id="ae"/><path fill="#333" d="M206 0h-36l-40-164L89 0H53L-1-190h32L70-26l43-164h34l41 164 42-164h31" id="af"/><path fill="#333" d="M100-194c62-1 85 37 85 99 1 63-27 99-86 99S16-35 15-95c0-66 28-99 85-99zM99-20c44 1 53-31 53-75 0-43-8-75-51-75s-53 32-53 75 10 74 51 75" id="ag"/><g id="j"><use transform="matrix(0.06172839506172839,0,0,0.06172839506172839,0,0)" xlink:href="#ae"/><use transform="matrix(0.06172839506172839,0,0,0.06172839506172839,12.345679012345679,0)" xlink:href="#R"/><use transform="matrix(0.06172839506172839,0,0,0.06172839506172839,24.691358024691358,0)" xlink:href="#J"/><use transform="matrix(0.06172839506172839,0,0,0.06172839506172839,35.80246913580247,0)" xlink:href="#J"/><use transform="matrix(0.06172839506172839,0,0,0.06172839506172839,46.91358024691358,0)" xlink:href="#af"/><use transform="matrix(0.06172839506172839,0,0,0.06172839506172839,62.901234567901234,0)" xlink:href="#ag"/><use transform="matrix(0.06172839506172839,0,0,0.06172839506172839,75.24691358024691,0)" xlink:href="#L"/><use transform="matrix(0.06172839506172839,0,0,0.06172839506172839,82.5925925925926,0)" xlink:href="#P"/></g><path fill="#333" d="M115-194c53 0 69 39 70 98 0 66-23 100-70 100C84 3 66-7 56-30L54 0H23l1-261h32v101c10-23 28-34 59-34zm-8 174c40 0 45-34 45-75 0-40-5-75-45-74-42 0-51 32-51 76 0 43 10 73 51 73" id="ah"/><g id="k"><use transform="matrix(0.06172839506172839,0,0,0.06172839506172839,0,0)" xlink:href="#R"/><use transform="matrix(0.06172839506172839,0,0,0.06172839506172839,12.345679012345679,0)" xlink:href="#S"/><use transform="matrix(0.06172839506172839,0,0,0.06172839506172839,23.45679012345679,0)" xlink:href="#R"/><use transform="matrix(0.06172839506172839,0,0,0.06172839506172839,35.80246913580247,0)" xlink:href="#O"/><use transform="matrix(0.06172839506172839,0,0,0.06172839506172839,40.67901234567901,0)" xlink:href="#ad"/><use transform="matrix(0.06172839506172839,0,0,0.06172839506172839,45.55555555555556,0)" xlink:href="#R"/><use transform="matrix(0.06172839506172839,0,0,0.06172839506172839,57.901234567901234,0)" xlink:href="#ah"/><use transform="matrix(0.06172839506172839,0,0,0.06172839506172839,70.24691358024691,0)" xlink:href="#ad"/><use transform="matrix(0.06172839506172839,0,0,0.06172839506172839,75.12345679012346,0)" xlink:href="#K"/></g><g id="l"><use transform="matrix(0.06172839506172839,0,0,0.06172839506172839,0,0)" xlink:href="#ah"/><use transform="matrix(0.06172839506172839,0,0,0.06172839506172839,12.345679012345679,0)" xlink:href="#ag"/><use transform="matrix(0.06172839506172839,0,0,0.06172839506172839,24.691358024691358,0)" xlink:href="#ag"/><use transform="matrix(0.06172839506172839,0,0,0.06172839506172839,37.03703703703704,0)" xlink:href="#ad"/></g><path fill="#333" d="M24-231v-30h32v30H24zM-9 49c24 4 33-6 33-30v-209h32V24c2 40-23 58-65 49V49" id="ai"/><g id="m"><use transform="matrix(0.06172839506172839,0,0,0.06172839506172839,0,0)" xlink:href="#M"/><use transform="matrix(0.06172839506172839,0,0,0.06172839506172839,14.814814814814813,0)" xlink:href="#L"/><use transform="matrix(0.06172839506172839,0,0,0.06172839506172839,22.160493827160494,0)" xlink:href="#ag"/><use transform="matrix(0.06172839506172839,0,0,0.06172839506172839,34.50617283950617,0)" xlink:href="#ai"/><use transform="matrix(0.06172839506172839,0,0,0.06172839506172839,39.382716049382715,0)" xlink:href="#K"/><use transform="matrix(0.06172839506172839,0,0,0.06172839506172839,51.72839506172839,0)" xlink:href="#ab"/><use transform="matrix(0.06172839506172839,0,0,0.06172839506172839,62.839506172839506,0)" xlink:href="#T"/></g><g id="n"><use transform="matrix(0.06172839506172839,0,0,0.06172839506172839,0,0)" xlink:href="#P"/><use transform="matrix(0.06172839506172839,0,0,0.06172839506172839,12.345679012345679,0)" xlink:href="#K"/><use transform="matrix(0.06172839506172839,0,0,0.06172839506172839,24.691358024691358,0)" xlink:href="#J"/><use transform="matrix(0.06172839506172839,0,0,0.06172839506172839,35.80246913580247,0)" xlink:href="#ab"/><use transform="matrix(0.06172839506172839,0,0,0.06172839506172839,46.91358024691358,0)" xlink:href="#L"/><use transform="matrix(0.06172839506172839,0,0,0.06172839506172839,54.25925925925926,0)" xlink:href="#O"/><use transform="matrix(0.06172839506172839,0,0,0.06172839506172839,59.135802469135804,0)" xlink:href="#ae"/><use transform="matrix(0.06172839506172839,0,0,0.06172839506172839,71.48148148148148,0)" xlink:href="#T"/><use transform="matrix(0.06172839506172839,0,0,0.06172839506172839,77.65432098765432,0)" xlink:href="#O"/><use transform="matrix(0.06172839506172839,0,0,0.06172839506172839,82.53086419753086,0)" xlink:href="#ag"/><use transform="matrix(0.06172839506172839,0,0,0.06172839506172839,94.87654320987654,0)" xlink:href="#Z"/></g><g id="o"><use transform="matrix(0.06172839506172839,0,0,0.06172839506172839,0,0)" xlink:href="#M"/><use transform="matrix(0.06172839506172839,0,0,0.06172839506172839,14.814814814814813,0)" xlink:href="#R"/><use transform="matrix(0.06172839506172839,0,0,0.06172839506172839,27.160493827160494,0)" xlink:href="#L"/><use transform="matrix(0.06172839506172839,0,0,0.06172839506172839,34.50617283950617,0)" xlink:href="#T"/><use transform="matrix(0.06172839506172839,0,0,0.06172839506172839,40.67901234567901,0)" xlink:href="#O"/><use transform="matrix(0.06172839506172839,0,0,0.06172839506172839,45.55555555555556,0)" xlink:href="#ab"/><use transform="matrix(0.06172839506172839,0,0,0.06172839506172839,56.66666666666667,0)" xlink:href="#O"/><use transform="matrix(0.06172839506172839,0,0,0.06172839506172839,61.543209876543216,0)" xlink:href="#ae"/><use transform="matrix(0.06172839506172839,0,0,0.06172839506172839,73.8888888888889,0)" xlink:href="#R"/><use transform="matrix(0.06172839506172839,0,0,0.06172839506172839,86.23456790123458,0)" xlink:href="#Z"/><use transform="matrix(0.06172839506172839,0,0,0.06172839506172839,98.58024691358027,0)" xlink:href="#T"/></g><path fill="#333" d="M177-190C167-65 218 103 67 71c-23-6-38-20-44-43l32-5c15 47 100 32 89-28v-30C133-14 115 1 83 1 29 1 15-40 15-95c0-56 16-97 71-98 29-1 48 16 59 35 1-10 0-23 2-32h30zM94-22c36 0 50-32 50-73 0-42-14-75-50-75-39 0-46 34-46 75s6 73 46 73" id="aj"/><g id="p"><use transform="matrix(0.06172839506172839,0,0,0.06172839506172839,0,0)" xlink:href="#ab"/><use transform="matrix(0.06172839506172839,0,0,0.06172839506172839,11.11111111111111,0)" xlink:href="#R"/><use transform="matrix(0.06172839506172839,0,0,0.06172839506172839,23.45679012345679,0)" xlink:href="#L"/><use transform="matrix(0.06172839506172839,0,0,0.06172839506172839,30.80246913580247,0)" xlink:href="#aj"/><use transform="matrix(0.06172839506172839,0,0,0.06172839506172839,43.148148148148145,0)" xlink:href="#ag"/></g><g id="q"><use transform="matrix(0.06172839506172839,0,0,0.06172839506172839,0,0)" xlink:href="#O"/><use transform="matrix(0.06172839506172839,0,0,0.06172839506172839,4.876543209876543,0)" xlink:href="#Z"/><use transform="matrix(0.06172839506172839,0,0,0.06172839506172839,17.22222222222222,0)" xlink:href="#T"/></g><path fill="#333" d="M63-220v92h138v28H63V0H30v-248h175v28H63" id="ak"/><g id="r"><use transform="matrix(0.06172839506172839,0,0,0.06172839506172839,0,0)" xlink:href="#ak"/><use transform="matrix(0.06172839506172839,0,0,0.06172839506172839,13.518518518518517,0)" xlink:href="#N"/></g><path fill="#333" d="M-5 72V49h209v23H-5" id="al"/><g id="s"><use transform="matrix(0.06172839506172839,0,0,0.06172839506172839,0,0)" xlink:href="#Q"/><use transform="matrix(0.06172839506172839,0,0,0.06172839506172839,12.345679012345679,0)" xlink:href="#J"/><use transform="matrix(0.06172839506172839,0,0,0.06172839506172839,23.45679012345679,0)" xlink:href="#K"/><use transform="matrix(0.06172839506172839,0,0,0.06172839506172839,35.80246913580247,0)" xlink:href="#L"/><use transform="matrix(0.06172839506172839,0,0,0.06172839506172839,43.148148148148145,0)" xlink:href="#al"/><use transform="matrix(0.06172839506172839,0,0,0.06172839506172839,55.49382716049382,0)" xlink:href="#O"/><use transform="matrix(0.06172839506172839,0,0,0.06172839506172839,60.37037037037037,0)" xlink:href="#P"/></g><g id="t"><use transform="matrix(0.06172839506172839,0,0,0.06172839506172839,0,0)" xlink:href="#ae"/><use transform="matrix(0.06172839506172839,0,0,0.06172839506172839,12.345679012345679,0)" xlink:href="#L"/><use transform="matrix(0.06172839506172839,0,0,0.06172839506172839,19.691358024691358,0)" xlink:href="#ag"/><use transform="matrix(0.06172839506172839,0,0,0.06172839506172839,32.03703703703704,0)" xlink:href="#ai"/><use transform="matrix(0.06172839506172839,0,0,0.06172839506172839,36.91358024691358,0)" xlink:href="#K"/><use transform="matrix(0.06172839506172839,0,0,0.06172839506172839,49.25925925925926,0)" xlink:href="#ab"/><use transform="matrix(0.06172839506172839,0,0,0.06172839506172839,60.37037037037037,0)" xlink:href="#T"/><use transform="matrix(0.06172839506172839,0,0,0.06172839506172839,66.5432098765432,0)" xlink:href="#al"/><use transform="matrix(0.06172839506172839,0,0,0.06172839506172839,78.88888888888889,0)" xlink:href="#O"/><use transform="matrix(0.06172839506172839,0,0,0.06172839506172839,83.76543209876543,0)" xlink:href="#P"/></g><path fill="#333" d="M212-179c-10-28-35-45-73-45-59 0-87 40-87 99 0 60 29 101 89 101 43 0 62-24 78-52l27 14C228-24 195 4 139 4 59 4 22-46 18-125c-6-104 99-153 187-111 19 9 31 26 39 46" id="am"/><path fill="#333" d="M179-190L93 31C79 59 56 82 12 73V49c39 6 53-20 64-50L1-190h34L92-34l54-156h33" id="an"/><g id="u"><use transform="matrix(0.06172839506172839,0,0,0.06172839506172839,0,0)" xlink:href="#am"/><use transform="matrix(0.06172839506172839,0,0,0.06172839506172839,15.987654320987653,0)" xlink:href="#R"/><use transform="matrix(0.06172839506172839,0,0,0.06172839506172839,28.333333333333332,0)" xlink:href="#T"/><use transform="matrix(0.06172839506172839,0,0,0.06172839506172839,34.50617283950617,0)" xlink:href="#K"/><use transform="matrix(0.06172839506172839,0,0,0.06172839506172839,46.85185185185185,0)" xlink:href="#aj"/><use transform="matrix(0.06172839506172839,0,0,0.06172839506172839,59.197530864197525,0)" xlink:href="#ag"/><use transform="matrix(0.06172839506172839,0,0,0.06172839506172839,71.5432098765432,0)" xlink:href="#L"/><use transform="matrix(0.06172839506172839,0,0,0.06172839506172839,78.88888888888889,0)" xlink:href="#an"/></g><path fill="#333" d="M127-220V0H93v-220H8v-28h204v28h-85" id="ao"/><path fill="#333" d="M143 0L79-87 56-68V0H24v-261h32v163l83-92h37l-77 82L181 0h-38" id="ap"/><g id="v"><use transform="matrix(0.06172839506172839,0,0,0.06172839506172839,0,0)" xlink:href="#ao"/><use transform="matrix(0.06172839506172839,0,0,0.06172839506172839,11.049382716049381,0)" xlink:href="#R"/><use transform="matrix(0.06172839506172839,0,0,0.06172839506172839,23.39506172839506,0)" xlink:href="#J"/><use transform="matrix(0.06172839506172839,0,0,0.06172839506172839,34.50617283950617,0)" xlink:href="#ap"/></g><g id="w"><use transform="matrix(0.06172839506172839,0,0,0.06172839506172839,0,0)" xlink:href="#T"/><use transform="matrix(0.06172839506172839,0,0,0.06172839506172839,6.172839506172839,0)" xlink:href="#O"/><use transform="matrix(0.06172839506172839,0,0,0.06172839506172839,11.049382716049383,0)" xlink:href="#T"/><use transform="matrix(0.06172839506172839,0,0,0.06172839506172839,17.22222222222222,0)" xlink:href="#ad"/><use transform="matrix(0.06172839506172839,0,0,0.06172839506172839,22.098765432098766,0)" xlink:href="#K"/></g><g id="x"><use transform="matrix(0.06172839506172839,0,0,0.06172839506172839,0,0)" xlink:href="#J"/><use transform="matrix(0.06172839506172839,0,0,0.06172839506172839,11.11111111111111,0)" xlink:href="#T"/><use transform="matrix(0.06172839506172839,0,0,0.06172839506172839,17.28395061728395,0)" xlink:href="#R"/><use transform="matrix(0.06172839506172839,0,0,0.06172839506172839,29.629629629629626,0)" xlink:href="#L"/><use transform="matrix(0.06172839506172839,0,0,0.06172839506172839,36.9753086419753,0)" xlink:href="#T"/><use transform="matrix(0.06172839506172839,0,0,0.06172839506172839,43.148148148148145,0)" xlink:href="#al"/><use transform="matrix(0.06172839506172839,0,0,0.06172839506172839,55.49382716049382,0)" xlink:href="#P"/><use transform="matrix(0.06172839506172839,0,0,0.06172839506172839,67.8395061728395,0)" xlink:href="#R"/><use transform="matrix(0.06172839506172839,0,0,0.06172839506172839,80.18518518518519,0)" xlink:href="#T"/><use transform="matrix(0.06172839506172839,0,0,0.06172839506172839,86.35802469135803,0)" xlink:href="#K"/></g><g id="y"><use transform="matrix(0.06172839506172839,0,0,0.06172839506172839,0,0)" xlink:href="#P"/><use transform="matrix(0.06172839506172839,0,0,0.06172839506172839,12.345679012345679,0)" xlink:href="#R"/><use transform="matrix(0.06172839506172839,0,0,0.06172839506172839,24.691358024691358,0)" xlink:href="#T"/><use transform="matrix(0.06172839506172839,0,0,0.06172839506172839,30.864197530864196,0)" xlink:href="#K"/></g><g id="z"><use transform="matrix(0.06172839506172839,0,0,0.06172839506172839,0,0)" xlink:href="#K"/><use transform="matrix(0.06172839506172839,0,0,0.06172839506172839,12.345679012345679,0)" xlink:href="#Z"/><use transform="matrix(0.06172839506172839,0,0,0.06172839506172839,24.691358024691358,0)" xlink:href="#P"/><use transform="matrix(0.06172839506172839,0,0,0.06172839506172839,37.03703703703704,0)" xlink:href="#al"/><use transform="matrix(0.06172839506172839,0,0,0.06172839506172839,49.382716049382715,0)" xlink:href="#P"/><use transform="matrix(0.06172839506172839,0,0,0.06172839506172839,61.72839506172839,0)" xlink:href="#R"/><use transform="matrix(0.06172839506172839,0,0,0.06172839506172839,74.07407407407408,0)" xlink:href="#T"/><use transform="matrix(0.06172839506172839,0,0,0.06172839506172839,80.24691358024691,0)" xlink:href="#K"/></g><g id="A"><use transform="matrix(0.06172839506172839,0,0,0.06172839506172839,0,0)" xlink:href="#ab"/><use transform="matrix(0.06172839506172839,0,0,0.06172839506172839,11.11111111111111,0)" xlink:href="#R"/><use transform="matrix(0.06172839506172839,0,0,0.06172839506172839,23.45679012345679,0)" xlink:href="#T"/><use transform="matrix(0.06172839506172839,0,0,0.06172839506172839,29.62962962962963,0)" xlink:href="#K"/><use transform="matrix(0.06172839506172839,0,0,0.06172839506172839,41.97530864197531,0)" xlink:href="#aj"/><use transform="matrix(0.06172839506172839,0,0,0.06172839506172839,54.32098765432099,0)" xlink:href="#ag"/><use transform="matrix(0.06172839506172839,0,0,0.06172839506172839,66.66666666666667,0)" xlink:href="#L"/><use transform="matrix(0.06172839506172839,0,0,0.06172839506172839,74.01234567901236,0)" xlink:href="#an"/><use transform="matrix(0.06172839506172839,0,0,0.06172839506172839,85.12345679012347,0)" xlink:href="#al"/><use transform="matrix(0.06172839506172839,0,0,0.06172839506172839,97.46913580246915,0)" xlink:href="#O"/><use transform="matrix(0.06172839506172839,0,0,0.06172839506172839,102.3456790123457,0)" xlink:href="#P"/></g><g id="B"><use transform="matrix(0.06172839506172839,0,0,0.06172839506172839,0,0)" xlink:href="#ao"/><use transform="matrix(0.06172839506172839,0,0,0.06172839506172839,11.049382716049381,0)" xlink:href="#R"/><use transform="matrix(0.06172839506172839,0,0,0.06172839506172839,23.39506172839506,0)" xlink:href="#aj"/></g><g id="C"><use transform="matrix(0.06172839506172839,0,0,0.06172839506172839,0,0)" xlink:href="#ab"/><use transform="matrix(0.06172839506172839,0,0,0.06172839506172839,11.11111111111111,0)" xlink:href="#ag"/><use transform="matrix(0.06172839506172839,0,0,0.06172839506172839,23.45679012345679,0)" xlink:href="#ad"/><use transform="matrix(0.06172839506172839,0,0,0.06172839506172839,28.333333333333336,0)" xlink:href="#ag"/><use transform="matrix(0.06172839506172839,0,0,0.06172839506172839,40.67901234567901,0)" xlink:href="#L"/></g><g id="D"><use transform="matrix(0.06172839506172839,0,0,0.06172839506172839,0,0)" xlink:href="#T"/><use transform="matrix(0.06172839506172839,0,0,0.06172839506172839,6.172839506172839,0)" xlink:href="#R"/><use transform="matrix(0.06172839506172839,0,0,0.06172839506172839,18.51851851851852,0)" xlink:href="#J"/><use transform="matrix(0.06172839506172839,0,0,0.06172839506172839,29.62962962962963,0)" xlink:href="#ap"/><use transform="matrix(0.06172839506172839,0,0,0.06172839506172839,40.74074074074074,0)" xlink:href="#al"/><use transform="matrix(0.06172839506172839,0,0,0.06172839506172839,53.08641975308642,0)" xlink:href="#T"/><use transform="matrix(0.06172839506172839,0,0,0.06172839506172839,59.25925925925926,0)" xlink:href="#R"/><use transform="matrix(0.06172839506172839,0,0,0.06172839506172839,71.60493827160494,0)" xlink:href="#aj"/><use transform="matrix(0.06172839506172839,0,0,0.06172839506172839,83.95061728395062,0)" xlink:href="#J"/></g><g id="E"><use transform="matrix(0.06172839506172839,0,0,0.06172839506172839,0,0)" xlink:href="#T"/><use transform="matrix(0.06172839506172839,0,0,0.06172839506172839,6.172839506172839,0)" xlink:href="#R"/><use transform="matrix(0.06172839506172839,0,0,0.06172839506172839,18.51851851851852,0)" xlink:href="#aj"/><use transform="matrix(0.06172839506172839,0,0,0.06172839506172839,30.864197530864196,0)" xlink:href="#al"/><use transform="matrix(0.06172839506172839,0,0,0.06172839506172839,43.20987654320987,0)" xlink:href="#O"/><use transform="matrix(0.06172839506172839,0,0,0.06172839506172839,48.08641975308642,0)" xlink:href="#P"/></g><g id="F"><use transform="matrix(0.06172839506172839,0,0,0.06172839506172839,0,0)" xlink:href="#T"/><use transform="matrix(0.06172839506172839,0,0,0.06172839506172839,6.172839506172839,0)" xlink:href="#R"/><use transform="matrix(0.06172839506172839,0,0,0.06172839506172839,18.51851851851852,0)" xlink:href="#J"/><use transform="matrix(0.06172839506172839,0,0,0.06172839506172839,29.62962962962963,0)" xlink:href="#ap"/><use transform="matrix(0.06172839506172839,0,0,0.06172839506172839,40.74074074074074,0)" xlink:href="#al"/><use transform="matrix(0.06172839506172839,0,0,0.06172839506172839,53.08641975308642,0)" xlink:href="#O"/><use transform="matrix(0.06172839506172839,0,0,0.06172839506172839,57.96296296296296,0)" xlink:href="#P"/></g><path fill="#333" d="M30 0v-248h33v221h125V0H30" id="aq"/><g id="G"><use transform="matrix(0.06172839506172839,0,0,0.06172839506172839,0,0)" xlink:href="#aq"/><use transform="matrix(0.06172839506172839,0,0,0.06172839506172839,12.345679012345679,0)" xlink:href="#ag"/><use transform="matrix(0.06172839506172839,0,0,0.06172839506172839,24.691358024691358,0)" xlink:href="#aj"/><use transform="matrix(0.06172839506172839,0,0,0.06172839506172839,37.03703703703704,0)" xlink:href="#al"/><use transform="matrix(0.06172839506172839,0,0,0.06172839506172839,49.382716049382715,0)" xlink:href="#ab"/><use transform="matrix(0.06172839506172839,0,0,0.06172839506172839,60.49382716049382,0)" xlink:href="#ag"/><use transform="matrix(0.06172839506172839,0,0,0.06172839506172839,72.8395061728395,0)" xlink:href="#aa"/><use transform="matrix(0.06172839506172839,0,0,0.06172839506172839,91.29629629629629,0)" xlink:href="#aa"/><use transform="matrix(0.06172839506172839,0,0,0.06172839506172839,109.75308641975307,0)" xlink:href="#K"/><use transform="matrix(0.06172839506172839,0,0,0.06172839506172839,122.09876543209876,0)" xlink:href="#Z"/><use transform="matrix(0.06172839506172839,0,0,0.06172839506172839,134.44444444444443,0)" xlink:href="#T"/></g><g id="H"><use transform="matrix(0.06172839506172839,0,0,0.06172839506172839,0,0)" xlink:href="#O"/><use transform="matrix(0.06172839506172839,0,0,0.06172839506172839,4.876543209876543,0)" xlink:href="#J"/><use transform="matrix(0.06172839506172839,0,0,0.06172839506172839,15.987654320987653,0)" xlink:href="#al"/><use transform="matrix(0.06172839506172839,0,0,0.06172839506172839,28.333333333333332,0)" xlink:href="#ab"/><use transform="matrix(0.06172839506172839,0,0,0.06172839506172839,39.44444444444444,0)" xlink:href="#ag"/><use transform="matrix(0.06172839506172839,0,0,0.06172839506172839,51.79012345679012,0)" xlink:href="#aa"/><use transform="matrix(0.06172839506172839,0,0,0.06172839506172839,70.24691358024691,0)" xlink:href="#aa"/><use transform="matrix(0.06172839506172839,0,0,0.06172839506172839,88.7037037037037,0)" xlink:href="#K"/><use transform="matrix(0.06172839506172839,0,0,0.06172839506172839,101.04938271604938,0)" xlink:href="#Z"/><use transform="matrix(0.06172839506172839,0,0,0.06172839506172839,113.39506172839506,0)" xlink:href="#T"/></g></defs></g></svg>